<svg xmlns="http://www.w3.org/2000/svg" xmlns:xlink="http://www.w3.org/1999/xlink" viewBox="0 0 1920 900">
  <defs>
    <linearGradient id="linear-gradient" x1="448.28" y1="513.93" x2="454.11" y2="958.26" gradientUnits="userSpaceOnUse">
      <stop offset="0" stop-color="#cce0f4" stop-opacity="0"/>
      <stop offset="0.1" stop-color="#c9dff3" stop-opacity="0.02"/>
      <stop offset="0.18" stop-color="#bedaf1" stop-opacity="0.06"/>
      <stop offset="0.25" stop-color="#abd2ee" stop-opacity="0.15"/>
      <stop offset="0.32" stop-color="#92c7e8" stop-opacity="0.26"/>
      <stop offset="0.39" stop-color="#70b9e2" stop-opacity="0.41"/>
      <stop offset="0.45" stop-color="#48a8da" stop-opacity="0.6"/>
      <stop offset="0.52" stop-color="#1b95d1" stop-opacity="0.8"/>
      <stop offset="1" stop-color="#005b97"/>
    </linearGradient>
    <linearGradient id="linear-gradient-2" x1="377.93" y1="570.09" x2="383.02" y2="958.61" xlink:href="#linear-gradient"/>
  </defs>
  <title>wavybg</title>
  <g id="Waves">
    <path d="M718.5,270.5c222.88,26.92,306.17-106,495-36,132.59,49.15,121.14,125.67,246,156,187.49,45.54,291.49-108,425-51A172.28,172.28,0,0,1,1920,360V0H282.76C355.54,134.48,539.55,248.89,718.5,270.5Z" fill="#29abe2" opacity="0.17"/>
    <rect width="1920" height="900" fill="#00151c"/>
    <path d="M718.5,270.5c222.88,26.92,306.17-106,495-36,132.59,49.15,121.14,125.67,246,156,187.49,45.54,291.49-108,425-51A172.28,172.28,0,0,1,1920,360V0H282.76C355.54,134.48,539.55,248.89,718.5,270.5Z" fill="#29abe2" opacity="0.17"/>
    <path d="M872.06,157.93c194.39,15.72,267-61.89,431.73-21,115.65,28.7,105.67,73.38,214.56,91.09,163.53,26.59,254.24-63.06,370.69-29.78a180,180,0,0,1,31,11.94V0H492C555.48,78.52,716,145.31,872.06,157.93Z" fill="#29abe2" opacity="0.17"/>
    <path d="M1137.71,157.93c145.11,15.72,199.35-61.89,322.29-21,86.33,28.7,78.88,73.38,160.17,91.09,122.07,26.59,189.79-63.06,276.72-29.78A116.47,116.47,0,0,1,1920,210.16V0H854C901.39,78.52,1021.2,145.31,1137.71,157.93Z" fill="#29abe2" opacity="0.17"/>
    <path d="M1278.61,84.73c119,8.43,163.44-33.21,264.24-11.28,70.78,15.4,64.67,39.37,131.32,48.87,100.09,14.26,155.61-33.84,226.88-16a120.45,120.45,0,0,1,19,6.41V0H1046C1084.85,42.12,1183.08,78,1278.61,84.73Z" fill="#00151c" opacity="0.51"/>
    <path d="M-74.28,622.47C.78,509.94,188.89,489.37,300.83,555c135,79.17,87.6,241.78,212.72,293.92,104.74,43.64,179.06-53.19,346.52-10.3,78.25,20,162.1,66.83,156.68,92.64-8.71,41.48-233.47-40.51-573,10.29-70.77,10.59-232.43,39.8-407.14-3.43-31.31-7.75-74.31-20.61-106.36-58.33C-127.22,812.12-123,695.56-74.28,622.47Z" opacity="0.29" fill="url(#linear-gradient)"/>
    <path d="M-79,665c65.63-98.4,230.11-116.39,328-59,118.08,69.23,76.59,211.41,186,257,91.59,38.16,156.57-46.51,303-9,68.42,17.53,141.74,58.43,137,81-7.62,36.27-204.15-35.42-501,9-61.88,9.26-203.23,34.8-356-3-27.38-6.77-65-18-93-51C-125.29,830.82-121.63,728.91-79,665Z" opacity="0.29" fill="url(#linear-gradient-2)"/>
  </g>
  <g id="RoundedRects">
    <rect x="441.66" y="668.21" width="170.78" height="43.08" rx="10.88" ry="10.88" transform="translate(1382 840.05) rotate(137.35)" fill="none" stroke="#fff" stroke-miterlimit="10" stroke-width="2" opacity="0.07"/>
    <rect x="613.14" y="509.83" width="170.78" height="43.08" rx="10.88" ry="10.88" transform="translate(1572.33 448.99) rotate(137.35)" fill="none" stroke="#fff" stroke-miterlimit="10" stroke-width="2" opacity="0.07"/>
    <rect x="511.82" y="521.96" width="550" height="21.93" rx="10.45" ry="10.45" transform="translate(1726.61 391.89) rotate(137.35)" fill="none" stroke="#fff" stroke-miterlimit="10" stroke-width="2" opacity="0.07"/>
    <rect x="869.56" y="383.27" width="304.59" height="22.18" rx="8.36" ry="8.36" transform="translate(2040.66 -7.83) rotate(137.35)" fill="none" stroke="#fff" stroke-miterlimit="10" stroke-width="2" opacity="0.07"/>
    <rect x="418.7" y="694.85" width="521.39" height="43.08" rx="15.29" ry="15.29" transform="translate(1664.46 783.08) rotate(137.35)" fill="none" stroke="#fff" stroke-miterlimit="10" stroke-width="2" opacity="0.07"/>
    <rect x="-95.58" y="1007.71" width="550" height="21.93" rx="10.45" ry="10.45" transform="translate(1001.51 1646.43) rotate(137.35)" fill="none" stroke="#fff" stroke-miterlimit="10" stroke-width="2" opacity="0.07"/>
    <rect x="262.17" y="869.02" width="304.59" height="22.18" rx="8.36" ry="8.36" transform="translate(1315.56 1246.7) rotate(137.35)" fill="none" stroke="#fff" stroke-miterlimit="10" stroke-width="2" opacity="0.07"/>
    <rect x="579.05" y="620.64" width="550" height="21.93" rx="10.45" ry="10.45" transform="translate(1910.14 517.6) rotate(137.35)" fill="none" stroke="#fff" stroke-miterlimit="10" stroke-width="2" opacity="0.07"/>
    <rect x="936.8" y="481.95" width="304.59" height="22.18" rx="8.36" ry="8.36" transform="translate(2224.19 117.88) rotate(137.35)" fill="none" stroke="#fff" stroke-miterlimit="10" stroke-width="2" opacity="0.08"/>
    <rect x="485.93" y="793.53" width="521.39" height="43.08" rx="15.29" ry="15.29" transform="translate(1847.99 908.79) rotate(137.35)" fill="none" stroke="#fff" stroke-miterlimit="10" stroke-width="2" opacity="0.06"/>
    <rect x="602.45" y="766.04" width="550" height="21.93" rx="10.45" ry="10.45" transform="translate(2049.26 754.11) rotate(137.35)" fill="none" stroke="#fff" stroke-miterlimit="10" stroke-width="2" opacity="0.07"/>
    <rect x="960.19" y="627.35" width="304.59" height="22.18" rx="8.36" ry="8.36" transform="translate(2363.31 354.39) rotate(137.35)" fill="none" stroke="#fff" stroke-miterlimit="10" stroke-width="2" opacity="0.07"/>
    <rect x="509.33" y="938.93" width="521.39" height="43.08" rx="15.29" ry="15.29" transform="translate(1987.11 1145.3) rotate(137.35)" fill="none" stroke="#fff" stroke-miterlimit="10" stroke-width="2" opacity="0.08"/>
    <rect x="329.4" y="967.7" width="304.59" height="22.18" rx="8.36" ry="8.36" transform="translate(1499.1 1372.41) rotate(137.35)" fill="none" stroke="#fff" stroke-miterlimit="10" stroke-width="2" opacity="0.07"/>
  </g>
</svg>
