<svg xmlns="http://www.w3.org/2000/svg" xmlns:xlink="http://www.w3.org/1999/xlink" viewBox="0 0 1920 900">
  <defs>
    <linearGradient id="Sky" x1="1714.91" y1="676.25" x2="1729.91" y2="722.25" gradientUnits="userSpaceOnUse">
      <stop offset="0" stop-color="#cce0f4"/>
      <stop offset="0.06" stop-color="#c3dcf2"/>
      <stop offset="0.17" stop-color="#a9d2ee"/>
      <stop offset="0.31" stop-color="#80c2e7"/>
      <stop offset="0.46" stop-color="#47acde"/>
      <stop offset="0.57" stop-color="#1e9cd7"/>
      <stop offset="0.87" stop-color="#0075be"/>
      <stop offset="0.99" stop-color="#005b97"/>
    </linearGradient>
    <linearGradient id="Sky-2" data-name="Sky" x1="1613.17" y1="675.01" x2="1597.17" y2="722.01" xlink:href="#Sky"/>
    <linearGradient id="Sky-3" data-name="Sky" x1="1697.4" y1="695.25" x2="1630.4" y2="559.25" xlink:href="#Sky"/>
    <radialGradient id="radial-gradient" cx="1660.04" cy="445.98" r="171.28" gradientUnits="userSpaceOnUse">
      <stop offset="0.03" stop-color="#fff" stop-opacity="0.2"/>
      <stop offset="0.52" stop-color="#fff" stop-opacity="0.09"/>
      <stop offset="1" stop-color="#fff" stop-opacity="0"/>
    </radialGradient>
    <linearGradient id="linear-gradient" x1="377.93" y1="570.09" x2="383.02" y2="958.61" gradientUnits="userSpaceOnUse">
      <stop offset="0" stop-color="#cce0f4" stop-opacity="0"/>
      <stop offset="0.1" stop-color="#c9dff3" stop-opacity="0.02"/>
      <stop offset="0.18" stop-color="#bedaf1" stop-opacity="0.06"/>
      <stop offset="0.25" stop-color="#abd2ee" stop-opacity="0.15"/>
      <stop offset="0.32" stop-color="#92c7e8" stop-opacity="0.26"/>
      <stop offset="0.39" stop-color="#70b9e2" stop-opacity="0.41"/>
      <stop offset="0.45" stop-color="#48a8da" stop-opacity="0.6"/>
      <stop offset="0.52" stop-color="#1b95d1" stop-opacity="0.8"/>
      <stop offset="1" stop-color="#005b97"/>
    </linearGradient>
    <linearGradient id="linear-gradient-2" x1="448.28" y1="513.93" x2="454.11" y2="958.26" xlink:href="#linear-gradient"/>
  </defs>
  <title>wavybg</title>
  <g id="Layer_4" data-name="Layer 4">
    <path d="M718.5,270.5c222.88,26.92,306.17-106,495-36,132.59,49.15,121.14,125.67,246,156,187.49,45.54,291.49-108,425-51A172.28,172.28,0,0,1,1920,360V0H282.76C355.54,134.48,539.55,248.89,718.5,270.5Z" fill="#29abe2" opacity="0.17"/>
    <rect width="1920" height="900" fill="#00151c"/>
    <g id="Layer_7" data-name="Layer 7">
      <rect x="441.66" y="668.21" width="170.78" height="43.08" rx="10.88" ry="10.88" transform="translate(1382 840.05) rotate(137.35)" fill="none" stroke="#fff" stroke-miterlimit="10" stroke-width="2" opacity="0.07"/>
      <rect x="613.14" y="509.83" width="170.78" height="43.08" rx="10.88" ry="10.88" transform="translate(1572.33 448.99) rotate(137.35)" fill="none" stroke="#fff" stroke-miterlimit="10" stroke-width="2" opacity="0.07"/>
      <rect x="511.82" y="521.96" width="550" height="21.93" rx="10.45" ry="10.45" transform="translate(1726.61 391.89) rotate(137.35)" fill="none" stroke="#fff" stroke-miterlimit="10" stroke-width="2" opacity="0.07"/>
      <rect x="869.56" y="383.27" width="304.59" height="22.18" rx="8.36" ry="8.36" transform="translate(2040.66 -7.83) rotate(137.35)" fill="none" stroke="#fff" stroke-miterlimit="10" stroke-width="2" opacity="0.07"/>
      <rect x="418.7" y="694.85" width="521.39" height="43.08" rx="15.29" ry="15.29" transform="translate(1664.46 783.08) rotate(137.35)" fill="none" stroke="#fff" stroke-miterlimit="10" stroke-width="2" opacity="0.07"/>
      <rect x="-95.58" y="1007.71" width="550" height="21.93" rx="10.45" ry="10.45" transform="translate(1001.51 1646.43) rotate(137.35)" fill="none" stroke="#fff" stroke-miterlimit="10" stroke-width="2" opacity="0.07"/>
      <rect x="262.17" y="869.02" width="304.59" height="22.18" rx="8.36" ry="8.36" transform="translate(1315.56 1246.7) rotate(137.35)" fill="none" stroke="#fff" stroke-miterlimit="10" stroke-width="2" opacity="0.07"/>
      <rect x="579.05" y="620.64" width="550" height="21.93" rx="10.45" ry="10.45" transform="translate(1910.14 517.6) rotate(137.35)" fill="none" stroke="#fff" stroke-miterlimit="10" stroke-width="2" opacity="0.07"/>
      <rect x="936.8" y="481.95" width="304.59" height="22.18" rx="8.36" ry="8.36" transform="translate(2224.19 117.88) rotate(137.35)" fill="none" stroke="#fff" stroke-miterlimit="10" stroke-width="2" opacity="0.08"/>
      <rect x="485.93" y="793.53" width="521.39" height="43.08" rx="15.29" ry="15.29" transform="translate(1847.99 908.79) rotate(137.35)" fill="none" stroke="#fff" stroke-miterlimit="10" stroke-width="2" opacity="0.06"/>
      <rect x="602.45" y="766.04" width="550" height="21.93" rx="10.45" ry="10.45" transform="translate(2049.26 754.11) rotate(137.35)" fill="none" stroke="#fff" stroke-miterlimit="10" stroke-width="2" opacity="0.07"/>
      <rect x="960.19" y="627.35" width="304.59" height="22.18" rx="8.36" ry="8.36" transform="translate(2363.31 354.39) rotate(137.35)" fill="none" stroke="#fff" stroke-miterlimit="10" stroke-width="2" opacity="0.07"/>
      <rect x="509.33" y="938.93" width="521.39" height="43.08" rx="15.29" ry="15.29" transform="translate(1987.11 1145.3) rotate(137.35)" fill="none" stroke="#fff" stroke-miterlimit="10" stroke-width="2" opacity="0.08"/>
      <rect x="329.4" y="967.7" width="304.59" height="22.18" rx="8.36" ry="8.36" transform="translate(1499.1 1372.41) rotate(137.35)" fill="none" stroke="#fff" stroke-miterlimit="10" stroke-width="2" opacity="0.07"/>
    </g>
    <path d="M718.5,270.5c222.88,26.92,306.17-106,495-36,132.59,49.15,121.14,125.67,246,156,187.49,45.54,291.49-108,425-51A172.28,172.28,0,0,1,1920,360V0H282.76C355.54,134.48,539.55,248.89,718.5,270.5Z" fill="#29abe2" opacity="0.17"/>
    <path d="M872.06,157.93c194.39,15.72,267-61.89,431.73-21,115.65,28.7,105.67,73.38,214.56,91.09,163.53,26.59,254.24-63.06,370.69-29.78a180,180,0,0,1,31,11.94V0H492C555.48,78.52,716,145.31,872.06,157.93Z" fill="#29abe2" opacity="0.17"/>
    <path d="M1137.71,157.93c145.11,15.72,199.35-61.89,322.29-21,86.33,28.7,78.88,73.38,160.17,91.09,122.07,26.59,189.79-63.06,276.72-29.78A116.47,116.47,0,0,1,1920,210.16V0H854C901.39,78.52,1021.2,145.31,1137.71,157.93Z" fill="#29abe2" opacity="0.17"/>
    <path d="M1278.61,84.73c119,8.43,163.44-33.21,264.24-11.28,70.78,15.4,64.67,39.37,131.32,48.87,100.09,14.26,155.61-33.84,226.88-16a120.45,120.45,0,0,1,19,6.41V0H1046C1084.85,42.12,1183.08,78,1278.61,84.73Z" fill="#00151c" opacity="0.51"/>
  </g>
  <g id="Layer_5" data-name="Layer 5">
    <g id="Layer_1" data-name="Layer 1">
      <g opacity="0.58">
        <g style="isolation: isolate">
          <polygon points="1746.37 624.48 1746.16 696.21 1663.67 744.15 1663.87 672.42 1746.37 624.48" fill="#1b6d90"/>
          <polygon points="1663.87 672.42 1663.67 744.15 1580.64 696.21 1580.84 624.48 1663.87 672.42" fill="#1f81aa"/>
          <polygon points="1746.37 624.48 1663.87 672.42 1580.84 624.48 1663.33 576.54 1746.37 624.48" fill="#1c7397"/>
        </g>
      </g>
      <g opacity="0.68">
        <polygon points="1778.86 626.64 1778.66 698.37 1663.78 765.13 1663.98 693.4 1778.86 626.64" fill="url(#Sky)"/>
      </g>
      <g opacity="0.68">
        <polygon points="1663.98 693.4 1663.78 765.13 1548.14 698.37 1548.35 626.64 1663.98 693.4" fill="url(#Sky-2)"/>
      </g>
      <g opacity="0.68">
        <polygon points="1778.86 626.64 1663.98 693.4 1548.35 626.64 1663.23 559.88 1778.86 626.64" fill="url(#Sky-3)"/>
      </g>
      <g id="Layer_8" data-name="Layer 8">
        <circle cx="1665.5" cy="445.5" r="180.5" fill="url(#radial-gradient)"/>
      </g>
      <g opacity="0.52">
        <g style="isolation: isolate">
          <g style="isolation: isolate">
            <g style="isolation: isolate">
              <g>
                <path d="M1666.51,533.83c7.51,4.36,15.65,7.88,24.27,9.17a41.06,41.06,0,0,0,13,0,32.94,32.94,0,0,0,12-4.53,34.75,34.75,0,0,0,9.39-8.82,44.41,44.41,0,0,0,6-11.46c2.94-8.17,3.85-16.94,3.84-25.59a.35.35,0,0,1,.19-.32c7.63-4.28,14.9-9.44,20.64-16.06a46.18,46.18,0,0,0,7.19-10.9,36.09,36.09,0,0,0,3.28-12.55,32.93,32.93,0,0,0-1.68-12.84,41.69,41.69,0,0,0-6.06-11.5c-5.19-7-12.17-12.6-19.64-17.15l.67-.38a121.35,121.35,0,0,1-6,36.7,162.9,162.9,0,0,1-15.29,33.92,160.51,160.51,0,0,1-22.49,29.62A123.43,123.43,0,0,1,1666.51,533.83Zm0,0a123.14,123.14,0,0,0,29-23,165.82,165.82,0,0,0,22.26-29.65,162.2,162.2,0,0,0,15.1-33.83,120.68,120.68,0,0,0,5.81-36.48.43.43,0,0,1,.43-.44.48.48,0,0,1,.24.06c7.55,4.57,14.65,10.16,20,17.32a41.43,41.43,0,0,1,6.19,11.79,33.76,33.76,0,0,1,1.67,13.2,36.88,36.88,0,0,1-3.41,12.86,46.92,46.92,0,0,1-7.35,11.06c-5.86,6.71-13.21,11.87-20.92,16.16l.19-.32c0,8.72-1,17.55-4,25.81a45.13,45.13,0,0,1-6.11,11.59,35.36,35.36,0,0,1-9.57,8.92,32.37,32.37,0,0,1-12.27,4.51,41.46,41.46,0,0,1-13.06-.1C1682.08,541.89,1674,538.27,1666.51,533.83Z" fill="#fff"/>
                <path d="M1701.5,543.49a53.13,53.13,0,0,0,5.45-3.81,32.09,32.09,0,0,0,4.75-4.57,24.45,24.45,0,0,0,3.54-5.48,18,18,0,0,0,1.61-6.26,18.53,18.53,0,0,0-3.75-12.18,28.33,28.33,0,0,0-4.42-4.87,45.28,45.28,0,0,0-5.27-4.06,32.39,32.39,0,0,1,10.31,8.47,18.93,18.93,0,0,1,4.12,12.71,20.62,20.62,0,0,1-5.56,12.17A35.93,35.93,0,0,1,1701.5,543.49Z" fill="#fff"/>
                <path d="M1726.2,528.69a87.47,87.47,0,0,0,9.42-6.38,54.65,54.65,0,0,0,8.23-7.78,41.5,41.5,0,0,0,6.16-9.43,31.08,31.08,0,0,0,2.8-10.81,28.24,28.24,0,0,0-1.38-11.06,36.38,36.38,0,0,0-5.17-10,49.49,49.49,0,0,0-7.67-8.31,74,74,0,0,0-9.12-6.8,56.67,56.67,0,0,1,17.41,14.65,35.38,35.38,0,0,1,5.41,10.14,28.93,28.93,0,0,1,1.51,11.42,32,32,0,0,1-3,11.12,39,39,0,0,1-6.4,9.55A63.42,63.42,0,0,1,1726.2,528.69Z" fill="#fff"/>
                <path d="M1666.51,533.83a113.56,113.56,0,0,0,33.49-.08,84.5,84.5,0,0,0,31.28-11.35,66.67,66.67,0,0,0,23.14-23.67,65.62,65.62,0,0,0,8.44-32.11,66.07,66.07,0,0,1-1.69,16.75,63.29,63.29,0,0,1-6.08,15.74,66.67,66.67,0,0,1-23.28,24.14,84.21,84.21,0,0,1-31.69,11.26,101.07,101.07,0,0,1-16.85,1A113.44,113.44,0,0,1,1666.51,533.83Z" fill="#fff"/>
                <path d="M1666.51,533.83a129.62,129.62,0,0,0,35.43-10.94,122.46,122.46,0,0,0,30.7-20.62,103.85,103.85,0,0,0,22.5-29.26,80.85,80.85,0,0,0,9.08-35.69,74,74,0,0,1-2,18.5,85.08,85.08,0,0,1-6.39,17.54A102.69,102.69,0,0,1,1733.31,503a121,121,0,0,1-31,20.59,126.64,126.64,0,0,1-17.49,6.5A120.94,120.94,0,0,1,1666.51,533.83Z" fill="#fff"/>
              </g>
              <g>
                <path d="M1666.51,533.83a123.16,123.16,0,0,0,29.06-23,166,166,0,0,0,22.25-29.66,162,162,0,0,0,15.12-33.83,120.7,120.7,0,0,0,5.82-36.49l.19.33a121.31,121.31,0,0,0-34.32-13.29,168.09,168.09,0,0,0-36.66-4.17,170.34,170.34,0,0,0-36.73,3.63,128.94,128.94,0,0,0-34.67,12.42l.2-.34a129.63,129.63,0,0,0,5.93,36.32,172.47,172.47,0,0,0,14.53,33.92,175.85,175.85,0,0,0,21.27,30.18A124.23,124.23,0,0,0,1666.51,533.83Zm0,0a124.18,124.18,0,0,1-28.26-23.76,168.18,168.18,0,0,1-21.5-30.12,173.75,173.75,0,0,1-14.69-34,130.46,130.46,0,0,1-6.07-36.52.39.39,0,0,1,.21-.34,129.49,129.49,0,0,1,34.86-12.61,170.61,170.61,0,0,1,73.77.55,121.93,121.93,0,0,1,34.52,13.49.39.39,0,0,1,.19.33,121.27,121.27,0,0,1-6,36.69,162.35,162.35,0,0,1-15.28,33.92,159.93,159.93,0,0,1-22.49,29.6A123.45,123.45,0,0,1,1666.51,533.83Z" fill="#fff"/>
                <path d="M1703.41,502.26c-1.4-.68-2.77-1.42-4.18-2.07s-2.87-1.23-4.34-1.73-2.92-1-4.43-1.44-3-.84-4.51-1.13a86.87,86.87,0,0,0-18.47-2,87.8,87.8,0,0,0-18.5,1.74c-1.51.31-3,.7-4.53,1.05s-3,.9-4.46,1.33-2.92,1.08-4.38,1.62-2.83,1.3-4.25,1.93a61.45,61.45,0,0,1,17.46-6.68,83.72,83.72,0,0,1,18.67-2,82.87,82.87,0,0,1,18.63,2.27A58.1,58.1,0,0,1,1703.41,502.26Z" fill="#fff"/>
                <path d="M1729.47,458.15l-3.56-1.84c-1.19-.59-2.34-1.28-3.56-1.8l-3.68-1.56c-1.24-.49-2.43-1.09-3.71-1.47l-3.78-1.3c-1.26-.43-2.5-.9-3.8-1.21l-3.85-1c-1.29-.34-2.56-.72-3.87-.95a153.26,153.26,0,0,0-63.36-.48c-2.6.54-5.18,1.23-7.77,1.84s-5.08,1.57-7.63,2.34-5,1.9-7.47,2.84c-2.42,1.09-4.81,2.28-7.24,3.4a108.63,108.63,0,0,1,30-11.18,144.41,144.41,0,0,1,63.69.49A101.68,101.68,0,0,1,1729.47,458.15Z" fill="#fff"/>
                <path d="M1666.51,533.83a167.1,167.1,0,0,0,6.71-16.44l1.47-4.18L1676,509c.93-2.81,1.73-5.66,2.53-8.51q4.8-17.09,8-34.57c2.23-11.62,4-23.34,5.26-35.1s2.12-23.59,2.24-35.43l0,8.88-.24,8.89-.53,8.88-.75,8.86c-1.15,11.8-2.89,23.55-5,35.21s-4.89,23.22-8.26,34.59S1672,523.28,1666.51,533.83Z" fill="#fff"/>
                <path d="M1666.51,533.83a231.1,231.1,0,0,1-10.7-33.73c-2.83-11.47-5.06-23.08-7-34.73s-3.36-23.38-4.4-35.14l-.7-8.83-.52-8.84-.29-8.85-.06-8.85.33,8.84.51,8.83.66,8.82.83,8.8c1.2,11.73,2.71,23.43,4.63,35.06s4.08,23.22,6.74,34.71c.68,2.87,1.33,5.74,2.1,8.59l1.11,4.27c.38,1.43.82,2.83,1.22,4.25C1662.53,522.72,1664.47,528.29,1666.51,533.83Z" fill="#fff"/>
              </g>
              <g>
                <path d="M1666.51,533.83a123.93,123.93,0,0,1-28.28-23.73,169.19,169.19,0,0,1-21.5-30.14,173.19,173.19,0,0,1-14.7-34,130.55,130.55,0,0,1-6.09-36.53l.65.38c-7.63,4.28-14.89,9.43-20.63,16.05a47.37,47.37,0,0,0-7.19,10.87,36,36,0,0,0-3.32,12.53,32.81,32.81,0,0,0,1.63,12.85,41,41,0,0,0,6,11.53c5.19,7.06,12.19,12.62,19.66,17.17a.4.4,0,0,1,.18.31c.11,9,1.37,18.09,4.81,26.43a45.25,45.25,0,0,0,6.85,11.56,37.18,37.18,0,0,0,10.21,8.69,38.71,38.71,0,0,0,12.66,4.45,46.77,46.77,0,0,0,13.47.23C1650,541.38,1658.54,538.07,1666.51,533.83Zm0,0c-7.92,4.33-16.49,7.73-25.51,8.95a46.82,46.82,0,0,1-13.58-.09,36.91,36.91,0,0,1-23.25-13.2,45.86,45.86,0,0,1-7-11.69c-3.51-8.43-4.82-17.6-5-26.66l.18.31c-7.55-4.57-14.64-10.15-20-17.31a41.78,41.78,0,0,1-6.21-11.75,33.7,33.7,0,0,1-1.72-13.18,36.88,36.88,0,0,1,3.37-12.88,45.82,45.82,0,0,1,7.34-11.1c5.87-6.71,13.23-11.88,20.94-16.17a.42.42,0,0,1,.59.17.39.39,0,0,1,.06.21,129.6,129.6,0,0,0,5.91,36.31,173.29,173.29,0,0,0,14.52,33.92,175.31,175.31,0,0,0,21.27,30.16A124,124,0,0,0,1666.51,533.83Z" fill="#fff"/>
                <path d="M1631.36,501.54a52.05,52.05,0,0,0-5.45,3.81,31.75,31.75,0,0,0-4.76,4.58,24.45,24.45,0,0,0-3.54,5.48,18,18,0,0,0-1.6,6.25,18.53,18.53,0,0,0,3.74,12.19,28.81,28.81,0,0,0,4.43,4.87,45.18,45.18,0,0,0,5.26,4.06,32.29,32.29,0,0,1-10.31-8.48,18.94,18.94,0,0,1-4.12-12.7,20.63,20.63,0,0,1,5.57-12.18A36.15,36.15,0,0,1,1631.36,501.54Z" fill="#fff"/>
                <path d="M1606.19,456.92a86,86,0,0,0-9.42,6.38,54.15,54.15,0,0,0-8.23,7.78,41.44,41.44,0,0,0-6.16,9.42,31.13,31.13,0,0,0-2.8,10.82,28.26,28.26,0,0,0,1.38,11.06,36.67,36.67,0,0,0,5.17,10,49.49,49.49,0,0,0,7.67,8.31,76.87,76.87,0,0,0,9.12,6.8,56.56,56.56,0,0,1-17.41-14.66,35.32,35.32,0,0,1-5.41-10.13,29,29,0,0,1-1.51-11.42,32.08,32.08,0,0,1,3-11.13,39.18,39.18,0,0,1,6.4-9.54A63.42,63.42,0,0,1,1606.19,456.92Z" fill="#fff"/>
                <path d="M1666.51,533.83a120.4,120.4,0,0,1-18.24-4.17,126.87,126.87,0,0,1-17.42-6.93,124.85,124.85,0,0,1-30.79-21.28,107.45,107.45,0,0,1-22.41-29.94,88,88,0,0,1-6.51-17.58,76,76,0,0,1-2.26-18.56,84,84,0,0,0,9.46,35.8,108.92,108.92,0,0,0,22.41,29.56A126.73,126.73,0,0,0,1631.19,522,129.89,129.89,0,0,0,1666.51,533.83Z" fill="#fff"/>
                <path d="M1666.51,533.83a117.93,117.93,0,0,1-17.11,1.35,107.07,107.07,0,0,1-17.14-1.36A89.21,89.21,0,0,1,1600.07,522a70.53,70.53,0,0,1-24-24.38,64.46,64.46,0,0,1-6.52-15.91,65.36,65.36,0,0,1-2.06-17,66.62,66.62,0,0,0,9.24,32.55,70.67,70.67,0,0,0,23.84,23.92,89.78,89.78,0,0,0,31.79,11.91A117.15,117.15,0,0,0,1666.51,533.83Z" fill="#fff"/>
              </g>
              <g>
                <path d="M1666.51,533.83c-7.92,4.33-16.49,7.73-25.51,8.95a46.82,46.82,0,0,1-13.58-.09,36.91,36.91,0,0,1-23.25-13.2,45.86,45.86,0,0,1-7-11.69c-3.51-8.43-4.82-17.6-5-26.66a.37.37,0,0,1,.36-.37.46.46,0,0,1,.2.05,121,121,0,0,0,34.33,13.28,174.8,174.8,0,0,0,73.39.55,129,129,0,0,0,34.68-12.41h0a.35.35,0,0,1,.48.14.41.41,0,0,1,0,.17c0,8.72-1,17.55-4,25.81a45.13,45.13,0,0,1-6.11,11.59,35.36,35.36,0,0,1-9.57,8.92,32.37,32.37,0,0,1-12.27,4.51,41.46,41.46,0,0,1-13.06-.1C1682.08,541.89,1674,538.27,1666.51,533.83Zm0,0c7.51,4.36,15.65,7.88,24.27,9.17a41.06,41.06,0,0,0,13,0,32.94,32.94,0,0,0,12-4.53,34.75,34.75,0,0,0,9.39-8.82,44.41,44.41,0,0,0,6-11.46c2.94-8.17,3.85-16.94,3.84-25.59l.53.31a129.91,129.91,0,0,1-34.85,12.62,170.41,170.41,0,0,1-73.77-.54,121.77,121.77,0,0,1-34.51-13.5l.56-.32c.11,9,1.37,18.09,4.81,26.43a45.25,45.25,0,0,0,6.85,11.56,37,37,0,0,0,10.21,8.69,38.71,38.71,0,0,0,12.66,4.45,46.42,46.42,0,0,0,13.47.23C1650,541.38,1658.54,538.07,1666.51,533.83Z" fill="#fff"/>
                <path d="M1629.44,542.78c1.41.68,2.78,1.42,4.19,2.07s2.86,1.23,4.33,1.73,2.93,1,4.43,1.44,3,.84,4.51,1.13a91.82,91.82,0,0,0,37,.28c1.52-.31,3-.7,4.53-1s3-.9,4.47-1.34,2.91-1.07,4.37-1.61,2.83-1.3,4.26-1.94a61.53,61.53,0,0,1-17.47,6.69,83.66,83.66,0,0,1-18.67,2,82.38,82.38,0,0,1-18.63-2.28A58.19,58.19,0,0,1,1629.44,542.78Z" fill="#fff"/>
                <path d="M1602.92,527.46l3.56,1.84c1.19.59,2.34,1.28,3.56,1.8l3.68,1.55c1.24.5,2.43,1.1,3.71,1.48l3.78,1.3c1.26.42,2.5.9,3.8,1.21l3.85,1c1.29.34,2.56.72,3.87,1a153.72,153.72,0,0,0,63.36.48c2.6-.55,5.18-1.24,7.77-1.85s5.08-1.57,7.63-2.34,5-1.89,7.47-2.83c2.42-1.09,4.81-2.28,7.24-3.4a108.29,108.29,0,0,1-30,11.17,144.41,144.41,0,0,1-63.69-.49A101.66,101.66,0,0,1,1602.92,527.46Z" fill="#fff"/>
                <path d="M1666.51,533.83a73,73,0,0,1-4.35,8,30.41,30.41,0,0,1-5.91,7,10,10,0,0,1-4.15,2.2,6.19,6.19,0,0,1-4.69-.8,11.39,11.39,0,0,1-3.29-3.38,25.5,25.5,0,0,1-2.09-4.14,51.88,51.88,0,0,1-2.48-8.84,89,89,0,0,1-1.3-9,154.06,154.06,0,0,1-.58-18.22l.21,4.55c.1,1.51.17,3,.29,4.54.21,3,.47,6,.85,9,.76,6,1.73,12,3.93,17.6a24.25,24.25,0,0,0,2,4,10.71,10.71,0,0,0,3,3.13,5.29,5.29,0,0,0,4,.72,9.74,9.74,0,0,0,3.86-2,30.31,30.31,0,0,0,6-6.68A88.59,88.59,0,0,0,1666.51,533.83Z" fill="#fff"/>
                <path d="M1666.51,533.83c1.21,2.62,2.43,5.24,3.86,7.74a31.27,31.27,0,0,0,4.94,6.95,7,7,0,0,0,3.44,2.06,3.64,3.64,0,0,0,3.39-1.48,12.84,12.84,0,0,0,2.06-3.61,31.36,31.36,0,0,0,1.31-4,99,99,0,0,0,2.54-17c.24-2.87.4-5.75.52-8.63s.22-5.76.31-8.65q.39,8.65-.06,17.33c-.14,2.89-.41,5.78-.77,8.65a69.44,69.44,0,0,1-1.58,8.57,32.89,32.89,0,0,1-1.39,4.17,13.86,13.86,0,0,1-2.26,3.84,5.71,5.71,0,0,1-1.85,1.43,3.94,3.94,0,0,1-2.37.31,7.47,7.47,0,0,1-3.83-2.38,31.45,31.45,0,0,1-4.83-7.26A81,81,0,0,1,1666.51,533.83Z" fill="#fff"/>
              </g>
              <g>
                <path d="M1735.36,492.56a130.15,130.15,0,0,0-6.19-36.36,176.61,176.61,0,0,0-14.68-33.87,171.66,171.66,0,0,0-21.4-30.05A123.69,123.69,0,0,0,1665,368.54a.42.42,0,0,1-.15-.59.52.52,0,0,1,.16-.17c8-4.32,16.6-7.71,25.68-8.9s18.58.11,26.58,4.67a37.85,37.85,0,0,1,10.41,8.86,46.14,46.14,0,0,1,7,11.74c3.49,8.46,4.76,17.64,4.87,26.71l-.18-.31c7.53,4.59,14.6,10.2,19.88,17.36a42.05,42.05,0,0,1,6.14,11.74,33.44,33.44,0,0,1,1.67,13.13,36.09,36.09,0,0,1-3.42,12.77,46.51,46.51,0,0,1-7.35,11C1750.4,483.19,1743.05,488.31,1735.36,492.56Zm0,0c7.65-4.33,14.92-9.53,20.67-16.21a46,46,0,0,0,7.18-11,36.52,36.52,0,0,0,3.28-12.63,32.91,32.91,0,0,0-1.68-12.91,41.68,41.68,0,0,0-6.1-11.55c-5.24-7-12.26-12.58-19.75-17.11a.37.37,0,0,1-.17-.31c-.14-9-1.45-18.07-4.91-26.39A45.49,45.49,0,0,0,1727,373a37.43,37.43,0,0,0-10.19-8.61,38.18,38.18,0,0,0-12.61-4.35,47.29,47.29,0,0,0-13.39-.15c-8.93,1.13-17.46,4.45-25.39,8.7l0-.76a124.33,124.33,0,0,1,28.19,24A172.11,172.11,0,0,1,1715,422a170.17,170.17,0,0,1,14.54,34.05A130.24,130.24,0,0,1,1735.36,492.56Z" fill="#fff"/>
                <path d="M1725.54,445.08a86.62,86.62,0,0,0,9.43-6.38,55.2,55.2,0,0,0,8.23-7.79,40.85,40.85,0,0,0,6.15-9.42,30.87,30.87,0,0,0,2.81-10.81,28.31,28.31,0,0,0-1.38-11.07,36.74,36.74,0,0,0-5.17-10,49.49,49.49,0,0,0-7.67-8.31,74.74,74.74,0,0,0-9.12-6.8,56.67,56.67,0,0,1,17.41,14.65,35.24,35.24,0,0,1,5.41,10.14,28.91,28.91,0,0,1,1.51,11.42,32,32,0,0,1-3,11.12,39,39,0,0,1-6.4,9.55A63.32,63.32,0,0,1,1725.54,445.08Z" fill="#fff"/>
                <path d="M1762.86,466.62a84,84,0,0,0-9.46-35.8A108.52,108.52,0,0,0,1731,401.27a129.64,129.64,0,0,0-65.77-33.1,120.22,120.22,0,0,1,18.25,4.16,126.92,126.92,0,0,1,17.42,6.94,124.55,124.55,0,0,1,30.79,21.27,107.74,107.74,0,0,1,22.41,29.94,89,89,0,0,1,6.5,17.58A75.57,75.57,0,0,1,1762.86,466.62Z" fill="#fff"/>
                <path d="M1764.22,437.32a66.48,66.48,0,0,0-9.24-32.55,70.61,70.61,0,0,0-23.84-23.93,90,90,0,0,0-31.79-11.91,106.61,106.61,0,0,0-17-1.62,124.06,124.06,0,0,0-17.11.86,115.42,115.42,0,0,1,17.12-1.35,104.81,104.81,0,0,1,17.14,1.36A89.2,89.2,0,0,1,1731.67,380a70.56,70.56,0,0,1,24,24.39,64.69,64.69,0,0,1,6.52,15.91A65.69,65.69,0,0,1,1764.22,437.32Z" fill="#fff"/>
              </g>
              <g>
                <path d="M1592.59,491.13a121,121,0,0,1,5.74-36.63,159.6,159.6,0,0,1,15.11-34,163.22,163.22,0,0,1,22.38-29.72,123.5,123.5,0,0,1,29.22-23,.39.39,0,0,1,.38,0,124.31,124.31,0,0,1,28.27,23.91A173.86,173.86,0,0,1,1729.78,456a130.24,130.24,0,0,1,6,36.54.41.41,0,0,1-.21.35,130.07,130.07,0,0,1-34.88,12.5,170.68,170.68,0,0,1-36.89,3.64,164.55,164.55,0,0,1-36.8-4.36A121.05,121.05,0,0,1,1592.59,491.13Zm0,0a121.5,121.5,0,0,0,34.46,13.24,171.79,171.79,0,0,0,36.72,4.12,169.93,169.93,0,0,0,36.75-3.74,128.85,128.85,0,0,0,34.65-12.54l-.2.35a129.43,129.43,0,0,0-6-36.29,177.68,177.68,0,0,0-35.9-63.94,123.71,123.71,0,0,0-28-23.83h.38a123,123,0,0,0-29.12,22.76,163.39,163.39,0,0,0-22.37,29.54,165.63,165.63,0,0,0-15.28,33.78A120.76,120.76,0,0,0,1592.59,491.13Z" fill="#fff"/>
                <path d="M1602.27,443.85l3.56,1.83c1.19.6,2.33,1.29,3.56,1.81l3.68,1.55c1.24.5,2.43,1.1,3.71,1.48l3.78,1.3c1.26.42,2.5.9,3.8,1.21l3.85,1c1.28.34,2.56.72,3.87.95a153.72,153.72,0,0,0,63.36.48c2.6-.55,5.17-1.24,7.76-1.85s5.09-1.57,7.64-2.34,5-1.89,7.47-2.83c2.42-1.09,4.81-2.28,7.23-3.4a108.11,108.11,0,0,1-29.94,11.17,144.41,144.41,0,0,1-63.69-.49A101.93,101.93,0,0,1,1602.27,443.85Z" fill="#fff"/>
                <path d="M1637.67,506.63l-.05-8.89.24-8.89.53-8.87.75-8.86c1.15-11.81,2.89-23.55,5-35.21s4.89-23.22,8.25-34.6,7.35-22.6,12.78-33.14a168.32,168.32,0,0,0-6.7,16.43l-1.47,4.19-1.34,4.23c-.93,2.81-1.73,5.66-2.53,8.5q-4.8,17.1-8,34.57c-2.23,11.62-4,23.34-5.26,35.1S1637.79,494.78,1637.67,506.63Z" fill="#fff"/>
                <path d="M1688.88,507.14c-.3-11.8-1.13-23.57-2.32-35.3s-2.71-23.42-4.63-35.06-4.08-23.22-6.75-34.7c-.67-2.87-1.32-5.75-2.09-8.59l-1.12-4.28c-.38-1.42-.81-2.83-1.21-4.25-1.56-5.69-3.5-11.26-5.54-16.79a229.55,229.55,0,0,1,10.71,33.73c2.82,11.47,5.06,23.07,7,34.72s3.36,23.39,4.4,35.15S1689,495.34,1688.88,507.14Z" fill="#fff"/>
              </g>
            </g>
          </g>
          <g style="isolation: isolate">
            <g style="isolation: isolate">
              <g>
                <path d="M1666.51,533.83c7.51,4.36,15.65,7.88,24.27,9.17a41.06,41.06,0,0,0,13,0,32.94,32.94,0,0,0,12-4.53,34.75,34.75,0,0,0,9.39-8.82,44.41,44.41,0,0,0,6-11.46c2.94-8.17,3.85-16.94,3.84-25.59a.35.35,0,0,1,.19-.32c7.63-4.28,14.9-9.44,20.64-16.06a46.18,46.18,0,0,0,7.19-10.9,36.09,36.09,0,0,0,3.28-12.55,32.93,32.93,0,0,0-1.68-12.84,41.69,41.69,0,0,0-6.06-11.5c-5.19-7-12.17-12.6-19.64-17.15l.67-.38a121.35,121.35,0,0,1-6,36.7,162.9,162.9,0,0,1-15.29,33.92,160.51,160.51,0,0,1-22.49,29.62A123.43,123.43,0,0,1,1666.51,533.83Zm0,0a123.14,123.14,0,0,0,29-23,165.82,165.82,0,0,0,22.26-29.65,162.2,162.2,0,0,0,15.1-33.83,120.68,120.68,0,0,0,5.81-36.48.43.43,0,0,1,.43-.44.48.48,0,0,1,.24.06c7.55,4.57,14.65,10.16,20,17.32a41.43,41.43,0,0,1,6.19,11.79,33.76,33.76,0,0,1,1.67,13.2,36.88,36.88,0,0,1-3.41,12.86,46.92,46.92,0,0,1-7.35,11.06c-5.86,6.71-13.21,11.87-20.92,16.16l.19-.32c0,8.72-1,17.55-4,25.81a45.13,45.13,0,0,1-6.11,11.59,35.36,35.36,0,0,1-9.57,8.92,32.37,32.37,0,0,1-12.27,4.51,41.46,41.46,0,0,1-13.06-.1C1682.08,541.89,1674,538.27,1666.51,533.83Z" fill="#fff"/>
                <path d="M1726.2,528.69a87.47,87.47,0,0,0,9.42-6.38,54.65,54.65,0,0,0,8.23-7.78,41.5,41.5,0,0,0,6.16-9.43,31.08,31.08,0,0,0,2.8-10.81,28.24,28.24,0,0,0-1.38-11.06,36.38,36.38,0,0,0-5.17-10,49.49,49.49,0,0,0-7.67-8.31,74,74,0,0,0-9.12-6.8,56.67,56.67,0,0,1,17.41,14.65,35.38,35.38,0,0,1,5.41,10.14,28.93,28.93,0,0,1,1.51,11.42,32,32,0,0,1-3,11.12,39,39,0,0,1-6.4,9.55A63.42,63.42,0,0,1,1726.2,528.69Z" fill="#fff"/>
                <path d="M1666.51,533.83a113.56,113.56,0,0,0,33.49-.08,84.5,84.5,0,0,0,31.28-11.35,66.67,66.67,0,0,0,23.14-23.67,65.62,65.62,0,0,0,8.44-32.11,66.07,66.07,0,0,1-1.69,16.75,63.29,63.29,0,0,1-6.08,15.74,66.67,66.67,0,0,1-23.28,24.14,84.21,84.21,0,0,1-31.69,11.26,101.07,101.07,0,0,1-16.85,1A113.44,113.44,0,0,1,1666.51,533.83Z" fill="#fff"/>
                <path d="M1666.51,533.83a129.62,129.62,0,0,0,35.43-10.94,122.46,122.46,0,0,0,30.7-20.62,103.85,103.85,0,0,0,22.5-29.26,80.85,80.85,0,0,0,9.08-35.69,74,74,0,0,1-2,18.5,85.08,85.08,0,0,1-6.39,17.54A102.69,102.69,0,0,1,1733.31,503a121,121,0,0,1-31,20.59,126.64,126.64,0,0,1-17.49,6.5A120.94,120.94,0,0,1,1666.51,533.83Z" fill="#fff"/>
              </g>
              <g>
                <path d="M1666.51,533.83a123.16,123.16,0,0,0,29.06-23,166,166,0,0,0,22.25-29.66,162,162,0,0,0,15.12-33.83,120.7,120.7,0,0,0,5.82-36.49l.19.33a121.31,121.31,0,0,0-34.32-13.29,168.09,168.09,0,0,0-36.66-4.17,170.34,170.34,0,0,0-36.73,3.63,128.94,128.94,0,0,0-34.67,12.42l.2-.34a129.63,129.63,0,0,0,5.93,36.32,172.47,172.47,0,0,0,14.53,33.92,175.85,175.85,0,0,0,21.27,30.18A124.23,124.23,0,0,0,1666.51,533.83Zm0,0a124.18,124.18,0,0,1-28.26-23.76,168.18,168.18,0,0,1-21.5-30.12,173.75,173.75,0,0,1-14.69-34,130.46,130.46,0,0,1-6.07-36.52.39.39,0,0,1,.21-.34,129.49,129.49,0,0,1,34.86-12.61,170.61,170.61,0,0,1,73.77.55,121.93,121.93,0,0,1,34.52,13.49.39.39,0,0,1,.19.33,121.27,121.27,0,0,1-6,36.69,162.35,162.35,0,0,1-15.28,33.92,159.93,159.93,0,0,1-22.49,29.6A123.45,123.45,0,0,1,1666.51,533.83Z" fill="#fff"/>
                <path d="M1729.47,458.15l-3.56-1.84c-1.19-.59-2.34-1.28-3.56-1.8l-3.68-1.56c-1.24-.49-2.43-1.09-3.71-1.47l-3.78-1.3c-1.26-.43-2.5-.9-3.8-1.21l-3.85-1c-1.29-.34-2.56-.72-3.87-.95a153.26,153.26,0,0,0-63.36-.48c-2.6.54-5.18,1.23-7.77,1.84s-5.08,1.57-7.63,2.34-5,1.9-7.47,2.84c-2.42,1.09-4.81,2.28-7.24,3.4a108.63,108.63,0,0,1,30-11.18,144.41,144.41,0,0,1,63.69.49A101.68,101.68,0,0,1,1729.47,458.15Z" fill="#fff"/>
                <path d="M1666.51,533.83a167.1,167.1,0,0,0,6.71-16.44l1.47-4.18L1676,509c.93-2.81,1.73-5.66,2.53-8.51q4.8-17.09,8-34.57c2.23-11.62,4-23.34,5.26-35.1s2.12-23.59,2.24-35.43l0,8.88-.24,8.89-.53,8.88-.75,8.86c-1.15,11.8-2.89,23.55-5,35.21s-4.89,23.22-8.26,34.59S1672,523.28,1666.51,533.83Z" fill="#fff"/>
                <path d="M1666.51,533.83a231.1,231.1,0,0,1-10.7-33.73c-2.83-11.47-5.06-23.08-7-34.73s-3.36-23.38-4.4-35.14l-.7-8.83-.52-8.84-.29-8.85-.06-8.85.33,8.84.51,8.83.66,8.82.83,8.8c1.2,11.73,2.71,23.43,4.63,35.06s4.08,23.22,6.74,34.71c.68,2.87,1.33,5.74,2.1,8.59l1.11,4.27c.38,1.43.82,2.83,1.22,4.25C1662.53,522.72,1664.47,528.29,1666.51,533.83Z" fill="#fff"/>
              </g>
              <g>
                <path d="M1666.51,533.83a123.93,123.93,0,0,1-28.28-23.73,169.19,169.19,0,0,1-21.5-30.14,173.19,173.19,0,0,1-14.7-34,130.55,130.55,0,0,1-6.09-36.53l.65.38c-7.63,4.28-14.89,9.43-20.63,16.05a47.37,47.37,0,0,0-7.19,10.87,36,36,0,0,0-3.32,12.53,32.81,32.81,0,0,0,1.63,12.85,41,41,0,0,0,6,11.53c5.19,7.06,12.19,12.62,19.66,17.17a.4.4,0,0,1,.18.31c.11,9,1.37,18.09,4.81,26.43a45.25,45.25,0,0,0,6.85,11.56,37.18,37.18,0,0,0,10.21,8.69,38.71,38.71,0,0,0,12.66,4.45,46.77,46.77,0,0,0,13.47.23C1650,541.38,1658.54,538.07,1666.51,533.83Zm0,0c-7.92,4.33-16.49,7.73-25.51,8.95a46.82,46.82,0,0,1-13.58-.09,36.91,36.91,0,0,1-23.25-13.2,45.86,45.86,0,0,1-7-11.69c-3.51-8.43-4.82-17.6-5-26.66l.18.31c-7.55-4.57-14.64-10.15-20-17.31a41.78,41.78,0,0,1-6.21-11.75,33.7,33.7,0,0,1-1.72-13.18,36.88,36.88,0,0,1,3.37-12.88,45.82,45.82,0,0,1,7.34-11.1c5.87-6.71,13.23-11.88,20.94-16.17a.42.42,0,0,1,.59.17.39.39,0,0,1,.06.21,129.6,129.6,0,0,0,5.91,36.31,173.29,173.29,0,0,0,14.52,33.92,175.31,175.31,0,0,0,21.27,30.16A124,124,0,0,0,1666.51,533.83Z" fill="#fff"/>
                <path d="M1606.19,456.92a86,86,0,0,0-9.42,6.38,54.15,54.15,0,0,0-8.23,7.78,41.44,41.44,0,0,0-6.16,9.42,31.13,31.13,0,0,0-2.8,10.82,28.26,28.26,0,0,0,1.38,11.06,36.67,36.67,0,0,0,5.17,10,49.49,49.49,0,0,0,7.67,8.31,76.87,76.87,0,0,0,9.12,6.8,56.56,56.56,0,0,1-17.41-14.66,35.32,35.32,0,0,1-5.41-10.13,29,29,0,0,1-1.51-11.42,32.08,32.08,0,0,1,3-11.13,39.18,39.18,0,0,1,6.4-9.54A63.42,63.42,0,0,1,1606.19,456.92Z" fill="#fff"/>
                <path d="M1666.51,533.83a120.4,120.4,0,0,1-18.24-4.17,126.87,126.87,0,0,1-17.42-6.93,124.85,124.85,0,0,1-30.79-21.28,107.45,107.45,0,0,1-22.41-29.94,88,88,0,0,1-6.51-17.58,76,76,0,0,1-2.26-18.56,84,84,0,0,0,9.46,35.8,108.92,108.92,0,0,0,22.41,29.56A126.73,126.73,0,0,0,1631.19,522,129.89,129.89,0,0,0,1666.51,533.83Z" fill="#fff"/>
                <path d="M1666.51,533.83a117.93,117.93,0,0,1-17.11,1.35,107.07,107.07,0,0,1-17.14-1.36A89.21,89.21,0,0,1,1600.07,522a70.53,70.53,0,0,1-24-24.38,64.46,64.46,0,0,1-6.52-15.91,65.36,65.36,0,0,1-2.06-17,66.62,66.62,0,0,0,9.24,32.55,70.67,70.67,0,0,0,23.84,23.92,89.78,89.78,0,0,0,31.79,11.91A117.15,117.15,0,0,0,1666.51,533.83Z" fill="#fff"/>
              </g>
              <g>
                <path d="M1666.51,533.83c-7.92,4.33-16.49,7.73-25.51,8.95a46.82,46.82,0,0,1-13.58-.09,36.91,36.91,0,0,1-23.25-13.2,45.86,45.86,0,0,1-7-11.69c-3.51-8.43-4.82-17.6-5-26.66a.37.37,0,0,1,.36-.37.46.46,0,0,1,.2.05,121,121,0,0,0,34.33,13.28,174.8,174.8,0,0,0,73.39.55,129,129,0,0,0,34.68-12.41h0a.35.35,0,0,1,.48.14.41.41,0,0,1,0,.17c0,8.72-1,17.55-4,25.81a45.13,45.13,0,0,1-6.11,11.59,35.36,35.36,0,0,1-9.57,8.92,32.37,32.37,0,0,1-12.27,4.51,41.46,41.46,0,0,1-13.06-.1C1682.08,541.89,1674,538.27,1666.51,533.83Zm0,0c7.51,4.36,15.65,7.88,24.27,9.17a41.06,41.06,0,0,0,13,0,32.94,32.94,0,0,0,12-4.53,34.75,34.75,0,0,0,9.39-8.82,44.41,44.41,0,0,0,6-11.46c2.94-8.17,3.85-16.94,3.84-25.59l.53.31a129.91,129.91,0,0,1-34.85,12.62,170.41,170.41,0,0,1-73.77-.54,121.77,121.77,0,0,1-34.51-13.5l.56-.32c.11,9,1.37,18.09,4.81,26.43a45.25,45.25,0,0,0,6.85,11.56,37,37,0,0,0,10.21,8.69,38.71,38.71,0,0,0,12.66,4.45,46.42,46.42,0,0,0,13.47.23C1650,541.38,1658.54,538.07,1666.51,533.83Z" fill="#fff"/>
                <path d="M1602.92,527.46l3.56,1.84c1.19.59,2.34,1.28,3.56,1.8l3.68,1.55c1.24.5,2.43,1.1,3.71,1.48l3.78,1.3c1.26.42,2.5.9,3.8,1.21l3.85,1c1.29.34,2.56.72,3.87,1a153.72,153.72,0,0,0,63.36.48c2.6-.55,5.18-1.24,7.77-1.85s5.08-1.57,7.63-2.34,5-1.89,7.47-2.83c2.42-1.09,4.81-2.28,7.24-3.4a108.29,108.29,0,0,1-30,11.17,144.41,144.41,0,0,1-63.69-.49A101.66,101.66,0,0,1,1602.92,527.46Z" fill="#fff"/>
                <path d="M1666.51,533.83a73,73,0,0,1-4.35,8,30.41,30.41,0,0,1-5.91,7,10,10,0,0,1-4.15,2.2,6.19,6.19,0,0,1-4.69-.8,11.39,11.39,0,0,1-3.29-3.38,25.5,25.5,0,0,1-2.09-4.14,51.88,51.88,0,0,1-2.48-8.84,89,89,0,0,1-1.3-9,154.06,154.06,0,0,1-.58-18.22l.21,4.55c.1,1.51.17,3,.29,4.54.21,3,.47,6,.85,9,.76,6,1.73,12,3.93,17.6a24.25,24.25,0,0,0,2,4,10.71,10.71,0,0,0,3,3.13,5.29,5.29,0,0,0,4,.72,9.74,9.74,0,0,0,3.86-2,30.31,30.31,0,0,0,6-6.68A88.59,88.59,0,0,0,1666.51,533.83Z" fill="#fff"/>
                <path d="M1666.51,533.83c1.21,2.62,2.43,5.24,3.86,7.74a31.27,31.27,0,0,0,4.94,6.95,7,7,0,0,0,3.44,2.06,3.64,3.64,0,0,0,3.39-1.48,12.84,12.84,0,0,0,2.06-3.61,31.36,31.36,0,0,0,1.31-4,99,99,0,0,0,2.54-17c.24-2.87.4-5.75.52-8.63s.22-5.76.31-8.65q.39,8.65-.06,17.33c-.14,2.89-.41,5.78-.77,8.65a69.44,69.44,0,0,1-1.58,8.57,32.89,32.89,0,0,1-1.39,4.17,13.86,13.86,0,0,1-2.26,3.84,5.71,5.71,0,0,1-1.85,1.43,3.94,3.94,0,0,1-2.37.31,7.47,7.47,0,0,1-3.83-2.38,31.45,31.45,0,0,1-4.83-7.26A81,81,0,0,1,1666.51,533.83Z" fill="#fff"/>
              </g>
              <g>
                <path d="M1735.36,492.56a130.15,130.15,0,0,0-6.19-36.36,176.61,176.61,0,0,0-14.68-33.87,171.66,171.66,0,0,0-21.4-30.05A123.69,123.69,0,0,0,1665,368.54a.42.42,0,0,1-.15-.59.52.52,0,0,1,.16-.17c8-4.32,16.6-7.71,25.68-8.9s18.58.11,26.58,4.67a37.85,37.85,0,0,1,10.41,8.86,46.14,46.14,0,0,1,7,11.74c3.49,8.46,4.76,17.64,4.87,26.71l-.18-.31c7.53,4.59,14.6,10.2,19.88,17.36a42.05,42.05,0,0,1,6.14,11.74,33.44,33.44,0,0,1,1.67,13.13,36.09,36.09,0,0,1-3.42,12.77,46.51,46.51,0,0,1-7.35,11C1750.4,483.19,1743.05,488.31,1735.36,492.56Zm0,0c7.65-4.33,14.92-9.53,20.67-16.21a46,46,0,0,0,7.18-11,36.52,36.52,0,0,0,3.28-12.63,32.91,32.91,0,0,0-1.68-12.91,41.68,41.68,0,0,0-6.1-11.55c-5.24-7-12.26-12.58-19.75-17.11a.37.37,0,0,1-.17-.31c-.14-9-1.45-18.07-4.91-26.39A45.49,45.49,0,0,0,1727,373a37.43,37.43,0,0,0-10.19-8.61,38.18,38.18,0,0,0-12.61-4.35,47.29,47.29,0,0,0-13.39-.15c-8.93,1.13-17.46,4.45-25.39,8.7l0-.76a124.33,124.33,0,0,1,28.19,24A172.11,172.11,0,0,1,1715,422a170.17,170.17,0,0,1,14.54,34.05A130.24,130.24,0,0,1,1735.36,492.56Z" fill="#fff"/>
                <path d="M1725.54,445.08a86.62,86.62,0,0,0,9.43-6.38,55.2,55.2,0,0,0,8.23-7.79,40.85,40.85,0,0,0,6.15-9.42,30.87,30.87,0,0,0,2.81-10.81,28.31,28.31,0,0,0-1.38-11.07,36.74,36.74,0,0,0-5.17-10,49.49,49.49,0,0,0-7.67-8.31,74.74,74.74,0,0,0-9.12-6.8,56.67,56.67,0,0,1,17.41,14.65,35.24,35.24,0,0,1,5.41,10.14,28.91,28.91,0,0,1,1.51,11.42,32,32,0,0,1-3,11.12,39,39,0,0,1-6.4,9.55A63.32,63.32,0,0,1,1725.54,445.08Z" fill="#fff"/>
                <path d="M1700.38,400.45a52.05,52.05,0,0,0,5.45-3.81,31.61,31.61,0,0,0,4.75-4.57,24.37,24.37,0,0,0,3.55-5.48,18,18,0,0,0,1.6-6.26,18.52,18.52,0,0,0-3.74-12.18,29.26,29.26,0,0,0-4.43-4.88,46.21,46.21,0,0,0-5.26-4,32.12,32.12,0,0,1,10.3,8.47,18.92,18.92,0,0,1,4.13,12.71,20.6,20.6,0,0,1-5.57,12.17A35.8,35.8,0,0,1,1700.38,400.45Z" fill="#fff"/>
                <path d="M1762.86,466.62a84,84,0,0,0-9.46-35.8A108.52,108.52,0,0,0,1731,401.27a129.64,129.64,0,0,0-65.77-33.1,120.22,120.22,0,0,1,18.25,4.16,126.92,126.92,0,0,1,17.42,6.94,124.55,124.55,0,0,1,30.79,21.27,107.74,107.74,0,0,1,22.41,29.94,89,89,0,0,1,6.5,17.58A75.57,75.57,0,0,1,1762.86,466.62Z" fill="#fff"/>
                <path d="M1764.22,437.32a66.48,66.48,0,0,0-9.24-32.55,70.61,70.61,0,0,0-23.84-23.93,90,90,0,0,0-31.79-11.91,106.61,106.61,0,0,0-17-1.62,124.06,124.06,0,0,0-17.11.86,115.42,115.42,0,0,1,17.12-1.35,104.81,104.81,0,0,1,17.14,1.36A89.2,89.2,0,0,1,1731.67,380a70.56,70.56,0,0,1,24,24.39,64.69,64.69,0,0,1,6.52,15.91A65.69,65.69,0,0,1,1764.22,437.32Z" fill="#fff"/>
              </g>
              <g>
                <path d="M1739.15,410.86c-.18-9-1.51-18.15-5-26.49a45,45,0,0,0-6.95-11.54,37.72,37.72,0,0,0-10.26-8.65,38.56,38.56,0,0,0-12.67-4.38,46.56,46.56,0,0,0-13.44-.12c-9,1.17-17.49,4.52-25.4,8.81a.38.38,0,0,1-.36,0c-7.47-4.37-15.56-7.9-24.12-9.22a41.15,41.15,0,0,0-12.87,0,32,32,0,0,0-12,4.48,34.59,34.59,0,0,0-9.33,8.76,44.87,44.87,0,0,0-6,11.41c-3,8.13-3.91,16.88-3.93,25.53l-.65-.39a130,130,0,0,1,34.9-12.49,170.7,170.7,0,0,1,36.9-3.63,165.86,165.86,0,0,1,36.81,4.34A121.68,121.68,0,0,1,1739.15,410.86Zm0,0a121.26,121.26,0,0,0-34.47-13.19,172.7,172.7,0,0,0-73.45-.38,128.78,128.78,0,0,0-34.64,12.54.44.44,0,0,1-.59-.17.46.46,0,0,1-.06-.22c0-8.72.9-17.57,3.89-25.86a44.26,44.26,0,0,1,6.11-11.65,35.66,35.66,0,0,1,9.63-9,32.93,32.93,0,0,1,12.34-4.55,41.67,41.67,0,0,1,13.14.05c8.7,1.36,16.86,5,24.36,9.4h-.36c8-4.29,16.61-7.65,25.67-8.8a47,47,0,0,1,13.61.18,38.89,38.89,0,0,1,12.85,4.49,37.41,37.41,0,0,1,10.33,8.83,45.4,45.4,0,0,1,6.88,11.71C1737.83,392.69,1739.07,401.83,1739.15,410.86Z" fill="#fff"/>
                <path d="M1728.82,374.54l-3.56-1.84c-1.19-.59-2.34-1.28-3.56-1.8l-3.68-1.56c-1.24-.49-2.43-1.09-3.71-1.47l-3.78-1.3c-1.26-.43-2.5-.9-3.8-1.21l-3.85-1c-1.29-.34-2.56-.72-3.87-.95a153.27,153.27,0,0,0-63.36-.48c-2.61.54-5.18,1.23-7.77,1.84s-5.08,1.57-7.63,2.34-5,1.9-7.47,2.84-4.81,2.28-7.24,3.4a108.63,108.63,0,0,1,30-11.18,144.41,144.41,0,0,1,63.69.49A101.68,101.68,0,0,1,1728.82,374.54Z" fill="#fff"/>
                <path d="M1702.3,359.22c-1.41-.68-2.78-1.42-4.19-2.08s-2.86-1.22-4.33-1.73-2.93-1-4.43-1.43-3-.84-4.52-1.13a91.77,91.77,0,0,0-37-.28c-1.52.31-3,.7-4.54,1.05s-3,.89-4.46,1.33-2.91,1.08-4.38,1.61-2.82,1.31-4.25,1.94a61.83,61.83,0,0,1,17.47-6.69,82.9,82.9,0,0,1,37.3.29A58,58,0,0,1,1702.3,359.22Z" fill="#fff"/>
                <path d="M1694.07,395.37l-.21-4.55c-.1-1.52-.17-3-.29-4.54-.21-3-.47-6-.85-9-.76-6-1.73-12-3.93-17.59a24.76,24.76,0,0,0-2-4,10.67,10.67,0,0,0-3-3.12,5.25,5.25,0,0,0-4-.73,9.89,9.89,0,0,0-3.86,2,29.87,29.87,0,0,0-6,6.68,89.63,89.63,0,0,0-4.76,7.74,75.81,75.81,0,0,1,4.35-8,30.2,30.2,0,0,1,5.92-7,9.74,9.74,0,0,1,4.15-2.2,6.19,6.19,0,0,1,4.69.79,11.51,11.51,0,0,1,3.29,3.38,24.72,24.72,0,0,1,2.09,4.14,51.84,51.84,0,0,1,2.47,8.84,84.27,84.27,0,0,1,1.3,9A151.82,151.82,0,0,1,1694.07,395.37Z" fill="#fff"/>
                <path d="M1642.85,394.86q-.37-8.67.07-17.34c.14-2.89.41-5.77.77-8.65a70.13,70.13,0,0,1,1.58-8.57,31.24,31.24,0,0,1,1.39-4.16,13.77,13.77,0,0,1,2.26-3.85,5.55,5.55,0,0,1,1.85-1.42,3.77,3.77,0,0,1,2.36-.31,7.37,7.37,0,0,1,3.84,2.37,31.5,31.5,0,0,1,4.83,7.27,78.64,78.64,0,0,1,3.42,8c-1.2-2.63-2.42-5.24-3.85-7.74a31.1,31.1,0,0,0-4.94-7,7.14,7.14,0,0,0-3.44-2.06,3.66,3.66,0,0,0-3.39,1.48,13.12,13.12,0,0,0-2.06,3.61,31.5,31.5,0,0,0-1.31,4.06,98.92,98.92,0,0,0-2.55,17q-.35,4.31-.52,8.63C1643,389.08,1642.94,392,1642.85,394.86Z" fill="#fff"/>
              </g>
              <g>
                <path d="M1596.38,409.44c0-8.69.83-17.5,3.78-25.75a45.16,45.16,0,0,1,6-11.6,34.91,34.91,0,0,1,9.52-9,32.89,32.89,0,0,1,12.25-4.57,41.41,41.41,0,0,1,13.1,0c8.69,1.33,16.86,4.9,24.38,9.31a.36.36,0,0,1,.13.49.57.57,0,0,1-.14.13,122.88,122.88,0,0,0-29,22.86,167.66,167.66,0,0,0-37.47,63.33,120.9,120.9,0,0,0-5.94,36.46.35.35,0,0,1-.35.37.46.46,0,0,1-.2-.05c-7.53-4.6-14.59-10.21-19.87-17.37a42.35,42.35,0,0,1-6.15-11.74,33.57,33.57,0,0,1-1.66-13.12,36.13,36.13,0,0,1,3.41-12.78,47.06,47.06,0,0,1,7.36-11C1581.34,418.8,1588.69,413.68,1596.38,409.44Zm0,0c-7.65,4.33-14.92,9.52-20.67,16.2a46.5,46.5,0,0,0-7.18,11,36.58,36.58,0,0,0-3.28,12.64,32.86,32.86,0,0,0,1.68,12.9,41.54,41.54,0,0,0,6.1,11.55c5.24,7.05,12.26,12.59,19.75,17.11l-.55.32a121.07,121.07,0,0,1,5.84-36.72,163.16,163.16,0,0,1,37.68-63.68,123.89,123.89,0,0,1,29.3-22.89v.63c-7.45-4.41-15.53-8-24.1-9.32a41.11,41.11,0,0,0-12.91-.05,32.15,32.15,0,0,0-12.07,4.46,35.24,35.24,0,0,0-9.45,8.77,44.51,44.51,0,0,0-6.09,11.45C1597.41,392,1596.43,400.75,1596.38,409.44Z" fill="#fff"/>
                <path d="M1605.54,373.31a86.15,86.15,0,0,0-9.43,6.38,54.56,54.56,0,0,0-8.22,7.78,41.11,41.11,0,0,0-6.16,9.42,31.13,31.13,0,0,0-2.8,10.82,28.26,28.26,0,0,0,1.38,11.06,36.92,36.92,0,0,0,5.16,10,50,50,0,0,0,7.68,8.31,76.06,76.06,0,0,0,9.12,6.8,56.56,56.56,0,0,1-17.41-14.66,35.24,35.24,0,0,1-5.41-10.14,29.07,29.07,0,0,1-1.52-11.41,32.09,32.09,0,0,1,3-11.13,39.18,39.18,0,0,1,6.4-9.54A63.42,63.42,0,0,1,1605.54,373.31Z" fill="#fff"/>
                <path d="M1630.24,358.5a52.05,52.05,0,0,0-5.45,3.81,32.11,32.11,0,0,0-4.75,4.57,24.79,24.79,0,0,0-3.55,5.49,18,18,0,0,0-1.6,6.25,18.54,18.54,0,0,0,3.75,12.19,28.71,28.71,0,0,0,4.42,4.87,46.33,46.33,0,0,0,5.27,4.05,32.13,32.13,0,0,1-10.31-8.47,18.9,18.9,0,0,1-4.12-12.71,20.65,20.65,0,0,1,5.56-12.17A36.1,36.1,0,0,1,1630.24,358.5Z" fill="#fff"/>
                <path d="M1568.88,435.37a66,66,0,0,1,1.69-16.74,63,63,0,0,1,6.08-15.74,66.59,66.59,0,0,1,23.28-24.14,84.23,84.23,0,0,1,31.69-11.27,103.25,103.25,0,0,1,16.85-1,113.18,113.18,0,0,1,16.75,1.69,122.23,122.23,0,0,0-16.76-1.2,102.78,102.78,0,0,0-16.72,1.27,84.69,84.69,0,0,0-31.28,11.36,66.64,66.64,0,0,0-23.14,23.66A65.65,65.65,0,0,0,1568.88,435.37Z" fill="#fff"/>
                <path d="M1567.52,464.68a73.62,73.62,0,0,1,2-18.51,84.78,84.78,0,0,1,6.39-17.53A102.87,102.87,0,0,1,1598.43,399a120.82,120.82,0,0,1,31-20.58,126,126,0,0,1,17.5-6.51,121,121,0,0,1,18.25-3.73,129.64,129.64,0,0,0-35.42,10.93,122.76,122.76,0,0,0-30.7,20.63A103.66,103.66,0,0,0,1576.6,429,80.76,80.76,0,0,0,1567.52,464.68Z" fill="#fff"/>
              </g>
              <g>
                <path d="M1592.59,491.13a121,121,0,0,1,5.74-36.63,159.6,159.6,0,0,1,15.11-34,163.22,163.22,0,0,1,22.38-29.72,123.5,123.5,0,0,1,29.22-23,.39.39,0,0,1,.38,0,124.31,124.31,0,0,1,28.27,23.91A173.86,173.86,0,0,1,1729.78,456a130.24,130.24,0,0,1,6,36.54.41.41,0,0,1-.21.35,130.07,130.07,0,0,1-34.88,12.5,170.68,170.68,0,0,1-36.89,3.64,164.55,164.55,0,0,1-36.8-4.36A121.05,121.05,0,0,1,1592.59,491.13Zm0,0a121.5,121.5,0,0,0,34.46,13.24,171.79,171.79,0,0,0,36.72,4.12,169.93,169.93,0,0,0,36.75-3.74,128.85,128.85,0,0,0,34.65-12.54l-.2.35a129.43,129.43,0,0,0-6-36.29,177.68,177.68,0,0,0-35.9-63.94,123.71,123.71,0,0,0-28-23.83h.38a123,123,0,0,0-29.12,22.76,163.39,163.39,0,0,0-22.37,29.54,165.63,165.63,0,0,0-15.28,33.78A120.76,120.76,0,0,0,1592.59,491.13Z" fill="#fff"/>
                <path d="M1602.27,443.85l3.56,1.83c1.19.6,2.33,1.29,3.56,1.81l3.68,1.55c1.24.5,2.43,1.1,3.71,1.48l3.78,1.3c1.26.42,2.5.9,3.8,1.21l3.85,1c1.28.34,2.56.72,3.87.95a153.72,153.72,0,0,0,63.36.48c2.6-.55,5.17-1.24,7.76-1.85s5.09-1.57,7.64-2.34,5-1.89,7.47-2.83c2.42-1.09,4.81-2.28,7.23-3.4a108.11,108.11,0,0,1-29.94,11.17,144.41,144.41,0,0,1-63.69-.49A101.93,101.93,0,0,1,1602.27,443.85Z" fill="#fff"/>
                <path d="M1628.33,399.73c1.4.69,2.77,1.43,4.18,2.08s2.86,1.23,4.33,1.73,2.93,1,4.44,1.43,3,.84,4.51,1.14a91.77,91.77,0,0,0,37,.28c1.52-.31,3-.71,4.54-1.05s3-.9,4.46-1.34,2.92-1.08,4.38-1.61,2.83-1.3,4.25-1.94a61.47,61.47,0,0,1-17.46,6.69,82.53,82.53,0,0,1-37.3-.29A57.84,57.84,0,0,1,1628.33,399.73Z" fill="#fff"/>
                <path d="M1637.67,506.63l-.05-8.89.24-8.89.53-8.87.75-8.86c1.15-11.81,2.89-23.55,5-35.21s4.89-23.22,8.25-34.6,7.35-22.6,12.78-33.14a168.32,168.32,0,0,0-6.7,16.43l-1.47,4.19-1.34,4.23c-.93,2.81-1.73,5.66-2.53,8.5q-4.8,17.1-8,34.57c-2.23,11.62-4,23.34-5.26,35.1S1637.79,494.78,1637.67,506.63Z" fill="#fff"/>
                <path d="M1688.88,507.14c-.3-11.8-1.13-23.57-2.32-35.3s-2.71-23.42-4.63-35.06-4.08-23.22-6.75-34.7c-.67-2.87-1.32-5.75-2.09-8.59l-1.12-4.28c-.38-1.42-.81-2.83-1.21-4.25-1.56-5.69-3.5-11.26-5.54-16.79a229.55,229.55,0,0,1,10.71,33.73c2.82,11.47,5.06,23.07,7,34.72s3.36,23.39,4.4,35.15S1689,495.34,1688.88,507.14Z" fill="#fff"/>
              </g>
            </g>
            <path d="M1766.86,450.2c0,2.27,0,4.54-.14,6.8s-.47,4.51-.72,6.77-.57,4.5-1,6.73a64.82,64.82,0,0,1-1.62,6.6,112.92,112.92,0,0,1-4.3,12.91,115.94,115.94,0,0,1-6.07,12.17,96.38,96.38,0,0,1-7.66,11.24,99.11,99.11,0,0,1-9.11,10.11,83.75,83.75,0,0,1-10.38,8.79c-1.84,1.33-3.68,2.65-5.6,3.87s-3.88,2.36-5.85,3.48l-.1-.19a33.86,33.86,0,0,0,9.6-8,42.61,42.61,0,0,0,6.42-10.78,60.43,60.43,0,0,0,3.54-12.08,84.85,84.85,0,0,0,1.26-12.54c.43-16.85-3.34-33.58-9.21-49.32a172.42,172.42,0,0,0-10.55-22.9,174.81,174.81,0,0,0-13.67-21.2c-2.54-3.35-5.17-6.63-8-9.77s-5.71-6.18-8.74-9.09-6.25-5.62-9.55-8.23a117,117,0,0,0-10.39-7.12.29.29,0,0,1-.1-.41.3.3,0,0,1,.41-.1c13,7.87,24.2,18.55,33.72,30.37a177.76,177.76,0,0,1,23.56,38.88,162.4,162.4,0,0,1,7.83,21.39,135,135,0,0,1,4.55,22.33l.31,2.84.2,2.85c.17,1.9.17,3.8.24,5.7a90.56,90.56,0,0,1-.58,11.41,59.59,59.59,0,0,1-6.51,21.83,38.42,38.42,0,0,1-6.92,9.16c-.68.68-1.43,1.28-2.15,1.92s-1.54,1.15-2.3,1.73-1.64,1-2.46,1.53-1.69.88-2.54,1.32l-2.54,1.3c-.84.45-1.74.78-2.6,1.18l-2.63,1.13c-.87.38-1.75.77-2.65,1.07-3.58,1.37-7.19,2.45-10.86,3.49-1.86.51-3.73.83-5.6,1.2-.94.18-1.87.38-2.81.53l-2.82.42c-1.87.26-3.77.52-5.68.64l-5.71.2a100.7,100.7,0,0,1-22.71-1.91c-1.86-.37-3.73-.82-5.56-1.3s-3.67-1-5.48-1.6-3.6-1.25-5.37-1.94-3.54-1.39-5.28-2.19a105.62,105.62,0,0,1-19.57-11.69,101.46,101.46,0,0,1-30.62-123c.4-.86.8-1.72,1.23-2.57l1.36-2.51,1.36-2.5a27.28,27.28,0,0,1,1.42-2.47l3.11-4.78c1-1.6,2.12-3.15,3.29-4.65a107.36,107.36,0,0,1,7.49-8.59,90.06,90.06,0,0,1,8.38-7.72,101.91,101.91,0,0,1,40.45-20.2,100.44,100.44,0,0,1,45.17-.55c1.85.41,3.71.78,5.54,1.29s3.63,1.14,5.43,1.73,3.57,1.29,5.33,2,3.53,1.4,5.24,2.23a112.33,112.33,0,0,1,10,5.4,107.43,107.43,0,0,1,9.35,6.49,101.29,101.29,0,0,1,16.24,15.89,104.16,104.16,0,0,1,12.26,19.12,94.37,94.37,0,0,1,4.43,10.47,84.69,84.69,0,0,1,3.21,10.91c.81,3.7,1.54,7.43,2,11.19A105.11,105.11,0,0,1,1766.86,450.2Zm0,0a102.32,102.32,0,0,0-.74-11.34c-.46-3.77-1.2-7.49-2-11.19a84.59,84.59,0,0,0-3.22-10.9,96.12,96.12,0,0,0-4.45-10.45,104.47,104.47,0,0,0-12.28-19.08,101.39,101.39,0,0,0-16.25-15.83,103.53,103.53,0,0,0-9.35-6.46,113,113,0,0,0-10-5.38c-1.71-.81-3.46-1.54-5.23-2.21s-3.51-1.41-5.33-2-3.6-1.2-5.41-1.71-3.69-.88-5.53-1.28a100,100,0,0,0-45,.64,101.66,101.66,0,0,0-40.26,20.19,89,89,0,0,0-8.32,7.7,108.08,108.08,0,0,0-7.44,8.56c-1.16,1.5-2.25,3-3.26,4.64l-3.09,4.76c-.54.77-.94,1.64-1.41,2.46l-1.35,2.49-1.35,2.5c-.42.84-.81,1.7-1.21,2.56a100.8,100.8,0,0,0-9.11,44.06,100.53,100.53,0,0,0,39.73,78.1,104.53,104.53,0,0,0,19.44,11.56c1.71.79,3.47,1.47,5.23,2.16s3.54,1.33,5.33,1.92,3.61,1.09,5.44,1.57,3.66.92,5.51,1.28a100.18,100.18,0,0,0,22.53,1.85l5.66-.21c1.87-.12,3.74-.38,5.61-.65l2.81-.42c.93-.15,1.85-.35,2.78-.53,1.85-.37,3.72-.7,5.52-1.19,3.62-1,7.27-2.14,10.77-3.49.9-.3,1.76-.68,2.62-1.06l2.6-1.13c.85-.39,1.74-.71,2.58-1.16l2.52-1.28c.83-.44,1.7-.84,2.51-1.3s1.61-.94,2.37-1.47,1.53-1.08,2.25-1.68,1.43-1.21,2.09-1.86a37.76,37.76,0,0,0,6.76-8.92,58.6,58.6,0,0,0,6.44-21.48,90.72,90.72,0,0,0,.6-11.3c-.07-1.88-.06-3.77-.22-5.66l-.2-2.82-.3-2.82a135.61,135.61,0,0,0-4.48-22.2,161.46,161.46,0,0,0-7.75-21.31,177.48,177.48,0,0,0-23.4-38.77c-9.45-11.79-20.54-22.43-33.49-30.28l.31-.51a116.16,116.16,0,0,1,10.43,7.18c3.31,2.63,6.53,5.36,9.57,8.29s6,5.95,8.76,9.13,5.44,6.46,8,9.82a176.53,176.53,0,0,1,13.67,21.28,174.59,174.59,0,0,1,10.53,23c5.85,15.78,9.6,32.56,9.14,49.47a85.56,85.56,0,0,1-1.29,12.58,61.67,61.67,0,0,1-3.58,12.13,43.29,43.29,0,0,1-6.48,10.83,34.35,34.35,0,0,1-9.68,8.07.12.12,0,0,1-.15,0,.11.11,0,0,1,0-.14c2-1.11,3.94-2.23,5.85-3.45s3.76-2.53,5.59-3.86a81.83,81.83,0,0,0,10.38-8.76,97.64,97.64,0,0,0,9.11-10.07,96.19,96.19,0,0,0,7.68-11.21A117.77,117.77,0,0,0,1759,490a114.7,114.7,0,0,0,4.32-12.89,64.86,64.86,0,0,0,1.63-6.6c.41-2.23.72-4.48,1-6.73s.54-4.5.73-6.76S1766.85,452.47,1766.86,450.2Z" fill="#fff"/>
          </g>
        </g>
      </g>
      <g opacity="0.12">
        <g style="isolation: isolate">
          <g style="isolation: isolate">
            <g style="isolation: isolate">
              <g>
                <path d="M1666.86,668a41.53,41.53,0,0,0,13.15,4.55,26.51,26.51,0,0,0,7,.13,20.61,20.61,0,0,0,6.61-2,19.49,19.49,0,0,0,9.12-10,34,34,0,0,0,2.42-13.58.26.26,0,0,1,.15-.25,42.57,42.57,0,0,0,11.28-7.89,24,24,0,0,0,4.1-5.48,16.57,16.57,0,0,0,1.95-6.49,15.07,15.07,0,0,0-1-6.68,20.56,20.56,0,0,0-3.48-5.85,37.27,37.27,0,0,0-10.79-8.47l.49-.29a57.31,57.31,0,0,1-3.56,19.13,80,80,0,0,1-8.83,17.34,81.82,81.82,0,0,1-12.62,14.8A68,68,0,0,1,1666.86,668Zm0,0a67.79,67.79,0,0,0,15.76-11.26A86.45,86.45,0,0,0,1695.06,642a78.81,78.81,0,0,0,8.68-17.28,56.52,56.52,0,0,0,3.43-18.94.32.32,0,0,1,.32-.33.33.33,0,0,1,.17,0,38.31,38.31,0,0,1,11,8.57c3,3.57,5,8.28,4.58,13.06a17.29,17.29,0,0,1-2.06,6.74,24.51,24.51,0,0,1-4.24,5.61,43.05,43.05,0,0,1-11.48,8l.15-.25a34.43,34.43,0,0,1-2.53,13.78A19.37,19.37,0,0,1,1687,673a26.54,26.54,0,0,1-7-.24A41.76,41.76,0,0,1,1666.86,668Z" fill="#fff"/>
                <path d="M1686.43,672.93a25.19,25.19,0,0,0,5.53-4.21,10,10,0,0,0,3-6,8.72,8.72,0,0,0-2.14-6.23,21.59,21.59,0,0,0-5.27-4.5,17.37,17.37,0,0,1,5.71,4.14,9.06,9.06,0,0,1,2.45,6.65,10.37,10.37,0,0,1-3.29,6.3A20.06,20.06,0,0,1,1686.43,672.93Z" fill="#fff"/>
                <path d="M1700.25,665.43a39.46,39.46,0,0,0,9.62-7,21.89,21.89,0,0,0,3.51-4.74,14.4,14.4,0,0,0,1.66-5.59c.39-3.92-1.27-7.79-3.75-10.83a34.71,34.71,0,0,0-9.21-7.54,30.71,30.71,0,0,1,9.65,7.17,15.54,15.54,0,0,1,4,11.26,17.34,17.34,0,0,1-5.5,10.68A34.53,34.53,0,0,1,1700.25,665.43Z" fill="#fff"/>
                <path d="M1666.86,668a74.13,74.13,0,0,0,9.05.54,60.34,60.34,0,0,0,9-.59,51.55,51.55,0,0,0,17.13-5.32A36.33,36.33,0,0,0,1715.49,651a31.15,31.15,0,0,0,5.27-17,31.24,31.24,0,0,1-1,9,30.77,30.77,0,0,1-3.74,8.31,36.22,36.22,0,0,1-13.57,12,51,51,0,0,1-17.4,5.23A64.09,64.09,0,0,1,1666.86,668Z" fill="#fff"/>
                <path d="M1666.86,668a78.54,78.54,0,0,0,9.72-2.08,76.66,76.66,0,0,0,9.36-3.24,70.64,70.64,0,0,0,17-10.06,55.12,55.12,0,0,0,13-14.73,40.91,40.91,0,0,0,4-9,34.7,34.7,0,0,0,1.56-9.77,35,35,0,0,1-1.21,9.87,41.13,41.13,0,0,1-3.84,9.22,54.34,54.34,0,0,1-13.07,15,68.83,68.83,0,0,1-17.24,10,75.47,75.47,0,0,1-9.49,3.06A77.76,77.76,0,0,1,1666.86,668Z" fill="#fff"/>
              </g>
              <g>
                <path d="M1666.86,668a67.74,67.74,0,0,0,15.78-11.24A86.13,86.13,0,0,0,1695.08,642a79.07,79.07,0,0,0,8.69-17.28,56.58,56.58,0,0,0,3.44-18.95l.15.25a72.47,72.47,0,0,0-19.31-6.72,108.34,108.34,0,0,0-40.82-.28,77.83,77.83,0,0,0-19.48,6.29l.16-.26a60.93,60.93,0,0,0,3.48,18.83,84.27,84.27,0,0,0,8.33,17.33,89,89,0,0,0,11.9,15.12A68.53,68.53,0,0,0,1666.86,668Zm0,0a68.26,68.26,0,0,1-15.4-11.58,83.68,83.68,0,0,1-12.09-15.08,85.4,85.4,0,0,1-8.45-17.38,61.18,61.18,0,0,1-3.58-19,.27.27,0,0,1,.16-.26,78.19,78.19,0,0,1,19.6-6.42,104.48,104.48,0,0,1,41.09.28,73.29,73.29,0,0,1,19.45,6.87.32.32,0,0,1,.15.25,57.14,57.14,0,0,1-3.55,19.11,79.61,79.61,0,0,1-8.82,17.35A81.35,81.35,0,0,1,1682.8,657,67.71,67.71,0,0,1,1666.86,668Z" fill="#fff"/>
                <path d="M1687.5,652a41.22,41.22,0,0,0-9.84-3.15,55.23,55.23,0,0,0-10.27-1,54.53,54.53,0,0,0-10.28.85,43.77,43.77,0,0,0-9.92,2.92,35.77,35.77,0,0,1,9.81-3.49,50.4,50.4,0,0,1,10.4-1,51,51,0,0,1,10.38,1.17A33.89,33.89,0,0,1,1687.5,652Z" fill="#fff"/>
                <path d="M1702.08,629.69c-1.35-.61-2.67-1.28-4-1.84s-2.76-1.09-4.18-1.51-2.81-.92-4.25-1.25-2.86-.74-4.32-1a95.82,95.82,0,0,0-35.25-.23c-1.45.26-2.89.61-4.34.91s-2.85.78-4.28,1.16-2.8.94-4.21,1.41-2.73,1.15-4.1,1.72c1.35-.63,2.68-1.29,4-1.89s2.76-1.1,4.16-1.59,2.84-.89,4.28-1.27,2.88-.72,4.34-1a87.84,87.84,0,0,1,35.48.24c1.46.28,2.88.73,4.32,1.09s2.84.91,4.25,1.36,2.75,1.13,4.13,1.69S1700.76,629,1702.08,629.69Z" fill="#fff"/>
                <path d="M1666.86,668a76.92,76.92,0,0,0,3.67-8.26l.82-2.11.74-2.14c.51-1.41,1-2.85,1.4-4.29q2.65-8.64,4.47-17.5c1.26-5.9,2.23-11.85,3-17.83l.51-4.49.4-4.5.29-4.52.14-4.52,0,4.53-.11,4.53-.28,4.52-.41,4.52c-.64,6-1.62,12-2.83,17.91a168,168,0,0,1-4.66,17.52A88.71,88.71,0,0,1,1666.86,668Z" fill="#fff"/>
                <path d="M1666.86,668a106,106,0,0,1-6-17c-1.6-5.8-2.85-11.68-3.94-17.59s-1.89-11.88-2.46-17.86l-.38-4.49-.28-4.5-.13-4.51,0-4.5.2,4.5.32,4.48.39,4.49.47,4.47c.69,6,1.54,11.89,2.62,17.78s2.29,11.77,3.76,17.58c.37,1.45.74,2.91,1.16,4.34s.82,2.89,1.29,4.31C1664.68,662.45,1665.73,665.26,1666.86,668Z" fill="#fff"/>
              </g>
              <g>
                <path d="M1666.86,668a68.29,68.29,0,0,1-15.42-11.56,83.89,83.89,0,0,1-12.08-15.08A84.74,84.74,0,0,1,1630.9,624a61.21,61.21,0,0,1-3.6-19l.47.29a42.72,42.72,0,0,0-11.27,7.88,25.12,25.12,0,0,0-4.11,5.47,16.62,16.62,0,0,0-2,6.47c-.44,4.56,1.49,9.07,4.41,12.56a37.52,37.52,0,0,0,10.8,8.48.27.27,0,0,1,.15.24,32.38,32.38,0,0,0,3,14,22.18,22.18,0,0,0,4.14,5.88,20.83,20.83,0,0,0,5.9,4.1,26,26,0,0,0,14.18,1.92A44.59,44.59,0,0,0,1666.86,668Zm0,0a44.67,44.67,0,0,1-13.82,4.51,25.78,25.78,0,0,1-14.38-1.78,21.25,21.25,0,0,1-6-4.15,22.44,22.44,0,0,1-4.26-6,32.89,32.89,0,0,1-3.13-14.24l.14.24a38,38,0,0,1-11-8.57,20.93,20.93,0,0,1-3.61-6,15.67,15.67,0,0,1-1-7,17.27,17.27,0,0,1,2-6.76,24.34,24.34,0,0,1,4.24-5.63,43.31,43.31,0,0,1,11.5-7.95.33.33,0,0,1,.44.14.4.4,0,0,1,0,.15,60.56,60.56,0,0,0,3.47,18.82,84.71,84.71,0,0,0,8.31,17.33,89.13,89.13,0,0,0,11.91,15.11A68.21,68.21,0,0,0,1666.86,668Z" fill="#fff"/>
                <path d="M1647.19,651.68a25.2,25.2,0,0,0-5.52,4.21,10.07,10.07,0,0,0-3,6,8.66,8.66,0,0,0,2.15,6.22,21.54,21.54,0,0,0,5.26,4.5,17.7,17.7,0,0,1-5.71-4.13,9.09,9.09,0,0,1-2.44-6.66,10.3,10.3,0,0,1,3.29-6.29A19.72,19.72,0,0,1,1647.19,651.68Z" fill="#fff"/>
                <path d="M1633.11,629.07a39.46,39.46,0,0,0-9.62,7,21.89,21.89,0,0,0-3.51,4.74,14.39,14.39,0,0,0-1.65,5.59c-.4,3.92,1.27,7.79,3.75,10.83a34.82,34.82,0,0,0,9.2,7.54,30.94,30.94,0,0,1-9.64-7.17,15.5,15.5,0,0,1-4.06-11.26,17.34,17.34,0,0,1,5.5-10.68A34.53,34.53,0,0,1,1633.11,629.07Z" fill="#fff"/>
                <path d="M1666.86,668a72.36,72.36,0,0,1-19.26-5.22,70.29,70.29,0,0,1-17.11-10.36,56.48,56.48,0,0,1-13-15.19,42.76,42.76,0,0,1-3.9-9.23,36,36,0,0,1-1.36-9.89,35.6,35.6,0,0,0,1.71,9.78,42.69,42.69,0,0,0,4,9.05,57.63,57.63,0,0,0,13,14.9,71.39,71.39,0,0,0,16.86,10.41,74.5,74.5,0,0,0,9.33,3.46A76.37,76.37,0,0,0,1666.86,668Z" fill="#fff"/>
                <path d="M1666.86,668a66.19,66.19,0,0,1-18.49.18,53.78,53.78,0,0,1-17.69-5.52,38.77,38.77,0,0,1-13.94-12.15,31.69,31.69,0,0,1-4-8.39,31.32,31.32,0,0,1-1.27-9.16,31.7,31.7,0,0,0,5.74,17.22A38.63,38.63,0,0,0,1631,662a54.87,54.87,0,0,0,17.42,5.61,62.59,62.59,0,0,0,9.18.77A76.93,76.93,0,0,0,1666.86,668Z" fill="#fff"/>
              </g>
              <g>
                <path d="M1666.86,668a44.91,44.91,0,0,1-13.83,4.51,25.85,25.85,0,0,1-14.37-1.78,21.08,21.08,0,0,1-6-4.16,22.85,22.85,0,0,1-4.26-6,33,33,0,0,1-3.13-14.24.28.28,0,0,1,.27-.28.22.22,0,0,1,.13,0,73,73,0,0,0,19.32,6.71,108.34,108.34,0,0,0,40.82.28,78,78,0,0,0,19.49-6.27.25.25,0,0,1,.35.11.27.27,0,0,1,0,.12,34.6,34.6,0,0,1-2.52,13.78A19.32,19.32,0,0,1,1687,673a26.54,26.54,0,0,1-7-.23A41.76,41.76,0,0,1,1666.86,668Zm0,0a41.45,41.45,0,0,0,13.15,4.55,26.09,26.09,0,0,0,7,.13,20.54,20.54,0,0,0,6.61-2,19.41,19.41,0,0,0,9.12-10,34,34,0,0,0,2.42-13.58l.39.23a78.48,78.48,0,0,1-19.6,6.43,104.17,104.17,0,0,1-41.08-.27,73.42,73.42,0,0,1-19.45-6.88l.4-.24a32.6,32.6,0,0,0,3,14,22.4,22.4,0,0,0,4.15,5.87,20.49,20.49,0,0,0,5.9,4.1,26,26,0,0,0,14.18,1.92A44.59,44.59,0,0,0,1666.86,668Z" fill="#fff"/>
                <path d="M1646.12,672.57a40.34,40.34,0,0,0,9.84,3.15,58.52,58.52,0,0,0,20.56.14,43.72,43.72,0,0,0,9.91-2.93,35.5,35.5,0,0,1-9.8,3.49,49.67,49.67,0,0,1-20.79-.14A33.71,33.71,0,0,1,1646.12,672.57Z" fill="#fff"/>
                <path d="M1631.28,664.81c1.35.61,2.68,1.28,4,1.84s2.75,1.09,4.17,1.51,2.81.92,4.25,1.25,2.87.74,4.33,1a96.34,96.34,0,0,0,35.24.23c1.46-.26,2.89-.61,4.34-.91s2.85-.78,4.28-1.16,2.8-.95,4.21-1.41,2.73-1.15,4.1-1.72c-1.34.63-2.67,1.29-4,1.89s-2.76,1.1-4.17,1.58-2.83.9-4.27,1.28-2.89.72-4.35,1A87.79,87.79,0,0,1,1648,671c-1.46-.28-2.89-.73-4.33-1.09s-2.83-.91-4.25-1.36-2.75-1.13-4.12-1.69S1632.61,665.48,1631.28,664.81Z" fill="#fff"/>
                <path d="M1666.86,668c-1.45,2.78-3.07,5.6-5.63,7.63a5.81,5.81,0,0,1-2.19,1.14,3.93,3.93,0,0,1-2.53-.16,5.19,5.19,0,0,1-2-1.56,10.78,10.78,0,0,1-1.3-2.08,31.28,31.28,0,0,1-2.25-9.27,68.3,68.3,0,0,1-.28-9.48c.19,3.15.42,6.3.86,9.41a32.5,32.5,0,0,0,2.35,9,10.13,10.13,0,0,0,1.18,1.95,4.43,4.43,0,0,0,1.67,1.38,4.19,4.19,0,0,0,4.11-.81,15.74,15.74,0,0,0,3.28-3.29A45.39,45.39,0,0,0,1666.86,668Z" fill="#fff"/>
                <path d="M1666.86,668c.7,1.32,1.39,2.64,2.2,3.88a15.29,15.29,0,0,0,2.72,3.44,4.33,4.33,0,0,0,1.78,1,2,2,0,0,0,1.77-.52,5.12,5.12,0,0,0,1.2-1.7,13.74,13.74,0,0,0,.78-2,44.57,44.57,0,0,0,1.51-8.72c.29-3,.42-5.93.56-8.92a78.77,78.77,0,0,1,0,9A45,45,0,0,1,1679,668a30.75,30.75,0,0,1-.93,4.42,13.91,13.91,0,0,1-.85,2.13,5.71,5.71,0,0,1-1.4,1.9,2.63,2.63,0,0,1-2.36.63,4.53,4.53,0,0,1-2-1.25C1669.22,673.58,1668,670.78,1666.86,668Z" fill="#fff"/>
              </g>
              <g>
                <path d="M1705.38,647.12a60.84,60.84,0,0,0-3.68-18.86,87.48,87.48,0,0,0-20.43-32.3A67.87,67.87,0,0,0,1666,584.38a.33.33,0,0,1-.13-.44.38.38,0,0,1,.14-.14,45.3,45.3,0,0,1,13.94-4.47,26,26,0,0,1,14.47,1.9,21.4,21.4,0,0,1,6.06,4.21,22.88,22.88,0,0,1,4.25,6,33,33,0,0,1,3.06,14.27l-.14-.24a38,38,0,0,1,11,8.61,20.78,20.78,0,0,1,3.56,6,15.53,15.53,0,0,1,1,6.92,16.74,16.74,0,0,1-2.06,6.68,24.34,24.34,0,0,1-4.24,5.54A42.52,42.52,0,0,1,1705.38,647.12Zm0,0a42.63,42.63,0,0,0,11.3-8,24.67,24.67,0,0,0,4.11-5.54,17.29,17.29,0,0,0,2-6.56c.42-4.62-1.56-9.14-4.51-12.63a37.4,37.4,0,0,0-10.86-8.43.27.27,0,0,1-.14-.24,32.54,32.54,0,0,0-3.08-14,21.84,21.84,0,0,0-4.16-5.83,20.34,20.34,0,0,0-5.88-4,25.86,25.86,0,0,0-14.08-1.81,44.37,44.37,0,0,0-13.75,4.34v-.58a68,68,0,0,1,15.37,11.76,86.91,86.91,0,0,1,12,15.17,82.32,82.32,0,0,1,8.33,17.43A61.29,61.29,0,0,1,1705.38,647.12Z" fill="#fff"/>
                <path d="M1699.89,623.07a39.72,39.72,0,0,0,9.62-7,22,22,0,0,0,3.51-4.75,14.29,14.29,0,0,0,1.65-5.58c.4-3.92-1.27-7.79-3.75-10.83a34.67,34.67,0,0,0-9.2-7.55,31,31,0,0,1,9.65,7.18,15.52,15.52,0,0,1,4.05,11.26,17.32,17.32,0,0,1-5.5,10.67A34.76,34.76,0,0,1,1699.89,623.07Z" fill="#fff"/>
                <path d="M1720.76,634a35.67,35.67,0,0,0-1.71-9.78,42.91,42.91,0,0,0-4-9.05,57.44,57.44,0,0,0-13-14.9,72,72,0,0,0-16.86-10.41,80.18,80.18,0,0,0-19-5.74,71.85,71.85,0,0,1,19.26,5.21,70,70,0,0,1,17.11,10.37,56.48,56.48,0,0,1,13,15.19,42.55,42.55,0,0,1,3.9,9.23A36,36,0,0,1,1720.76,634Z" fill="#fff"/>
                <path d="M1721.52,619.13a31.69,31.69,0,0,0-5.73-17.22A38.72,38.72,0,0,0,1702,590.1a54.64,54.64,0,0,0-17.42-5.62,62.58,62.58,0,0,0-9.18-.76,74.91,74.91,0,0,0-9.23.38,65.88,65.88,0,0,1,18.5-.19,54.16,54.16,0,0,1,17.69,5.52,38.82,38.82,0,0,1,13.93,12.15,31.69,31.69,0,0,1,4,8.39A31.32,31.32,0,0,1,1721.52,619.13Z" fill="#fff"/>
              </g>
              <g>
                <path d="M1625.5,646.4a57.26,57.26,0,0,1,3.38-19.07,77.66,77.66,0,0,1,8.7-17.38,83.77,83.77,0,0,1,12.53-14.88,68.09,68.09,0,0,1,15.9-11.23.32.32,0,0,1,.27,0,68.34,68.34,0,0,1,15.41,11.69,86.76,86.76,0,0,1,12.08,15.13,84.39,84.39,0,0,1,8.4,17.44,61.69,61.69,0,0,1,3.51,19,.3.3,0,0,1-.17.27,78.48,78.48,0,0,1-19.63,6.34,104.82,104.82,0,0,1-20.54,1.81,100.65,100.65,0,0,1-20.48-2.22A72.67,72.67,0,0,1,1625.5,646.4Zm0,0a73.06,73.06,0,0,0,19.41,6.68,107,107,0,0,0,20.44,2,103.89,103.89,0,0,0,20.44-1.89,78.49,78.49,0,0,0,19.45-6.37l-.16.27a60.79,60.79,0,0,0-3.56-18.81A88.5,88.5,0,0,0,1681.23,596,67.64,67.64,0,0,0,1666,584.35h.27a67.66,67.66,0,0,0-15.82,11.08,83.34,83.34,0,0,0-12.53,14.75,81.43,81.43,0,0,0-8.81,17.23A56.81,56.81,0,0,0,1625.5,646.4Z" fill="#fff"/>
                <path d="M1630.92,622.44c1.35.62,2.68,1.28,4,1.85s2.76,1.08,4.18,1.51,2.81.92,4.25,1.25,2.86.74,4.32,1a91.36,91.36,0,0,0,17.61,1.75,92.39,92.39,0,0,0,17.64-1.51c1.45-.26,2.89-.61,4.34-.92s2.85-.78,4.28-1.16,2.8-.94,4.21-1.41,2.73-1.14,4.1-1.71c-1.35.62-2.68,1.29-4,1.88s-2.76,1.11-4.16,1.59-2.84.9-4.28,1.27-2.88.73-4.34,1a87.37,87.37,0,0,1-35.48-.24c-1.46-.28-2.88-.73-4.32-1.09s-2.84-.91-4.25-1.36-2.75-1.13-4.13-1.69S1632.24,623.11,1630.92,622.44Z" fill="#fff"/>
                <path d="M1650.72,654.26l0-4.53.11-4.53.28-4.53.42-4.51c.63-6,1.61-12,2.82-17.92a170.49,170.49,0,0,1,4.65-17.52,89,89,0,0,1,7.18-16.62,76,76,0,0,0-3.67,8.26l-.82,2.1-.74,2.14c-.51,1.42-1,2.85-1.4,4.3-1.77,5.75-3.26,11.6-4.47,17.5s-2.23,11.84-3,17.82l-.52,4.49-.39,4.51-.29,4.51Z" fill="#fff"/>
                <path d="M1679.38,654.51l-.2-4.49-.32-4.49-.38-4.48-.48-4.47c-.69-6-1.54-11.9-2.62-17.79s-2.29-11.77-3.76-17.58c-.37-1.45-.74-2.9-1.16-4.34s-.82-2.88-1.29-4.31c-.85-2.87-1.9-5.68-3-8.46a105.89,105.89,0,0,1,6,17c1.6,5.8,2.85,11.69,3.94,17.6s1.89,11.87,2.46,17.86L1679,641l.28,4.5.13,4.5Z" fill="#fff"/>
              </g>
            </g>
          </g>
          <g style="isolation: isolate">
            <g style="isolation: isolate">
              <g>
                <path d="M1666.86,668a41.53,41.53,0,0,0,13.15,4.55,26.51,26.51,0,0,0,7,.13,20.61,20.61,0,0,0,6.61-2,19.49,19.49,0,0,0,9.12-10,34,34,0,0,0,2.42-13.58.26.26,0,0,1,.15-.25,42.57,42.57,0,0,0,11.28-7.89,24,24,0,0,0,4.1-5.48,16.57,16.57,0,0,0,1.95-6.49,15.07,15.07,0,0,0-1-6.68,20.56,20.56,0,0,0-3.48-5.85,37.27,37.27,0,0,0-10.79-8.47l.49-.29a57.31,57.31,0,0,1-3.56,19.13,80,80,0,0,1-8.83,17.34,81.82,81.82,0,0,1-12.62,14.8A68,68,0,0,1,1666.86,668Zm0,0a67.79,67.79,0,0,0,15.76-11.26A86.45,86.45,0,0,0,1695.06,642a78.81,78.81,0,0,0,8.68-17.28,56.52,56.52,0,0,0,3.43-18.94.32.32,0,0,1,.32-.33.33.33,0,0,1,.17,0,38.31,38.31,0,0,1,11,8.57c3,3.57,5,8.28,4.58,13.06a17.29,17.29,0,0,1-2.06,6.74,24.51,24.51,0,0,1-4.24,5.61,43.05,43.05,0,0,1-11.48,8l.15-.25a34.43,34.43,0,0,1-2.53,13.78A19.37,19.37,0,0,1,1687,673a26.54,26.54,0,0,1-7-.24A41.76,41.76,0,0,1,1666.86,668Z" fill="#fff"/>
                <path d="M1700.25,665.43a39.46,39.46,0,0,0,9.62-7,21.89,21.89,0,0,0,3.51-4.74,14.4,14.4,0,0,0,1.66-5.59c.39-3.92-1.27-7.79-3.75-10.83a34.71,34.71,0,0,0-9.21-7.54,30.71,30.71,0,0,1,9.65,7.17,15.54,15.54,0,0,1,4,11.26,17.34,17.34,0,0,1-5.5,10.68A34.53,34.53,0,0,1,1700.25,665.43Z" fill="#fff"/>
                <path d="M1666.86,668a74.13,74.13,0,0,0,9.05.54,60.34,60.34,0,0,0,9-.59,51.55,51.55,0,0,0,17.13-5.32A36.33,36.33,0,0,0,1715.49,651a31.15,31.15,0,0,0,5.27-17,31.24,31.24,0,0,1-1,9,30.77,30.77,0,0,1-3.74,8.31,36.22,36.22,0,0,1-13.57,12,51,51,0,0,1-17.4,5.23A64.09,64.09,0,0,1,1666.86,668Z" fill="#fff"/>
                <path d="M1666.86,668a78.54,78.54,0,0,0,9.72-2.08,76.66,76.66,0,0,0,9.36-3.24,70.64,70.64,0,0,0,17-10.06,55.12,55.12,0,0,0,13-14.73,40.91,40.91,0,0,0,4-9,34.7,34.7,0,0,0,1.56-9.77,35,35,0,0,1-1.21,9.87,41.13,41.13,0,0,1-3.84,9.22,54.34,54.34,0,0,1-13.07,15,68.83,68.83,0,0,1-17.24,10,75.47,75.47,0,0,1-9.49,3.06A77.76,77.76,0,0,1,1666.86,668Z" fill="#fff"/>
              </g>
              <g>
                <path d="M1666.86,668a67.74,67.74,0,0,0,15.78-11.24A86.13,86.13,0,0,0,1695.08,642a79.07,79.07,0,0,0,8.69-17.28,56.58,56.58,0,0,0,3.44-18.95l.15.25a72.47,72.47,0,0,0-19.31-6.72,108.34,108.34,0,0,0-40.82-.28,77.83,77.83,0,0,0-19.48,6.29l.16-.26a60.93,60.93,0,0,0,3.48,18.83,84.27,84.27,0,0,0,8.33,17.33,89,89,0,0,0,11.9,15.12A68.53,68.53,0,0,0,1666.86,668Zm0,0a68.26,68.26,0,0,1-15.4-11.58,83.68,83.68,0,0,1-12.09-15.08,85.4,85.4,0,0,1-8.45-17.38,61.18,61.18,0,0,1-3.58-19,.27.27,0,0,1,.16-.26,78.19,78.19,0,0,1,19.6-6.42,104.48,104.48,0,0,1,41.09.28,73.29,73.29,0,0,1,19.45,6.87.32.32,0,0,1,.15.25,57.14,57.14,0,0,1-3.55,19.11,79.61,79.61,0,0,1-8.82,17.35A81.35,81.35,0,0,1,1682.8,657,67.71,67.71,0,0,1,1666.86,668Z" fill="#fff"/>
                <path d="M1702.08,629.69c-1.35-.61-2.67-1.28-4-1.84s-2.76-1.09-4.18-1.51-2.81-.92-4.25-1.25-2.86-.74-4.32-1a95.82,95.82,0,0,0-35.25-.23c-1.45.26-2.89.61-4.34.91s-2.85.78-4.28,1.16-2.8.94-4.21,1.41-2.73,1.15-4.1,1.72c1.35-.63,2.68-1.29,4-1.89s2.76-1.1,4.16-1.59,2.84-.89,4.28-1.27,2.88-.72,4.34-1a87.84,87.84,0,0,1,35.48.24c1.46.28,2.88.73,4.32,1.09s2.84.91,4.25,1.36,2.75,1.13,4.13,1.69S1700.76,629,1702.08,629.69Z" fill="#fff"/>
                <path d="M1666.86,668a76.92,76.92,0,0,0,3.67-8.26l.82-2.11.74-2.14c.51-1.41,1-2.85,1.4-4.29q2.65-8.64,4.47-17.5c1.26-5.9,2.23-11.85,3-17.83l.51-4.49.4-4.5.29-4.52.14-4.52,0,4.53-.11,4.53-.28,4.52-.41,4.52c-.64,6-1.62,12-2.83,17.91a168,168,0,0,1-4.66,17.52A88.71,88.71,0,0,1,1666.86,668Z" fill="#fff"/>
                <path d="M1666.86,668a106,106,0,0,1-6-17c-1.6-5.8-2.85-11.68-3.94-17.59s-1.89-11.88-2.46-17.86l-.38-4.49-.28-4.5-.13-4.51,0-4.5.2,4.5.32,4.48.39,4.49.47,4.47c.69,6,1.54,11.89,2.62,17.78s2.29,11.77,3.76,17.58c.37,1.45.74,2.91,1.16,4.34s.82,2.89,1.29,4.31C1664.68,662.45,1665.73,665.26,1666.86,668Z" fill="#fff"/>
              </g>
              <g>
                <path d="M1666.86,668a68.29,68.29,0,0,1-15.42-11.56,83.89,83.89,0,0,1-12.08-15.08A84.74,84.74,0,0,1,1630.9,624a61.21,61.21,0,0,1-3.6-19l.47.29a42.72,42.72,0,0,0-11.27,7.88,25.12,25.12,0,0,0-4.11,5.47,16.62,16.62,0,0,0-2,6.47c-.44,4.56,1.49,9.07,4.41,12.56a37.52,37.52,0,0,0,10.8,8.48.27.27,0,0,1,.15.24,32.38,32.38,0,0,0,3,14,22.18,22.18,0,0,0,4.14,5.88,20.83,20.83,0,0,0,5.9,4.1,26,26,0,0,0,14.18,1.92A44.59,44.59,0,0,0,1666.86,668Zm0,0a44.67,44.67,0,0,1-13.82,4.51,25.78,25.78,0,0,1-14.38-1.78,21.25,21.25,0,0,1-6-4.15,22.44,22.44,0,0,1-4.26-6,32.89,32.89,0,0,1-3.13-14.24l.14.24a38,38,0,0,1-11-8.57,20.93,20.93,0,0,1-3.61-6,15.67,15.67,0,0,1-1-7,17.27,17.27,0,0,1,2-6.76,24.34,24.34,0,0,1,4.24-5.63,43.31,43.31,0,0,1,11.5-7.95.33.33,0,0,1,.44.14.4.4,0,0,1,0,.15,60.56,60.56,0,0,0,3.47,18.82,84.71,84.71,0,0,0,8.31,17.33,89.13,89.13,0,0,0,11.91,15.11A68.21,68.21,0,0,0,1666.86,668Z" fill="#fff"/>
                <path d="M1633.11,629.07a39.46,39.46,0,0,0-9.62,7,21.89,21.89,0,0,0-3.51,4.74,14.39,14.39,0,0,0-1.65,5.59c-.4,3.92,1.27,7.79,3.75,10.83a34.82,34.82,0,0,0,9.2,7.54,30.94,30.94,0,0,1-9.64-7.17,15.5,15.5,0,0,1-4.06-11.26,17.34,17.34,0,0,1,5.5-10.68A34.53,34.53,0,0,1,1633.11,629.07Z" fill="#fff"/>
                <path d="M1666.86,668a72.36,72.36,0,0,1-19.26-5.22,70.29,70.29,0,0,1-17.11-10.36,56.48,56.48,0,0,1-13-15.19,42.76,42.76,0,0,1-3.9-9.23,36,36,0,0,1-1.36-9.89,35.6,35.6,0,0,0,1.71,9.78,42.69,42.69,0,0,0,4,9.05,57.63,57.63,0,0,0,13,14.9,71.39,71.39,0,0,0,16.86,10.41,74.5,74.5,0,0,0,9.33,3.46A76.37,76.37,0,0,0,1666.86,668Z" fill="#fff"/>
                <path d="M1666.86,668a66.19,66.19,0,0,1-18.49.18,53.78,53.78,0,0,1-17.69-5.52,38.77,38.77,0,0,1-13.94-12.15,31.69,31.69,0,0,1-4-8.39,31.32,31.32,0,0,1-1.27-9.16,31.7,31.7,0,0,0,5.74,17.22A38.63,38.63,0,0,0,1631,662a54.87,54.87,0,0,0,17.42,5.61,62.59,62.59,0,0,0,9.18.77A76.93,76.93,0,0,0,1666.86,668Z" fill="#fff"/>
              </g>
              <g>
                <path d="M1666.86,668a44.91,44.91,0,0,1-13.83,4.51,25.85,25.85,0,0,1-14.37-1.78,21.08,21.08,0,0,1-6-4.16,22.85,22.85,0,0,1-4.26-6,33,33,0,0,1-3.13-14.24.28.28,0,0,1,.27-.28.22.22,0,0,1,.13,0,73,73,0,0,0,19.32,6.71,108.34,108.34,0,0,0,40.82.28,78,78,0,0,0,19.49-6.27.25.25,0,0,1,.35.11.27.27,0,0,1,0,.12,34.6,34.6,0,0,1-2.52,13.78A19.32,19.32,0,0,1,1687,673a26.54,26.54,0,0,1-7-.23A41.76,41.76,0,0,1,1666.86,668Zm0,0a41.45,41.45,0,0,0,13.15,4.55,26.09,26.09,0,0,0,7,.13,20.54,20.54,0,0,0,6.61-2,19.41,19.41,0,0,0,9.12-10,34,34,0,0,0,2.42-13.58l.39.23a78.48,78.48,0,0,1-19.6,6.43,104.17,104.17,0,0,1-41.08-.27,73.42,73.42,0,0,1-19.45-6.88l.4-.24a32.6,32.6,0,0,0,3,14,22.4,22.4,0,0,0,4.15,5.87,20.49,20.49,0,0,0,5.9,4.1,26,26,0,0,0,14.18,1.92A44.59,44.59,0,0,0,1666.86,668Z" fill="#fff"/>
                <path d="M1631.28,664.81c1.35.61,2.68,1.28,4,1.84s2.75,1.09,4.17,1.51,2.81.92,4.25,1.25,2.87.74,4.33,1a96.34,96.34,0,0,0,35.24.23c1.46-.26,2.89-.61,4.34-.91s2.85-.78,4.28-1.16,2.8-.95,4.21-1.41,2.73-1.15,4.1-1.72c-1.34.63-2.67,1.29-4,1.89s-2.76,1.1-4.17,1.58-2.83.9-4.27,1.28-2.89.72-4.35,1A87.79,87.79,0,0,1,1648,671c-1.46-.28-2.89-.73-4.33-1.09s-2.83-.91-4.25-1.36-2.75-1.13-4.12-1.69S1632.61,665.48,1631.28,664.81Z" fill="#fff"/>
                <path d="M1666.86,668c-1.45,2.78-3.07,5.6-5.63,7.63a5.81,5.81,0,0,1-2.19,1.14,3.93,3.93,0,0,1-2.53-.16,5.19,5.19,0,0,1-2-1.56,10.78,10.78,0,0,1-1.3-2.08,31.28,31.28,0,0,1-2.25-9.27,68.3,68.3,0,0,1-.28-9.48c.19,3.15.42,6.3.86,9.41a32.5,32.5,0,0,0,2.35,9,10.13,10.13,0,0,0,1.18,1.95,4.43,4.43,0,0,0,1.67,1.38,4.19,4.19,0,0,0,4.11-.81,15.74,15.74,0,0,0,3.28-3.29A45.39,45.39,0,0,0,1666.86,668Z" fill="#fff"/>
                <path d="M1666.86,668c.7,1.32,1.39,2.64,2.2,3.88a15.29,15.29,0,0,0,2.72,3.44,4.33,4.33,0,0,0,1.78,1,2,2,0,0,0,1.77-.52,5.12,5.12,0,0,0,1.2-1.7,13.74,13.74,0,0,0,.78-2,44.57,44.57,0,0,0,1.51-8.72c.29-3,.42-5.93.56-8.92a78.77,78.77,0,0,1,0,9A45,45,0,0,1,1679,668a30.75,30.75,0,0,1-.93,4.42,13.91,13.91,0,0,1-.85,2.13,5.71,5.71,0,0,1-1.4,1.9,2.63,2.63,0,0,1-2.36.63,4.53,4.53,0,0,1-2-1.25C1669.22,673.58,1668,670.78,1666.86,668Z" fill="#fff"/>
              </g>
              <g>
                <path d="M1705.38,647.12a60.84,60.84,0,0,0-3.68-18.86,87.48,87.48,0,0,0-20.43-32.3A67.87,67.87,0,0,0,1666,584.38a.33.33,0,0,1-.13-.44.38.38,0,0,1,.14-.14,45.3,45.3,0,0,1,13.94-4.47,26,26,0,0,1,14.47,1.9,21.4,21.4,0,0,1,6.06,4.21,22.88,22.88,0,0,1,4.25,6,33,33,0,0,1,3.06,14.27l-.14-.24a38,38,0,0,1,11,8.61,20.78,20.78,0,0,1,3.56,6,15.53,15.53,0,0,1,1,6.92,16.74,16.74,0,0,1-2.06,6.68,24.34,24.34,0,0,1-4.24,5.54A42.52,42.52,0,0,1,1705.38,647.12Zm0,0a42.63,42.63,0,0,0,11.3-8,24.67,24.67,0,0,0,4.11-5.54,17.29,17.29,0,0,0,2-6.56c.42-4.62-1.56-9.14-4.51-12.63a37.4,37.4,0,0,0-10.86-8.43.27.27,0,0,1-.14-.24,32.54,32.54,0,0,0-3.08-14,21.84,21.84,0,0,0-4.16-5.83,20.34,20.34,0,0,0-5.88-4,25.86,25.86,0,0,0-14.08-1.81,44.37,44.37,0,0,0-13.75,4.34v-.58a68,68,0,0,1,15.37,11.76,86.91,86.91,0,0,1,12,15.17,82.32,82.32,0,0,1,8.33,17.43A61.29,61.29,0,0,1,1705.38,647.12Z" fill="#fff"/>
                <path d="M1699.89,623.07a39.72,39.72,0,0,0,9.62-7,22,22,0,0,0,3.51-4.75,14.29,14.29,0,0,0,1.65-5.58c.4-3.92-1.27-7.79-3.75-10.83a34.67,34.67,0,0,0-9.2-7.55,31,31,0,0,1,9.65,7.18,15.52,15.52,0,0,1,4.05,11.26,17.32,17.32,0,0,1-5.5,10.67A34.76,34.76,0,0,1,1699.89,623.07Z" fill="#fff"/>
                <path d="M1685.81,600.45a24.89,24.89,0,0,0,5.52-4.21,10,10,0,0,0,3-6,8.72,8.72,0,0,0-2.14-6.23,21.78,21.78,0,0,0-5.27-4.5,17.58,17.58,0,0,1,5.71,4.14,9,9,0,0,1,2.44,6.65,10.32,10.32,0,0,1-3.29,6.3A19.88,19.88,0,0,1,1685.81,600.45Z" fill="#fff"/>
                <path d="M1720.76,634a35.67,35.67,0,0,0-1.71-9.78,42.91,42.91,0,0,0-4-9.05,57.44,57.44,0,0,0-13-14.9,72,72,0,0,0-16.86-10.41,80.18,80.18,0,0,0-19-5.74,71.85,71.85,0,0,1,19.26,5.21,70,70,0,0,1,17.11,10.37,56.48,56.48,0,0,1,13,15.19,42.55,42.55,0,0,1,3.9,9.23A36,36,0,0,1,1720.76,634Z" fill="#fff"/>
                <path d="M1721.52,619.13a31.69,31.69,0,0,0-5.73-17.22A38.72,38.72,0,0,0,1702,590.1a54.64,54.64,0,0,0-17.42-5.62,62.58,62.58,0,0,0-9.18-.76,74.91,74.91,0,0,0-9.23.38,65.88,65.88,0,0,1,18.5-.19,54.16,54.16,0,0,1,17.69,5.52,38.82,38.82,0,0,1,13.93,12.15,31.69,31.69,0,0,1,4,8.39A31.32,31.32,0,0,1,1721.52,619.13Z" fill="#fff"/>
              </g>
              <g>
                <path d="M1707.5,605.73a32.73,32.73,0,0,0-3.17-14.09,22.22,22.22,0,0,0-4.22-5.85,21.42,21.42,0,0,0-5.94-4.07,25.87,25.87,0,0,0-14.16-1.8,44.62,44.62,0,0,0-13.75,4.42.31.31,0,0,1-.25,0,41.08,41.08,0,0,0-13-4.6,26.15,26.15,0,0,0-6.9-.16,19.85,19.85,0,0,0-6.57,1.94,19.39,19.39,0,0,0-9.06,10A34.14,34.14,0,0,0,1628,605l-.48-.3a78.45,78.45,0,0,1,19.63-6.33,104.16,104.16,0,0,1,20.55-1.81,101.45,101.45,0,0,1,20.49,2.21A73,73,0,0,1,1707.5,605.73Zm0,0a73.34,73.34,0,0,0-19.41-6.65,106.3,106.3,0,0,0-20.44-2.05,104.49,104.49,0,0,0-20.43,1.9,78.1,78.1,0,0,0-19.45,6.38.35.35,0,0,1-.45-.15.4.4,0,0,1,0-.15,34.5,34.5,0,0,1,2.46-13.83,20,20,0,0,1,9.44-10.28,20.77,20.77,0,0,1,6.8-2,26.5,26.5,0,0,1,7.06.21,41.5,41.5,0,0,1,13.22,4.72H1666a44.91,44.91,0,0,1,13.93-4.39,26.28,26.28,0,0,1,14.39,1.9,20.75,20.75,0,0,1,6,4.2,22.4,22.4,0,0,1,4.19,6A32.91,32.91,0,0,1,1707.5,605.73Z" fill="#fff"/>
                <path d="M1701.72,587.32c-1.35-.61-2.68-1.28-4-1.84s-2.75-1.08-4.17-1.51-2.81-.92-4.25-1.25-2.87-.74-4.32-1a96.11,96.11,0,0,0-35.25-.24c-1.46.26-2.89.61-4.34.91s-2.85.79-4.28,1.17-2.8.94-4.21,1.4-2.73,1.15-4.1,1.72c1.34-.62,2.67-1.29,4-1.89s2.76-1.1,4.17-1.58,2.83-.9,4.27-1.28,2.89-.72,4.35-1a87.79,87.79,0,0,1,35.47.24c1.46.28,2.89.74,4.33,1.1s2.83.91,4.25,1.36,2.75,1.13,4.13,1.68S1700.4,586.66,1701.72,587.32Z" fill="#fff"/>
                <path d="M1686.88,579.56a41.22,41.22,0,0,0-9.84-3.15,55.31,55.31,0,0,0-10.27-1,53.81,53.81,0,0,0-10.29.85,43.69,43.69,0,0,0-9.91,2.92,35.77,35.77,0,0,1,9.81-3.49,50.37,50.37,0,0,1,10.39-1,51.14,51.14,0,0,1,10.39,1.17A34,34,0,0,1,1686.88,579.56Z" fill="#fff"/>
                <path d="M1682.28,597.88c-.19-3.16-.42-6.3-.86-9.41a32.48,32.48,0,0,0-2.35-9,10,10,0,0,0-1.18-1.94,4.46,4.46,0,0,0-1.67-1.39,4.19,4.19,0,0,0-4.11.82,15.5,15.5,0,0,0-3.28,3.29,43.86,43.86,0,0,0-2.69,3.88c1.45-2.79,3.07-5.61,5.63-7.64a5.79,5.79,0,0,1,2.19-1.13,3.87,3.87,0,0,1,2.53.15,5.12,5.12,0,0,1,2,1.57,10.42,10.42,0,0,1,1.3,2.07,31,31,0,0,1,2.24,9.28A66.7,66.7,0,0,1,1682.28,597.88Z" fill="#fff"/>
                <path d="M1653.62,597.62a81.15,81.15,0,0,1,0-9,44.51,44.51,0,0,1,.45-4.47,30.88,30.88,0,0,1,.93-4.43,14.33,14.33,0,0,1,.85-2.13,5.71,5.71,0,0,1,1.4-1.9,2.62,2.62,0,0,1,2.36-.62,4.46,4.46,0,0,1,2,1.24,23.34,23.34,0,0,1,4.53,7.75c-.7-1.32-1.39-2.64-2.2-3.89a15.52,15.52,0,0,0-2.72-3.43,4.22,4.22,0,0,0-1.78-1,2,2,0,0,0-1.77.51,5.12,5.12,0,0,0-1.2,1.7,15.48,15.48,0,0,0-.78,2,44.69,44.69,0,0,0-1.51,8.72C1653.89,591.66,1653.75,594.64,1653.62,597.62Z" fill="#fff"/>
              </g>
              <g>
                <path d="M1627.62,605a34.64,34.64,0,0,1,2.37-13.73,19.64,19.64,0,0,1,9.26-10.24,20.47,20.47,0,0,1,6.75-2,26.76,26.76,0,0,1,7,.17,41.5,41.5,0,0,1,13.23,4.65.27.27,0,0,1,.11.36.28.28,0,0,1-.12.12,67.64,67.64,0,0,0-15.76,11.14,83.39,83.39,0,0,0-12.44,14.79,78.81,78.81,0,0,0-8.76,17.21,56.71,56.71,0,0,0-3.53,18.92h0a.27.27,0,0,1-.27.27.33.33,0,0,1-.13,0,37.88,37.88,0,0,1-11-8.61,20.87,20.87,0,0,1-3.56-6,15.59,15.59,0,0,1-1-6.93,16.65,16.65,0,0,1,2.06-6.67,24.39,24.39,0,0,1,4.24-5.55A43,43,0,0,1,1627.62,605Zm0,0a43,43,0,0,0-11.3,8,24.5,24.5,0,0,0-4.11,5.55,17.19,17.19,0,0,0-2,6.56c-.42,4.61,1.56,9.14,4.51,12.62a37.44,37.44,0,0,0,10.86,8.44l-.4.24a57.37,57.37,0,0,1,3.46-19.15,80,80,0,0,1,8.75-17.41A84.36,84.36,0,0,1,1650.06,595a68.57,68.57,0,0,1,16-11.16v.48a41.46,41.46,0,0,0-13-4.66,26.3,26.3,0,0,0-6.92-.2,19.23,19.23,0,0,0-15.86,11.9A34.33,34.33,0,0,0,1627.62,605Z" fill="#fff"/>
                <path d="M1632.75,586.7a39.46,39.46,0,0,0-9.62,7,22,22,0,0,0-3.51,4.75,14.31,14.31,0,0,0-1.66,5.58c-.39,3.92,1.27,7.79,3.75,10.83a34.33,34.33,0,0,0,9.21,7.54,30.56,30.56,0,0,1-9.65-7.17,15.52,15.52,0,0,1-4-11.26,17.29,17.29,0,0,1,5.5-10.67A34.56,34.56,0,0,1,1632.75,586.7Z" fill="#fff"/>
                <path d="M1646.57,579.2a25.5,25.5,0,0,0-5.53,4.21,10.06,10.06,0,0,0-3,6,8.7,8.7,0,0,0,2.14,6.23,21.59,21.59,0,0,0,5.27,4.5,17.48,17.48,0,0,1-5.71-4.13,9.1,9.1,0,0,1-2.45-6.66,10.35,10.35,0,0,1,3.29-6.29A19.89,19.89,0,0,1,1646.57,579.2Z" fill="#fff"/>
                <path d="M1612.24,618.15a31.17,31.17,0,0,1,1-9,30.36,30.36,0,0,1,3.75-8.31,36.05,36.05,0,0,1,13.56-12,51,51,0,0,1,17.4-5.23,63.72,63.72,0,0,1,18.14.53,72.2,72.2,0,0,0-9.05-.55,61.7,61.7,0,0,0-9,.59,51.8,51.8,0,0,0-17.13,5.33,36.22,36.22,0,0,0-13.44,11.67A31.15,31.15,0,0,0,1612.24,618.15Z" fill="#fff"/>
                <path d="M1611.48,633a35,35,0,0,1,1.21-9.87,40.62,40.62,0,0,1,3.85-9.21,54.18,54.18,0,0,1,13.06-15,68.79,68.79,0,0,1,17.24-10,75.51,75.51,0,0,1,9.49-3.07,77.74,77.74,0,0,1,9.81-1.72,76.23,76.23,0,0,0-9.71,2.08,73.55,73.55,0,0,0-9.37,3.24,70.32,70.32,0,0,0-17,10.06,54.93,54.93,0,0,0-13,14.72,40.91,40.91,0,0,0-4,9A34.76,34.76,0,0,0,1611.48,633Z" fill="#fff"/>
              </g>
              <g>
                <path d="M1625.5,646.4a57.26,57.26,0,0,1,3.38-19.07,77.66,77.66,0,0,1,8.7-17.38,83.77,83.77,0,0,1,12.53-14.88,68.09,68.09,0,0,1,15.9-11.23.32.32,0,0,1,.27,0,68.34,68.34,0,0,1,15.41,11.69,86.76,86.76,0,0,1,12.08,15.13,84.39,84.39,0,0,1,8.4,17.44,61.69,61.69,0,0,1,3.51,19,.3.3,0,0,1-.17.27,78.48,78.48,0,0,1-19.63,6.34,104.82,104.82,0,0,1-20.54,1.81,100.65,100.65,0,0,1-20.48-2.22A72.67,72.67,0,0,1,1625.5,646.4Zm0,0a73.06,73.06,0,0,0,19.41,6.68,107,107,0,0,0,20.44,2,103.89,103.89,0,0,0,20.44-1.89,78.49,78.49,0,0,0,19.45-6.37l-.16.27a60.79,60.79,0,0,0-3.56-18.81A88.5,88.5,0,0,0,1681.23,596,67.64,67.64,0,0,0,1666,584.35h.27a67.66,67.66,0,0,0-15.82,11.08,83.34,83.34,0,0,0-12.53,14.75,81.43,81.43,0,0,0-8.81,17.23A56.81,56.81,0,0,0,1625.5,646.4Z" fill="#fff"/>
                <path d="M1630.92,622.44c1.35.62,2.68,1.28,4,1.85s2.76,1.08,4.18,1.51,2.81.92,4.25,1.25,2.86.74,4.32,1a91.36,91.36,0,0,0,17.61,1.75,92.39,92.39,0,0,0,17.64-1.51c1.45-.26,2.89-.61,4.34-.92s2.85-.78,4.28-1.16,2.8-.94,4.21-1.41,2.73-1.14,4.1-1.71c-1.35.62-2.68,1.29-4,1.88s-2.76,1.11-4.16,1.59-2.84.9-4.28,1.27-2.88.73-4.34,1a87.37,87.37,0,0,1-35.48-.24c-1.46-.28-2.88-.73-4.32-1.09s-2.84-.91-4.25-1.36-2.75-1.13-4.13-1.69S1632.24,623.11,1630.92,622.44Z" fill="#fff"/>
                <path d="M1645.5,600.09a40.34,40.34,0,0,0,9.84,3.15,58.47,58.47,0,0,0,20.55.14,43.8,43.8,0,0,0,9.92-2.93,35.77,35.77,0,0,1-9.81,3.49,49.62,49.62,0,0,1-20.78-.14A33.6,33.6,0,0,1,1645.5,600.09Z" fill="#fff"/>
                <path d="M1650.72,654.26l0-4.53.11-4.53.28-4.53.42-4.51c.63-6,1.61-12,2.82-17.92a170.49,170.49,0,0,1,4.65-17.52,89,89,0,0,1,7.18-16.62,76,76,0,0,0-3.67,8.26l-.82,2.1-.74,2.14c-.51,1.42-1,2.85-1.4,4.3-1.77,5.75-3.26,11.6-4.47,17.5s-2.23,11.84-3,17.82l-.52,4.49-.39,4.51-.29,4.51Z" fill="#fff"/>
                <path d="M1679.38,654.51l-.2-4.49-.32-4.49-.38-4.48-.48-4.47c-.69-6-1.54-11.9-2.62-17.79s-2.29-11.77-3.76-17.58c-.37-1.45-.74-2.9-1.16-4.34s-.82-2.88-1.29-4.31c-.85-2.87-1.9-5.68-3-8.46a105.89,105.89,0,0,1,6,17c1.6,5.8,2.85,11.69,3.94,17.6s1.89,11.87,2.46,17.86L1679,641l.28,4.5.13,4.5Z" fill="#fff"/>
              </g>
            </g>
            <path d="M1723,625.66c0,1.19,0,2.38-.09,3.56s-.27,2.35-.42,3.53-.33,2.35-.58,3.51-.61,2.29-1,3.43a49.91,49.91,0,0,1-2.52,6.65,56.21,56.21,0,0,1-3.5,6.19,52.67,52.67,0,0,1-9.41,10.63,44.52,44.52,0,0,1-5.68,4.29,54.9,54.9,0,0,1-6.17,3.57l-.07-.14a19.51,19.51,0,0,0,8.86-9.32,27.83,27.83,0,0,0,2-6.22,38.39,38.39,0,0,0,.73-6.51l0-1.64-.09-1.64c-.07-1.09-.08-2.19-.22-3.28l-.45-3.25c-.12-1.09-.44-2.14-.65-3.22-.41-2.15-1.12-4.23-1.72-6.33-.34-1-.74-2.06-1.11-3.09l-.57-1.54c-.19-.52-.43-1-.65-1.51l-1.32-3c-.48-1-1-2-1.49-2.93-.94-2-2.14-3.82-3.22-5.72a90.44,90.44,0,0,0-7.73-10.61,71.84,71.84,0,0,0-20-16.77h0a.23.23,0,0,1-.09-.3.22.22,0,0,1,.3-.09A73.08,73.08,0,0,1,1685,599.13a91.77,91.77,0,0,1,13.44,20.1,71.54,71.54,0,0,1,7,23.13c.11,1,.13,2,.2,3l.08,1.52c0,.5,0,1,0,1.52a36.25,36.25,0,0,1-.57,6.06,25.52,25.52,0,0,1-4.65,11.21A19.18,19.18,0,0,1,1696,670a33.58,33.58,0,0,1-5.43,2.79l-2.83,1.12c-.94.37-1.92.65-2.88,1-2,.55-3.93,1-5.89,1.5a64.16,64.16,0,0,1-24.16.14,60,60,0,0,1-22.34-9.17,52.68,52.68,0,0,1-16.43-17.62,44.39,44.39,0,0,1-2.7-5.44,59,59,0,0,1-2-5.75,50.37,50.37,0,0,1-1.64-12,47.63,47.63,0,0,1,5.93-23.29,54.58,54.58,0,0,1,3.28-5.1c.6-.81,1.16-1.65,1.8-2.44s1.3-1.55,2-2.29a50,50,0,0,1,9.16-7.91,58.61,58.61,0,0,1,22.13-9.45,57.72,57.72,0,0,1,6-.91c2-.24,4-.21,6-.29a27.68,27.68,0,0,1,3,.07l3,.16c2,.29,4,.47,6,.86s3.91,1,5.87,1.47l1.46.4c.48.15,1,.33,1.43.49.95.34,1.9.67,2.83,1.06a59.69,59.69,0,0,1,10.66,5.71,52.51,52.51,0,0,1,16.36,17.54A47.31,47.31,0,0,1,1723,625.66Zm0,0a47.29,47.29,0,0,0-6.31-23.06,52.46,52.46,0,0,0-16.39-17.46,59.67,59.67,0,0,0-10.64-5.67c-.93-.39-1.88-.7-2.83-1-.47-.16-.94-.35-1.43-.49l-1.45-.4c-2-.49-3.87-1.13-5.86-1.45s-4-.55-6-.84l-3-.14a27.5,27.5,0,0,0-3-.07c-2,.08-4,.06-6,.31a59.78,59.78,0,0,0-6,.92,58.23,58.23,0,0,0-22,9.46,49.43,49.43,0,0,0-9.08,7.88c-.68.74-1.34,1.5-2,2.28s-1.19,1.62-1.78,2.43a53.89,53.89,0,0,0-3.24,5.08,47,47,0,0,0-5.82,23.09,50,50,0,0,0,1.66,11.87,58.67,58.67,0,0,0,1.95,5.69,44.26,44.26,0,0,0,2.69,5.38,52.18,52.18,0,0,0,16.31,17.39,59.32,59.32,0,0,0,22.12,9,63.41,63.41,0,0,0,23.9-.21c1.94-.5,3.9-1,5.82-1.5,1-.32,1.91-.6,2.84-1l2.8-1.1a33.15,33.15,0,0,0,5.31-2.71,18.54,18.54,0,0,0,4.27-4.07,24.92,24.92,0,0,0,4.55-10.9,36,36,0,0,0,.58-6c0-.5,0-1,0-1.5l-.08-1.49c-.06-1-.08-2-.18-3a71.19,71.19,0,0,0-6.86-22.95,91.25,91.25,0,0,0-13.31-20A72.65,72.65,0,0,0,1666,584.29l.21-.39a72.43,72.43,0,0,1,20.08,16.92,90.8,90.8,0,0,1,7.73,10.67c1.08,1.92,2.28,3.77,3.23,5.75.49,1,1,2,1.48,3l1.32,3c.21.51.45,1,.64,1.52l.57,1.55c.37,1,.77,2.05,1.11,3.1.6,2.12,1.3,4.2,1.7,6.37.21,1.08.53,2.14.65,3.23l.45,3.27c.13,1.09.13,2.19.21,3.29l.08,1.65,0,1.65a39.11,39.11,0,0,1-.74,6.55,28.18,28.18,0,0,1-2.09,6.25,19.66,19.66,0,0,1-9,9.38.07.07,0,0,1-.1,0,.08.08,0,0,1,0-.1,55.2,55.2,0,0,0,6.16-3.54,46.23,46.23,0,0,0,5.68-4.26,53.09,53.09,0,0,0,9.43-10.59,57.82,57.82,0,0,0,3.51-6.18,48.8,48.8,0,0,0,2.53-6.64c.35-1.13.73-2.25,1-3.41s.43-2.34.59-3.51.31-2.35.44-3.53S1723,626.85,1723,625.66Z" fill="#fff"/>
          </g>
        </g>
      </g>
    </g>
    <g id="Layer_6" data-name="Layer 6">
      <path d="M-79,665c65.63-98.4,230.11-116.39,328-59,118.08,69.23,76.59,211.41,186,257,91.59,38.16,156.57-46.51,303-9,68.42,17.53,141.74,58.43,137,81-7.62,36.27-204.15-35.42-501,9-61.88,9.26-203.23,34.8-356-3-27.38-6.77-65-18-93-51C-125.29,830.82-121.63,728.91-79,665Z" opacity="0.29" fill="url(#linear-gradient)"/>
      <path d="M-74.28,622.47C.78,509.94,188.89,489.37,300.83,555c135,79.17,87.6,241.78,212.72,293.92,104.74,43.64,179.06-53.19,346.52-10.3,78.25,20,162.1,66.83,156.68,92.64-8.71,41.48-233.47-40.51-573,10.29-70.77,10.59-232.43,39.8-407.14-3.43-31.31-7.75-74.31-20.61-106.36-58.33C-127.22,812.12-123,695.56-74.28,622.47Z" opacity="0.29" fill="url(#linear-gradient-2)"/>
    </g>
  </g>
</svg>
