<svg xmlns="http://www.w3.org/2000/svg" viewBox="0 0 592.25 409.08"><defs><style>.cls-1{fill:#ffffcf;}.cls-10,.cls-11,.cls-14,.cls-18,.cls-19,.cls-2,.cls-21,.cls-26,.cls-29,.cls-3,.cls-32,.cls-35,.cls-36,.cls-9{fill:none;}.cls-2{stroke:#fffaa3;}.cls-10,.cls-11,.cls-14,.cls-18,.cls-19,.cls-2,.cls-21,.cls-26,.cls-29,.cls-3,.cls-32,.cls-34,.cls-35,.cls-36,.cls-9{stroke-linecap:round;stroke-width:3px;}.cls-10,.cls-11,.cls-14,.cls-18,.cls-19,.cls-2,.cls-21,.cls-26,.cls-29,.cls-3,.cls-32,.cls-34,.cls-35,.cls-36{stroke-miterlimit:10;}.cls-3{stroke:#ffe96b;}.cls-4{fill:#ffe96b;}.cls-5{fill:#fffaa3;}.cls-6{fill:#8c8c8c;}.cls-7{fill:#6e6e6e;}.cls-34,.cls-8{fill:#b8b8b8;}.cls-14,.cls-9{stroke:#fff;}.cls-9{stroke-linejoin:round;}.cls-10{stroke:#b8b8b8;}.cls-11,.cls-34{stroke:#4a4a4a;}.cls-12{fill:#d6efff;}.cls-13{fill:#b0c9d1;}.cls-15{fill:#fff;}.cls-16{fill:#cedce0;}.cls-17{fill:#98c6e3;}.cls-18{stroke:#5a676b;}.cls-19{stroke:#b0c9d1;}.cls-20{fill:#dff0f5;}.cls-21{stroke:#a6631b;}.cls-22{fill:#c71e23;}.cls-23{fill:#d97e45;}.cls-24{fill:red;}.cls-25{fill:#ffa14a;}.cls-26{stroke:#701e21;}.cls-27{fill:#9ef244;}.cls-28{fill:#6ed429;}.cls-29{stroke:#1da61b;}.cls-30{fill:#d18e2a;}.cls-31{fill:#a6631b;}.cls-32{stroke:#823b15;}.cls-33{fill:#228ee0;}.cls-35{stroke:#1b3ea6;}.cls-36{stroke:#188716;}.cls-37{fill:#f5d018;}.cls-38{fill:#ffff4a;}</style></defs><title>Asset 1</title><g id="Layer_2" data-name="Layer 2"><g id="задание"><path class="cls-1" d="M513.56,183.49a7.34,7.34,0,0,0-7.15-5.68h-9.82a4.12,4.12,0,0,1-4.15-3.6,4,4,0,0,1,4-4.4h8.48a3.7,3.7,0,0,0,3.52-4.84l0-.07a3.74,3.74,0,0,0-3.56-2.59H453.24a7.72,7.72,0,0,1-7.82-7.27,7.51,7.51,0,0,1,7.5-7.73h36.55a7.9,7.9,0,0,0,7-11.43,219.32,219.32,0,0,0-82.94-90.07,17.29,17.29,0,0,0-8.91-2.5H371.9a4.49,4.49,0,0,1-4.54-3.94,4.37,4.37,0,0,1,4.35-4.81h8.43a2.52,2.52,0,0,0,.92-4.87,217.74,217.74,0,0,0-199.9,20.83,2.47,2.47,0,0,0,1.35,4.54h15.83a4,4,0,0,1,0,8h-27a19.94,19.94,0,0,0-13.08,4.82,220.41,220.41,0,0,0-57.87,78.7,4,4,0,0,0,3.65,5.57H108a11.07,11.07,0,0,1,11.19,10.63,10.83,10.83,0,0,1-10.83,11H99.27a11.15,11.15,0,0,0-10.83,8.54q-.78,3.3-1.47,6.63a5.14,5.14,0,0,0,5,6.17h49a4.44,4.44,0,0,1,4.49,3.9,4.33,4.33,0,0,1-4.31,4.76H91a7.36,7.36,0,0,0-7.33,6.57,218,218,0,0,0,8.78,87.76,2.38,2.38,0,0,0,2.28,1.67H506.93a2.38,2.38,0,0,0,2.28-1.67,219.39,219.39,0,0,0,4.35-114.65ZM153,204a4.41,4.41,0,1,1,4.41-4.41A4.4,4.4,0,0,1,153,204ZM358.46,34.56a4.38,4.38,0,1,1-4.37,4.38A4.38,4.38,0,0,1,358.46,34.56ZM366.12,81H317.84a6.17,6.17,0,1,1,0-12.33h48.28a6.17,6.17,0,1,1,0,12.33Zm19.72,0A6.17,6.17,0,1,1,392,74.81,6.17,6.17,0,0,1,385.84,81Zm97.83,96.83a4,4,0,1,1,4-4A4,4,0,0,1,483.67,177.81Z"/><path class="cls-1" d="M500.27,306.17H171.86a7.49,7.49,0,0,1-6.52,3.81H99.89q2.6,6.12,5.56,12a84.63,84.63,0,0,0,5.31,9.11,11.89,11.89,0,0,0,9.86,5.21h39.31a7.82,7.82,0,0,1,7.94,7.39,7.63,7.63,0,0,1-7.62,7.86h-20a2.92,2.92,0,0,0-1.45,5.46,82.94,82.94,0,0,0,40.91,10.79H421.75a83,83,0,0,0,58.11-23.71,5.15,5.15,0,0,0-3.66-8.79H444.25a3.88,3.88,0,0,1,0-7.75h43.62a8.56,8.56,0,0,0,7.61-4.61l.26-.51q2.94-5.79,5.53-11.76A4,4,0,0,0,500.27,306.17Zm-71.69,29.17a3.88,3.88,0,1,1,3.88-3.88A3.88,3.88,0,0,1,428.58,335.34Z"/><path class="cls-2" d="M421.78,23.93a5.54,5.54,0,1,1-5.54-5.54A5.53,5.53,0,0,1,421.78,23.93Z"/><path class="cls-2" d="M285.08,402a5.54,5.54,0,1,1-5.54-5.54A5.54,5.54,0,0,1,285.08,402Z"/><path class="cls-3" d="M543.5,106.68a3.67,3.67,0,1,1-3.66-3.66A3.66,3.66,0,0,1,543.5,106.68Z"/><circle class="cls-3" cx="6.37" cy="150.81" r="4.87"/><circle class="cls-3" cx="208.83" cy="379.42" r="4.87"/><rect class="cls-3" x="174.12" y="1.5" width="13.72" height="13.72" rx="0.98" ry="0.98"/><rect class="cls-3" x="388.16" y="350.52" width="9.38" height="9.38" rx="0.98" ry="0.98"/><rect class="cls-3" x="571.12" y="231.08" width="13.72" height="13.72" rx="0.98" ry="0.98"/><rect class="cls-2" x="61.16" y="334.86" width="13.71" height="13.72" rx="0.98" ry="0.98"/><rect class="cls-2" x="19.38" y="202.65" width="13.71" height="13.71" rx="0.98" ry="0.98" transform="translate(155.83 42.81) rotate(45)"/><path class="cls-4" d="M363.21,7.18a6.37,6.37,0,0,0-2.71.55A6.18,6.18,0,0,0,361.06,5c0-2.13-.86-3.86-1.93-3.86S357.2,2.89,357.2,5a6.18,6.18,0,0,0,.56,2.71,6.37,6.37,0,0,0-2.71-.55c-2.13,0-3.86.86-3.86,1.93S352.92,11,355.05,11a6.36,6.36,0,0,0,2.71-.56,6.18,6.18,0,0,0-.56,2.71c0,2.13.86,3.86,1.93,3.86s1.93-1.73,1.93-3.86a6.18,6.18,0,0,0-.56-2.71,6.36,6.36,0,0,0,2.71.56c2.13,0,3.86-.87,3.86-1.93S365.34,7.18,363.21,7.18Z"/><path class="cls-4" d="M521,330a6.34,6.34,0,0,0-2.71.55,6.15,6.15,0,0,0,.56-2.71c0-2.13-.87-3.86-1.93-3.86s-1.93,1.73-1.93,3.86a6.3,6.3,0,0,0,.55,2.71,6.29,6.29,0,0,0-2.7-.55c-2.14,0-3.86.86-3.86,1.93s1.72,1.93,3.86,1.93a6.28,6.28,0,0,0,2.7-.56A6.34,6.34,0,0,0,515,336c0,2.13.86,3.86,1.93,3.86s1.93-1.73,1.93-3.86a6.18,6.18,0,0,0-.56-2.71,6.33,6.33,0,0,0,2.71.56c2.13,0,3.86-.87,3.86-1.93S523.17,330,521,330Z"/><path class="cls-5" d="M101,45.42a4.82,4.82,0,0,0-2.07.42,4.82,4.82,0,0,0,.42-2.07c0-1.63-.66-3-1.47-3s-1.48,1.33-1.48,3a4.82,4.82,0,0,0,.42,2.07,4.82,4.82,0,0,0-2.07-.42c-1.63,0-3,.66-3,1.47s1.33,1.48,3,1.48A4.82,4.82,0,0,0,96.85,48,4.82,4.82,0,0,0,96.43,50c0,1.63.66,3,1.48,3s1.47-1.33,1.47-3A4.82,4.82,0,0,0,99,48a4.82,4.82,0,0,0,2.07.42c1.63,0,3-.66,3-1.48S102.66,45.42,101,45.42Z"/><path class="cls-5" d="M536.57,180.58a6.44,6.44,0,0,0-2.31-1.52,6.31,6.31,0,0,0,2.31-1.52c1.5-1.51,2.11-3.34,1.36-4.09s-2.59-.15-4.09,1.36a6.34,6.34,0,0,0-1.53,2.31,6.31,6.31,0,0,0-1.52-2.31c-1.5-1.51-3.34-2.12-4.09-1.36s-.14,2.58,1.36,4.09a6.31,6.31,0,0,0,2.31,1.52,6.44,6.44,0,0,0-2.31,1.52c-1.5,1.51-2.11,3.35-1.36,4.1s2.59.14,4.09-1.37a6.2,6.2,0,0,0,1.52-2.3,6.23,6.23,0,0,0,1.53,2.3c1.5,1.51,3.34,2.12,4.09,1.37S538.07,182.09,536.57,180.58Z"/><path class="cls-5" d="M369.68,334.52a6.32,6.32,0,0,0-2.3-1.52,6.2,6.2,0,0,0,2.3-1.52c1.51-1.51,2.12-3.34,1.37-4.09s-2.59-.15-4.1,1.36a6.35,6.35,0,0,0-1.52,2.31,6.23,6.23,0,0,0-1.52-2.31c-1.51-1.51-3.34-2.12-4.09-1.36s-.15,2.58,1.36,4.09a6.31,6.31,0,0,0,2.31,1.52,6.44,6.44,0,0,0-2.31,1.52c-1.51,1.51-2.12,3.34-1.36,4.1s2.58.14,4.09-1.37a6.2,6.2,0,0,0,1.52-2.3,6.32,6.32,0,0,0,1.52,2.3c1.51,1.51,3.35,2.12,4.1,1.37S371.19,336,369.68,334.52Z"/><path class="cls-5" d="M286.4,92.69a6.2,6.2,0,0,0-2.3-1.52,6.32,6.32,0,0,0,2.3-1.52c1.51-1.51,2.12-3.34,1.37-4.1s-2.59-.14-4.1,1.37a6.35,6.35,0,0,0-1.52,2.31,6.23,6.23,0,0,0-1.52-2.31c-1.51-1.51-3.34-2.12-4.09-1.37s-.15,2.59,1.36,4.1a6.35,6.35,0,0,0,2.31,1.52,6.23,6.23,0,0,0-2.31,1.52c-1.51,1.51-2.12,3.34-1.36,4.1s2.58.14,4.09-1.37a6.23,6.23,0,0,0,1.52-2.31,6.35,6.35,0,0,0,1.52,2.31c1.51,1.51,3.34,2.12,4.1,1.37S287.91,94.2,286.4,92.69Z"/><path class="cls-5" d="M248.43,352.27a6.32,6.32,0,0,0-2.3-1.52,6.2,6.2,0,0,0,2.3-1.52c1.51-1.51,2.12-3.34,1.37-4.09s-2.59-.15-4.1,1.36a6.35,6.35,0,0,0-1.52,2.31,6.23,6.23,0,0,0-1.52-2.31c-1.51-1.51-3.34-2.12-4.09-1.36s-.15,2.58,1.36,4.09a6.31,6.31,0,0,0,2.31,1.52,6.44,6.44,0,0,0-2.31,1.52c-1.51,1.51-2.12,3.34-1.36,4.1s2.58.14,4.09-1.37a6.2,6.2,0,0,0,1.52-2.3,6.32,6.32,0,0,0,1.52,2.3c1.51,1.51,3.35,2.12,4.1,1.37S249.94,353.78,248.43,352.27Z"/><path class="cls-4" d="M496.21,321.5c1.77-3.55,3.47-7.14,5.06-10.79a4,4,0,0,0-1-4.54H171.86a7.49,7.49,0,0,1-6.52,3.81H99.89q2.49,5.85,5.32,11.52Z"/><path class="cls-4" d="M464.92,128.62a45.21,45.21,0,0,1-45.14-42.71c0,.83-.07,1.66-.07,2.5a45.22,45.22,0,0,0,90.43,0c0-.84,0-1.67-.08-2.5A45.2,45.2,0,0,1,464.92,128.62Z"/><path class="cls-4" d="M522.41,232A26.43,26.43,0,0,0,496,258.38v6a12.66,12.66,0,0,0-11.86-8.26H427.69a4,4,0,1,0,0,8H430v9.41h-2.26a3.92,3.92,0,0,0-3.84,5h-2.3a15,15,0,0,0-6.1,28.69h77.76v1.31h8.67a4.4,4.4,0,0,0,1-.13,5.12,5.12,0,0,0,1.72.3h35.56a4.31,4.31,0,0,0,4.57-4.22,4.16,4.16,0,0,0-3.8-4.14,2.83,2.83,0,0,1-.34-1.21,2.46,2.46,0,0,1,.29-1.33h2a5.92,5.92,0,0,0,5.91-5.91V258.38A26.43,26.43,0,0,0,522.41,232ZM496,278.48h-3.69a12.66,12.66,0,0,0,3.69-5.27Zm8.19,20.6a2.69,2.69,0,0,1-.22.94,4.36,4.36,0,0,0-2.09-.54h-3v-2.6a5.82,5.82,0,0,0,3.07.87h2A2.37,2.37,0,0,1,504.19,299.08Z"/><path class="cls-4" d="M407.58,151.29a28.84,28.84,0,0,0-28.81-28.81H214.9a28.52,28.52,0,0,0-10.11,1.84c-.24-.64-.5-1.27-.79-1.89A23.47,23.47,0,0,0,217.85,86.8l-.54-.84-1,.18A23.47,23.47,0,0,0,197.62,114a27.7,27.7,0,0,0-11.13-5.72,19.62,19.62,0,0,0-32.06-4.18l-.67.75.43.9a19.58,19.58,0,0,0,31.61,5.45c8.7,2.33,14,8.07,16.23,14.34a28.87,28.87,0,0,0-15.8,22.87,19.75,19.75,0,0,0-3.51,7.31l-.45.1c-1,.21-1.84.45-2.69.71a23.47,23.47,0,0,0-7.47-32.58l-.85-.53-.82.58a23.47,23.47,0,0,0-.14,38.09c-5.59,6.17-5.94,15.78-6.06,27.06a23.55,23.55,0,0,0-2.47,3.29,71.13,71.13,0,0,0-6.34-12.56,23.4,23.4,0,0,0-12.67-17.54c-.65-.33-1.31-.61-2-.87q-2-2.13-4.08-4.19a74.14,74.14,0,0,1-15.9-22.51,23.46,23.46,0,0,0,9.92-36.86l-.63-.77-1,.29a23.5,23.5,0,0,0-10.1,6.1c.2-.55.41-1.1.63-1.64,5.81-14.08,20-23.31,36.39-23.85a19.56,19.56,0,0,0,15.69,8.17H172a19.6,19.6,0,0,0,16.21-8.57l.56-.83-.54-.84A19.62,19.62,0,0,0,156,75a48.39,48.39,0,0,0-6.75.7,23.48,23.48,0,0,0,.58-32.58l-.68-.74-.93.35A23.46,23.46,0,0,0,137.8,79.28a40.51,40.51,0,0,0-23.64,31.64,21.36,21.36,0,0,0-.77,2.12,23.44,23.44,0,0,0,4.06,21.47,63.89,63.89,0,0,0,4.91,9.63,58.28,58.28,0,0,0-17.31-8.82,23.48,23.48,0,0,0-30.69-23.23l-1,.31-.08,1a23.47,23.47,0,0,0,8.8,20.36l.12.09a63.32,63.32,0,0,0-7.8,1.73,19.62,19.62,0,0,0-31.1,8.26l-.34.94.74.68a19.61,19.61,0,0,0,31.48-7,56.79,56.79,0,0,1,11.09-2.08,23.47,23.47,0,0,0,10.39,2.45,23.86,23.86,0,0,0,6.41-.91c10,2.76,19.41,8.86,28.51,18.36,0,0,0,0,0,0,.94,1,1.91,2,2.92,3l.63.64a23.47,23.47,0,0,0-14.63,2.89l-.87.49.12,1a23.47,23.47,0,0,0,33.7,18.21,64.69,64.69,0,0,1,6.3,13.69A23.42,23.42,0,0,0,162,217.46c-.93,8.27-3.94,17.13-9.68,26.69H138.1A52.77,52.77,0,0,0,135.2,229a23.47,23.47,0,0,0-12.94-36.5l-1-.26-.61.79a23.62,23.62,0,0,0-4.59,10.64,30,30,0,0,0-6.24-2.9,43.82,43.82,0,0,1-16.18-10,23.42,23.42,0,0,0-4.82-5.9,29.89,29.89,0,0,1-4.37-10.22,19.55,19.55,0,0,0,8.94-15h0a19.6,19.6,0,0,0-7.45-17l-.79-.62-.87.49a19.62,19.62,0,0,0-2.84,32.35,29,29,0,0,0,2,6.39,23.46,23.46,0,0,0-28.4,6.39l-.63.78.48.88a23.48,23.48,0,0,0,18.48,12.27c.74.07,1.48.1,2.22.1A23.46,23.46,0,0,0,93,194.09a45.67,45.67,0,0,0,7.22,5.35c-.42,0-.84.05-1.26.1-8.69.93-15,6.2-16.35,13.75a17.41,17.41,0,0,0,1.12,9.88v.09h0a19.68,19.68,0,0,0,5,11.33,26.4,26.4,0,0,0-37.86,23.78v33.46a5.92,5.92,0,0,0,5.91,5.91h2a2.37,2.37,0,0,1,.29,1.33,2.83,2.83,0,0,1-.34,1.21,4.16,4.16,0,0,0-3.79,4.14,4.31,4.31,0,0,0,4.57,4.22H95a4.31,4.31,0,0,0,4.57-4.22,4.16,4.16,0,0,0-3.79-4.14,2.83,2.83,0,0,1-.34-1.21,2.37,2.37,0,0,1,.29-1.33h2a5.92,5.92,0,0,0,5.91-5.91v-4.71a64.15,64.15,0,0,0,8.15,15.94,13.59,13.59,0,0,0,11,5.58h36.76a13.57,13.57,0,0,0,11-5.58c9.47-13.08,12.85-31.19,14-44.07A13.59,13.59,0,0,0,171,244.15H155.77a74.21,74.21,0,0,0,8-19.43c.53-2.06,1-4.1,1.36-6.11a23.46,23.46,0,0,0,13.13-36.14l-.57-.82-1,.21a23.55,23.55,0,0,0-9.45,4.44c.26-14.77,1.6-24.52,15.63-27.55.16,0,.31-.09.47-.12a21.08,21.08,0,0,0,2.71,1.4V240.6a28.84,28.84,0,0,0,28.81,28.81h54.49c-1.41,4-4.55,12.79-5.78,16-1.43,3.73-4,6.22-12,6.22a10.56,10.56,0,0,0-7.36,2.57,7.94,7.94,0,0,0-2.57,5.88c0,4.26,3.41,8.58,9.93,8.58H338c6.52,0,9.93-4.32,9.93-8.58s-3.41-8.45-9.93-8.45c-8,0-10.58-2.49-12-6.22-1.23-3.2-4.37-12-5.78-16h58.54a28.84,28.84,0,0,0,28.81-28.81ZM103.21,241a19.64,19.64,0,0,0,9.29-2.34l.88-.47-.09-1A19.61,19.61,0,0,0,86.09,221a14.46,14.46,0,0,1-.58-7.18c1.17-6.29,6.29-10.53,13.72-11.32A24.54,24.54,0,0,1,115.8,207a23.41,23.41,0,0,0,16.5,22.73,49.88,49.88,0,0,1,2.8,14.4H111.33a13.57,13.57,0,0,0-9.69,4.09,26.64,26.64,0,0,0-6-8.75A19.43,19.43,0,0,0,103.21,241Z"/><path class="cls-6" d="M59.49,284.25a4.07,4.07,0,0,1,0,5.49c-4.13,0-4.07,5.41,0,5.41H95c4.07,0,4.13-5.41,0-5.41a4.07,4.07,0,0,1,0-5.49"/><path class="cls-7" d="M95,289.74a4.07,4.07,0,0,1,0-5.49H59.49a4.07,4.07,0,0,1,0,5.49Z"/><path class="cls-8" d="M77.27,221.48h0a24.9,24.9,0,0,1,24.9,24.9v33.46a4.41,4.41,0,0,1-4.41,4.41h-41a4.41,4.41,0,0,1-4.41-4.41V246.38A24.9,24.9,0,0,1,77.27,221.48Z"/><path class="cls-6" d="M95.6,229.54a24.79,24.79,0,0,1,3.57,12.84v36.1a1.77,1.77,0,0,1-1.77,1.77H53.77a4.28,4.28,0,0,1-1.39-.25,4.39,4.39,0,0,0,4.39,4.25h41a4.4,4.4,0,0,0,4.41-4.41V246.38A24.79,24.79,0,0,0,95.6,229.54Z"/><path class="cls-9" d="M56.79,242.18a20.9,20.9,0,0,1,25.68-16"/><path class="cls-9" d="M56.36,246.38c0-.26,0-.53,0-.79"/><path class="cls-9" d="M85.73,227.27c.4.18.8.37,1.18.57"/><path class="cls-6" d="M77.27,262.28a15.9,15.9,0,1,1,15.89-15.9A15.91,15.91,0,0,1,77.27,262.28Z"/><path class="cls-10" d="M71.94,248.26a5.58,5.58,0,0,1-.32-1.88,5.65,5.65,0,0,1,5.3-5.63"/><path class="cls-10" d="M81.18,242.32c.12.12.24.24.35.37"/><path class="cls-9" d="M93.92,257.24c.06-.09.12-.17.17-.26"/><path class="cls-9" d="M85.18,264.62a20,20,0,0,0,6.3-4.35"/><path class="cls-6" d="M77.27,279.54a6.25,6.25,0,1,1,6.24-6.25A6.25,6.25,0,0,1,77.27,279.54Z"/><path class="cls-7" d="M78.27,234.49a15.91,15.91,0,0,1,14.78,10.1,15.89,15.89,0,0,0-31.68,1.79,15.66,15.66,0,0,0,1.11,5.79,15,15,0,0,1-.11-1.79A15.91,15.91,0,0,1,78.27,234.49Z"/><path class="cls-7" d="M78.27,271a6.24,6.24,0,0,1,5.22,2.82c0-.19,0-.38,0-.57A6.25,6.25,0,1,0,72,276.72,6.27,6.27,0,0,1,78.27,271Z"/><path class="cls-11" d="M77.27,221.48h0a24.9,24.9,0,0,1,24.9,24.9v33.46a4.41,4.41,0,0,1-4.41,4.41h-41a4.41,4.41,0,0,1-4.41-4.41V246.38A24.9,24.9,0,0,1,77.27,221.48Z"/><path class="cls-11" d="M77.27,262.28a15.9,15.9,0,1,1,15.89-15.9A15.91,15.91,0,0,1,77.27,262.28Z"/><path class="cls-11" d="M77.27,256a9.65,9.65,0,1,1,9.64-9.65A9.66,9.66,0,0,1,77.27,256Z"/><path class="cls-11" d="M77.27,279.54a6.25,6.25,0,1,1,6.24-6.25A6.25,6.25,0,0,1,77.27,279.54Z"/><path class="cls-11" d="M59.49,284.25a4.07,4.07,0,0,1,0,5.49c-4.13,0-4.07,5.41,0,5.41H95c4.07,0,4.13-5.41,0-5.41a4.07,4.07,0,0,1,0-5.49"/><line class="cls-11" x1="87.19" y1="289.74" x2="88.56" y2="289.74"/><line class="cls-11" x1="59.49" y1="289.74" x2="81.54" y2="289.74"/><path class="cls-6" d="M504.63,284.25a4.07,4.07,0,0,1,0,5.49c-4.13,0-4.06,5.41,0,5.41h35.56c4.06,0,4.12-5.41,0-5.41a4.05,4.05,0,0,1,0-5.49"/><path class="cls-7" d="M540.19,289.74a4.05,4.05,0,0,1,0-5.49H504.63a4.07,4.07,0,0,1,0,5.49Z"/><path class="cls-8" d="M522.41,221.48h0a24.9,24.9,0,0,1,24.9,24.9v33.46a4.41,4.41,0,0,1-4.41,4.41h-41a4.41,4.41,0,0,1-4.41-4.41V246.38a24.9,24.9,0,0,1,24.9-24.9Z"/><path class="cls-6" d="M540.74,229.54a24.7,24.7,0,0,1,3.57,12.84v36.1a1.77,1.77,0,0,1-1.77,1.77H498.91a4.28,4.28,0,0,1-1.39-.25,4.4,4.4,0,0,0,4.39,4.25h41a4.4,4.4,0,0,0,4.41-4.41V246.38A24.79,24.79,0,0,0,540.74,229.54Z"/><path class="cls-9" d="M501.93,242.18a20.9,20.9,0,0,1,25.68-16"/><path class="cls-9" d="M501.5,246.38c0-.26,0-.53,0-.79"/><path class="cls-9" d="M530.87,227.27c.4.18.8.37,1.18.57"/><path class="cls-6" d="M522.41,262.28a15.9,15.9,0,1,1,15.89-15.9A15.91,15.91,0,0,1,522.41,262.28Z"/><path class="cls-10" d="M517.08,248.26a5.58,5.58,0,0,1-.32-1.88,5.66,5.66,0,0,1,5.3-5.63"/><path class="cls-10" d="M526.32,242.32a4,4,0,0,1,.35.37"/><path class="cls-9" d="M539.07,257.24l.16-.26"/><path class="cls-9" d="M530.32,264.62a20,20,0,0,0,6.3-4.35"/><path class="cls-6" d="M522.41,279.54a6.25,6.25,0,1,1,6.25-6.25A6.25,6.25,0,0,1,522.41,279.54Z"/><path class="cls-7" d="M523.41,234.49a15.9,15.9,0,0,1,14.78,10.1,15.89,15.89,0,0,0-31.68,1.79,15.66,15.66,0,0,0,1.11,5.79,15,15,0,0,1-.11-1.79A15.91,15.91,0,0,1,523.41,234.49Z"/><path class="cls-7" d="M523.41,271a6.24,6.24,0,0,1,5.22,2.82,5.44,5.44,0,0,0,0-.57,6.25,6.25,0,1,0-11.47,3.43A6.25,6.25,0,0,1,523.41,271Z"/><path class="cls-11" d="M522.41,221.48h0a24.9,24.9,0,0,1,24.9,24.9v33.46a4.41,4.41,0,0,1-4.41,4.41h-41a4.41,4.41,0,0,1-4.41-4.41V246.38a24.9,24.9,0,0,1,24.9-24.9Z"/><path class="cls-11" d="M522.41,262.28a15.9,15.9,0,1,1,15.89-15.9A15.91,15.91,0,0,1,522.41,262.28Z"/><path class="cls-11" d="M522.41,256a9.65,9.65,0,1,1,9.65-9.65A9.66,9.66,0,0,1,522.41,256Z"/><path class="cls-11" d="M522.41,279.54a6.25,6.25,0,1,1,6.25-6.25A6.25,6.25,0,0,1,522.41,279.54Z"/><path class="cls-11" d="M504.63,284.25a4.07,4.07,0,0,1,0,5.49c-4.13,0-4.06,5.41,0,5.41h35.56c4.06,0,4.12-5.41,0-5.41a4.05,4.05,0,0,1,0-5.49"/><line class="cls-11" x1="532.33" y1="289.74" x2="533.71" y2="289.74"/><line class="cls-11" x1="504.63" y1="289.74" x2="526.69" y2="289.74"/><path class="cls-12" d="M378.77,112H214.9a27.31,27.31,0,0,0-27.31,27.31V228.6H406.08V139.29A27.31,27.31,0,0,0,378.77,112Z"/><path class="cls-13" d="M406.08,139.29a27.29,27.29,0,0,0-13-23.26,27.24,27.24,0,0,1,9,20.26V228.6h4Z"/><path class="cls-14" d="M193.59,221.48V139.29A21.33,21.33,0,0,1,214.9,118H335.13"/><line class="cls-14" x1="360.04" y1="117.98" x2="362.63" y2="117.98"/><line class="cls-14" x1="342.88" y1="117.98" x2="354.63" y2="117.98"/><path class="cls-15" d="M214.9,255.91H378.77a27.31,27.31,0,0,0,27.31-27.31H187.59A27.31,27.31,0,0,0,214.9,255.91Z"/><path class="cls-16" d="M402.42,228.6a27.32,27.32,0,0,1-26.65,21.31H211.9a27.31,27.31,0,0,1-22.75-12.2,27.32,27.32,0,0,0,25.75,18.2H378.77a27.31,27.31,0,0,0,27.31-27.31Z"/><path class="cls-15" d="M271.51,255.91s-4.87,13.8-6.5,18-4.76,7.18-13.41,7.18c-11.38,0-11.11,14,0,14H338c11.11,0,11.37-14,0-14-8.65,0-11.79-2.95-13.41-7.18s-6.5-18-6.5-18"/><path class="cls-16" d="M343.43,282.57c-.26,3.35-3.09,6.58-8.41,6.58H248.6a9.45,9.45,0,0,1-5.41-1.51c-.25,3.66,2.59,7.51,8.41,7.51H338C346.92,295.15,348.85,286.15,343.43,282.57Z"/><path class="cls-16" d="M338,281.12c-8.65,0-11.79-2.95-13.41-7.18s-6.5-18-6.5-18h-46.6s-4.87,13.8-6.5,18-13.41,7.18-13.41,7.18Z"/><path class="cls-17" d="M202.61,153a19.6,19.6,0,0,0,11.46-14.56l.17-1-.84-.54A19.7,19.7,0,0,0,206,134a24.35,24.35,0,0,0,1.37-7.95A25.17,25.17,0,0,0,205,115.43a23.54,23.54,0,0,0,7.41-3.33,27.13,27.13,0,0,0-10.79,3.33,22.06,22.06,0,0,1,2.76,10.62,21.69,21.69,0,0,1-1.45,7.69A19.57,19.57,0,0,0,187.59,141v12.27a19.41,19.41,0,0,0,15-.27Z"/><polygon class="cls-15" points="241.69 117.98 193.59 166.08 193.59 192.08 267.69 117.98 241.69 117.98"/><polygon class="cls-15" points="396.08 137.92 311.41 222.6 327.74 222.6 396.08 154.25 396.08 137.92"/><polygon class="cls-15" points="281.69 117.98 193.59 206.08 193.59 214.75 290.36 117.98 281.69 117.98"/><rect class="cls-18" x="187.59" y="111.98" width="218.5" height="143.93" rx="27.31" ry="27.31"/><line class="cls-18" x1="388.75" y1="228.6" x2="406.08" y2="228.6"/><line class="cls-18" x1="379.63" y1="228.6" x2="383.13" y2="228.6"/><line class="cls-18" x1="187.59" y1="228.6" x2="375" y2="228.6"/><path class="cls-18" d="M271.51,255.91s-4.87,13.8-6.5,18-4.76,7.18-13.41,7.18c-11.38,0-11.11,14,0,14H338c11.11,0,11.37-14,0-14-8.65,0-11.79-2.95-13.41-7.18s-6.5-18-6.5-18"/><line class="cls-18" x1="251.6" y1="281.12" x2="276.66" y2="281.12"/><line class="cls-18" x1="290.46" y1="281.12" x2="303" y2="281.12"/><line class="cls-18" x1="308.59" y1="281.12" x2="310.19" y2="281.12"/><path class="cls-16" d="M291.76,245.07a5.86,5.86,0,0,1,11.7-.41,7.05,7.05,0,1,0-11.06,3.08A5.84,5.84,0,0,1,291.76,245.07Z"/><circle class="cls-18" cx="296.84" cy="242.26" r="7.05"/><path class="cls-15" d="M464.92,128.62a45.21,45.21,0,1,1,45.22-45.21A45.21,45.21,0,0,1,464.92,128.62Z"/><path class="cls-19" d="M492.28,47.41a45.22,45.22,0,1,1-27.36-9.21,45.15,45.15,0,0,1,27.36,9.21"/><circle class="cls-13" cx="430.39" cy="83.41" r="3.22"/><circle class="cls-13" cx="464.92" cy="117.94" r="3.22"/><path class="cls-13" d="M496.23,83.41a3.22,3.22,0,1,1,3.22,3.22A3.22,3.22,0,0,1,496.23,83.41Z"/><circle class="cls-13" cx="464.92" cy="48.88" r="3.22"/><path class="cls-20" d="M437,99.55a2.25,2.25,0,1,1-3.08-.83A2.26,2.26,0,0,1,437,99.55Z"/><path class="cls-20" d="M448.78,111.36a2.26,2.26,0,1,1-3.08.83A2.26,2.26,0,0,1,448.78,111.36Z"/><path class="cls-20" d="M481.06,111.36a2.26,2.26,0,1,1-.82,3.08A2.26,2.26,0,0,1,481.06,111.36Z"/><path class="cls-20" d="M492.87,99.55a2.26,2.26,0,1,1,.83,3.08A2.26,2.26,0,0,1,492.87,99.55Z"/><path class="cls-20" d="M492.87,67.27a2.26,2.26,0,1,1,3.08.83A2.26,2.26,0,0,1,492.87,67.27Z"/><path class="cls-20" d="M481.06,55.46a2.26,2.26,0,1,1,3.08-.83A2.24,2.24,0,0,1,481.06,55.46Z"/><path class="cls-20" d="M448.78,55.46a2.26,2.26,0,1,1,.83-3.08A2.26,2.26,0,0,1,448.78,55.46Z"/><path class="cls-20" d="M437,67.27a2.25,2.25,0,1,1-.83-3.08A2.26,2.26,0,0,1,437,67.27Z"/><rect class="cls-13" x="459.75" y="69.54" width="3.59" height="22.33" transform="translate(110.13 390.61) rotate(-51.33)"/><rect class="cls-13" x="472.96" y="67.6" width="1.87" height="31.61" transform="translate(557.3 -390.48) rotate(90)"/><circle class="cls-13" cx="464.92" cy="83.41" r="3.22"/><path class="cls-15" d="M376.62,275.65h0c-9.7,0-17.56,5.88-17.56,13.15v2.75a3.6,3.6,0,0,0,3.6,3.6h27.92a3.6,3.6,0,0,0,3.6-3.6V288.8C394.18,281.53,386.32,275.65,376.62,275.65Z"/><path class="cls-16" d="M387.63,278.56c4.15,6.09.5,12.19-9.55,12.19-9.76,0-20.83.42-18-6.29a10.15,10.15,0,0,0-1,4.34v2.74a3.61,3.61,0,0,0,3.6,3.61h27.92a3.61,3.61,0,0,0,3.6-3.61V288.8C394.18,284.66,391.62,281,387.63,278.56Z"/><path class="cls-18" d="M376.62,275.65h0c-9.7,0-17.56,5.88-17.56,13.15v2.75a3.6,3.6,0,0,0,3.6,3.6h27.92a3.6,3.6,0,0,0,3.6-3.6V288.8C394.18,281.53,386.32,275.65,376.62,275.65Z"/><path class="cls-21" d="M153.14,233.65c23.47-38.27,4.34-65.49-17.49-87.32-39.51-39.5-15.43-81.73,21.74-81.85"/><path class="cls-21" d="M136.65,233.65c-.14-22.58-17.24-46.8-37.58-44.62-18.46,2-20.56,23.38-4.35,31.66"/><path class="cls-22" d="M139.18,233.65H171a12.09,12.09,0,0,1,12,13.21c-1.21,13.25-4.63,30.73-13.74,43.33a12,12,0,0,1-9.77,5H122.8a12,12,0,0,1-9.76-5c-9.12-12.6-12.54-30.08-13.75-43.33a12.09,12.09,0,0,1,12-13.21Z"/><path class="cls-23" d="M99.29,246.86a12.07,12.07,0,0,1,.51-4.71h82.76a12.07,12.07,0,0,1,.51,4.71c-1.1,12.05-4,27.59-11.42,39.79H110.71C103.33,274.45,100.39,258.91,99.29,246.86Z"/><path class="cls-24" d="M136.56,233.65h23.31c5.21,0,9.28,6.12,8.8,13.21-.88,13.25-3.38,30.73-10,43.33-1.66,3.13-4.33,5-7.15,5h-26.9c-2.82,0-5.49-1.83-7.14-5-6.67-12.6-9.17-30.08-10.06-43.33-.47-7.09,3.6-13.21,8.81-13.21Z"/><path class="cls-25" d="M107.37,246.86c.81,12.05,3,27.59,8.36,39.79h44.59c5.39-12.2,7.55-27.74,8.35-39.79a16.16,16.16,0,0,0-.37-4.71H107.74A16.51,16.51,0,0,0,107.37,246.86Z"/><path class="cls-26" d="M139.18,233.65H171a12.09,12.09,0,0,1,12,13.21c-1.21,13.25-4.63,30.73-13.74,43.33a12,12,0,0,1-9.77,5H122.8a12,12,0,0,1-9.76-5c-9.12-12.6-12.54-30.08-13.75-43.33a12.09,12.09,0,0,1,12-13.21Z"/><line class="cls-26" x1="147.01" y1="242.15" x2="100.42" y2="242.15"/><line class="cls-26" x1="168.88" y1="242.15" x2="164.29" y2="242.15"/><line class="cls-26" x1="157.56" y1="242.15" x2="155.81" y2="242.15"/><line class="cls-26" x1="171.53" y1="286.65" x2="110.78" y2="286.65"/><line class="cls-9" x1="135.38" y1="291.15" x2="126.29" y2="291.15"/><line class="cls-9" x1="142.63" y1="291.15" x2="140.88" y2="291.15"/><line class="cls-9" x1="149.25" y1="237.65" x2="149.63" y2="237.65"/><line class="cls-9" x1="119.29" y1="237.65" x2="122.38" y2="237.65"/><line class="cls-9" x1="127.04" y1="237.65" x2="141.38" y2="237.65"/><path class="cls-21" d="M162.17,213c9.11-34.08-5.76-62.07,20.42-67.74C213,138.71,210.86,103.2,185,97.42"/><path class="cls-21" d="M132.72,143.27c-19-19.86-38.71-24.34-59.61-17.72"/><path class="cls-27" d="M171.65,87.28a18.1,18.1,0,0,1,13.76,10.18,18.11,18.11,0,0,1-29.86-4.36A18.06,18.06,0,0,1,171.65,87.28Z"/><path class="cls-28" d="M185.41,97.46a18.11,18.11,0,0,1-29.86-4.36Z"/><path class="cls-29" d="M171.65,87.28a18.1,18.1,0,0,1,13.76,10.18,18.11,18.11,0,0,1-29.86-4.36A18.06,18.06,0,0,1,171.65,87.28Z"/><line class="cls-29" x1="185.41" y1="97.46" x2="164.06" y2="94.34"/><ellipse class="cls-27" cx="209.41" cy="92.45" rx="18.3" ry="9.81" transform="translate(42.18 248.77) rotate(-66.89)"/><path class="cls-28" d="M218.44,96.3a22,22,0,0,1-16.21,13L216.6,75.62A22,22,0,0,1,218.44,96.3Z"/><ellipse class="cls-29" cx="209.41" cy="92.45" rx="18.3" ry="9.81" transform="translate(42.18 248.77) rotate(-66.89)"/><line class="cls-29" x1="202.23" y1="109.28" x2="212.5" y2="85.21"/><ellipse class="cls-27" cx="170.39" cy="188.38" rx="18.3" ry="9.81" transform="translate(-67.06 278.57) rotate(-68.67)"/><path class="cls-28" d="M179.53,192a22,22,0,0,1-15.8,13.48l13.32-34.1A22,22,0,0,1,179.53,192Z"/><ellipse class="cls-29" cx="170.39" cy="188.38" rx="18.3" ry="9.81" transform="translate(-67.06 278.57) rotate(-68.67)"/><line class="cls-29" x1="163.73" y1="205.43" x2="173.25" y2="181.05"/><ellipse class="cls-27" cx="137.68" cy="160.43" rx="9.81" ry="18.3" transform="translate(-67.48 211.47) rotate(-63.33)"/><path class="cls-28" d="M154,168.65a22,22,0,0,1-32.71-16.43Z"/><ellipse class="cls-29" cx="137.68" cy="160.43" rx="9.81" ry="18.3" transform="translate(-67.48 211.47) rotate(-63.33)"/><line class="cls-29" x1="154.04" y1="168.65" x2="130.65" y2="156.9"/><path class="cls-27" d="M181.74,131.17a22,22,0,0,1-9.18,18.63,22,22,0,0,1-1.24-36.59A22,22,0,0,1,181.74,131.17Z"/><path class="cls-28" d="M181.74,131.17a22,22,0,0,1-9.18,18.63l-1.24-36.59A22,22,0,0,1,181.74,131.17Z"/><path class="cls-29" d="M181.74,131.17a22,22,0,0,1-9.18,18.63,22,22,0,0,1-1.24-36.59A22,22,0,0,1,181.74,131.17Z"/><line class="cls-29" x1="171.74" y1="125.67" x2="171.67" y2="123.64"/><line class="cls-29" x1="172.56" y1="149.8" x2="171.88" y2="129.91"/><ellipse class="cls-27" cx="89.16" cy="112.9" rx="9.81" ry="18.3" transform="translate(-54.7 112.57) rotate(-51.57)"/><path class="cls-28" d="M103.5,124.27a22,22,0,0,1-28.68-22.75Z"/><ellipse class="cls-29" cx="89.16" cy="112.9" rx="9.81" ry="18.3" transform="translate(-54.7 112.57) rotate(-51.57)"/><line class="cls-29" x1="83.86" y1="108.69" x2="83" y2="108.01"/><line class="cls-29" x1="103.5" y1="124.27" x2="88.62" y2="112.47"/><path class="cls-27" d="M133.59,107.23a22,22,0,0,1-14.75,14.62,22,22,0,0,1,10.73-35A22,22,0,0,1,133.59,107.23Z"/><path class="cls-28" d="M133.59,107.23a22,22,0,0,1-14.75,14.62l10.73-35A22,22,0,0,1,133.59,107.23Z"/><path class="cls-29" d="M133.59,107.23a22,22,0,0,1-14.75,14.62,22,22,0,0,1,10.73-35A22,22,0,0,1,133.59,107.23Z"/><line class="cls-29" x1="118.84" y1="121.85" x2="126.51" y2="96.83"/><path class="cls-27" d="M154,52.23a21.91,21.91,0,0,1-13.8,15.51,22,22,0,0,1,8.52-35.59A21.92,21.92,0,0,1,154,52.23Z"/><path class="cls-28" d="M154,52.23a21.91,21.91,0,0,1-13.8,15.51l8.52-35.59A21.92,21.92,0,0,1,154,52.23Z"/><path class="cls-29" d="M154,52.23a21.91,21.91,0,0,1-13.8,15.51,22,22,0,0,1,8.52-35.59A21.92,21.92,0,0,1,154,52.23Z"/><line class="cls-29" x1="145.54" y1="45.29" x2="146.25" y2="42.29"/><line class="cls-29" x1="140.16" y1="67.74" x2="143.96" y2="51.89"/><path class="cls-27" d="M171.77,72.7a18.1,18.1,0,0,1-15-8.26,18.12,18.12,0,0,1,30.18.34A18.09,18.09,0,0,1,171.77,72.7Z"/><path class="cls-28" d="M171.77,72.7a18.1,18.1,0,0,1-15-8.26l30.18.34A18.09,18.09,0,0,1,171.77,72.7Z"/><path class="cls-29" d="M171.77,72.7a18.1,18.1,0,0,1-15-8.26,18.12,18.12,0,0,1,30.18.34A18.09,18.09,0,0,1,171.77,72.7Z"/><line class="cls-29" x1="156.77" y1="64.44" x2="178.35" y2="64.68"/><ellipse class="cls-27" cx="197.77" cy="139.17" rx="15.09" ry="8.09" transform="translate(-39.19 90.87) rotate(-23.61)"/><path class="cls-28" d="M201,146.58a18.11,18.11,0,0,1-17.07-1.37l27.65-12.09A18.09,18.09,0,0,1,201,146.58Z"/><ellipse class="cls-29" cx="197.77" cy="139.17" rx="15.09" ry="8.09" transform="translate(-39.19 90.87) rotate(-23.61)"/><line class="cls-29" x1="199.77" y1="138.29" x2="203.71" y2="136.57"/><line class="cls-29" x1="183.94" y1="145.21" x2="195.67" y2="140.08"/><path class="cls-27" d="M57.53,121a18.12,18.12,0,0,1,16.57,4.31,18.12,18.12,0,0,1-29.34,7.1A18.13,18.13,0,0,1,57.53,121Z"/><path class="cls-28" d="M74.1,125.26a18.12,18.12,0,0,1-29.34,7.1Z"/><path class="cls-29" d="M57.53,121a18.12,18.12,0,0,1,16.57,4.31,18.12,18.12,0,0,1-29.34,7.1A18.13,18.13,0,0,1,57.53,121Z"/><line class="cls-29" x1="74.1" y1="125.26" x2="53.13" y2="130.34"/><path class="cls-21" d="M109.39,190.17C90.92,183.5,82.65,168.88,82.57,159"/><path class="cls-27" d="M91.93,147.54A18.14,18.14,0,0,1,82.68,162,18.11,18.11,0,0,1,85,131.86,18.11,18.11,0,0,1,91.93,147.54Z"/><path class="cls-28" d="M91.93,147.54A18.14,18.14,0,0,1,82.68,162L85,131.86A18.11,18.11,0,0,1,91.93,147.54Z"/><path class="cls-29" d="M91.93,147.54A18.14,18.14,0,0,1,82.68,162,18.11,18.11,0,0,1,85,131.86,18.11,18.11,0,0,1,91.93,147.54Z"/><line class="cls-29" x1="82.68" y1="161.95" x2="84.37" y2="140.44"/><path class="cls-27" d="M137,196.1a22,22,0,0,1-3.42,20.49,22,22,0,0,1-11.75-34.67A21.94,21.94,0,0,1,137,196.1Z"/><path class="cls-28" d="M137,196.1a22,22,0,0,1-3.42,20.49l-11.75-34.67A21.94,21.94,0,0,1,137,196.1Z"/><path class="cls-29" d="M137,196.1a22,22,0,0,1-3.42,20.49,22,22,0,0,1-11.75-34.67A21.94,21.94,0,0,1,137,196.1Z"/><line class="cls-29" x1="128.6" y1="201.76" x2="125.22" y2="191.8"/><line class="cls-29" x1="133.62" y1="216.59" x2="130.24" y2="206.59"/><path class="cls-27" d="M75.41,168.58a21.91,21.91,0,0,1,17.3,11.48,22,22,0,0,1-36.44-3.43A21.94,21.94,0,0,1,75.41,168.58Z"/><path class="cls-28" d="M92.71,180.06a22,22,0,0,1-36.44-3.43Z"/><path class="cls-29" d="M75.41,168.58a21.91,21.91,0,0,1,17.3,11.48,22,22,0,0,1-36.44-3.43A21.94,21.94,0,0,1,75.41,168.58Z"/><line class="cls-29" x1="68.85" y1="177.81" x2="66.66" y2="177.61"/><line class="cls-29" x1="92.71" y1="180.06" x2="74.1" y2="178.31"/><path class="cls-27" d="M94.67,225.36a18.1,18.1,0,0,1-9.49-14.25,18.12,18.12,0,0,1,26.61,14.24A18.12,18.12,0,0,1,94.67,225.36Z"/><path class="cls-28" d="M94.67,225.36a18.1,18.1,0,0,1-9.49-14.25l26.61,14.24A18.12,18.12,0,0,1,94.67,225.36Z"/><path class="cls-29" d="M94.67,225.36a18.1,18.1,0,0,1-9.49-14.25,18.12,18.12,0,0,1,26.61,14.24A18.12,18.12,0,0,1,94.67,225.36Z"/><line class="cls-29" x1="85.18" y1="211.11" x2="104.21" y2="221.29"/><rect class="cls-2" x="316.64" y="43.98" width="13.72" height="13.72" rx="0.98" ry="0.98" transform="translate(130.7 -213.86) rotate(45)"/><path class="cls-4" d="M258.84,48a4.48,4.48,0,0,0-1.63-1.08,4.48,4.48,0,0,0,1.63-1.08c1.07-1.06,1.5-2.36,1-2.89s-1.83-.1-2.9,1a4.35,4.35,0,0,0-1.07,1.64,4.51,4.51,0,0,0-1.08-1.64c-1.07-1.06-2.36-1.49-2.9-1s-.1,1.83,1,2.89a4.48,4.48,0,0,0,1.63,1.08A4.48,4.48,0,0,0,252.83,48c-1.07,1.06-1.5,2.36-1,2.89s1.83.1,2.9-1a4.51,4.51,0,0,0,1.08-1.64,4.35,4.35,0,0,0,1.07,1.64c1.07,1.06,2.36,1.49,2.9,1S259.91,49,258.84,48Z"/><path class="cls-30" d="M586.5,309.65H15.17a5.75,5.75,0,0,1-5.75-5.75h0a5.74,5.74,0,0,1,5.75-5.75H586.5a5.74,5.74,0,0,1,5.75,5.75h0A5.75,5.75,0,0,1,586.5,309.65Z"/><path class="cls-31" d="M586.5,304.65H15.17A5.74,5.74,0,0,1,10,301.4a5.64,5.64,0,0,0-.58,2.5,5.75,5.75,0,0,0,5.75,5.75H586.5a5.75,5.75,0,0,0,5.75-5.75,5.64,5.64,0,0,0-.58-2.5A5.74,5.74,0,0,1,586.5,304.65Z"/><line class="cls-32" x1="575.75" y1="298.15" x2="577.88" y2="298.15"/><line class="cls-32" x1="28.84" y1="298.15" x2="570.25" y2="298.15"/><line class="cls-32" x1="75.75" y1="309.65" x2="116.86" y2="309.65"/><line class="cls-32" x1="60.26" y1="309.65" x2="68.88" y2="309.65"/><line class="cls-32" x1="127.29" y1="309.65" x2="563.95" y2="309.65"/><path class="cls-15" d="M422.65,263.18h3.75v-12.4h-3.75a2.49,2.49,0,0,1,0-5h56.44a11.17,11.17,0,1,1,0,22.34H422.65a2.49,2.49,0,0,1,0-5Z"/><path class="cls-8" d="M479.1,250.78h-52v4h53a6.22,6.22,0,0,1,5.17,2.78,5.49,5.49,0,0,0,0-.58A6.21,6.21,0,0,0,479.1,250.78Z"/><path class="cls-33" d="M422.65,263.18h56.44a6.2,6.2,0,1,0,0-12.4H422.65a2.49,2.49,0,0,1,0-5h56.44a11.17,11.17,0,1,1,0,22.34H422.65a2.49,2.49,0,0,1,0-5Z"/><line class="cls-34" x1="426.4" y1="250.78" x2="426.4" y2="263.18"/><path class="cls-35" d="M456.42,268.15H422.65a2.49,2.49,0,0,1,0-5h56.44a6.2,6.2,0,1,0,0-12.4H422.65a2.49,2.49,0,0,1,0-5h56.44a11.17,11.17,0,1,1,0,22.34Z"/><line class="cls-10" x1="445.83" y1="259.15" x2="442.26" y2="259.15"/><line class="cls-10" x1="465.69" y1="259.15" x2="450.91" y2="259.15"/><path class="cls-15" d="M501.83,289.15h-4.54v-15h4.54a3,3,0,1,0,0-6H421.5a13.5,13.5,0,0,0,0,27h80.33a3,3,0,1,0,0-6Z"/><path class="cls-8" d="M497.33,274.15H421.5a7.5,7.5,0,0,0-7.5,7.5,7.42,7.42,0,0,0,1,3.74,7.5,7.5,0,0,1,7.49-7.24h74.83Z"/><path class="cls-27" d="M433.08,295.15H421.5a13.5,13.5,0,0,1,0-27h80.33a3,3,0,1,1,0,6H421.5a7.5,7.5,0,0,0,0,15h11.58"/><path class="cls-27" d="M448.92,289.15h52.91a3,3,0,1,1,0,6H448.92"/><path class="cls-24" d="M448.92,284.81v13.55a2,2,0,0,1-2.89,1.81l-4.16-2a2.06,2.06,0,0,0-1.75,0l-4.16,2a2,2,0,0,1-2.88-1.81V284.81"/><line class="cls-34" x1="497.29" y1="274.15" x2="497.29" y2="289.15"/><path class="cls-36" d="M433.08,295.15H421.5a13.5,13.5,0,0,1,0-27h80.33a3,3,0,1,1,0,6H421.5a7.5,7.5,0,0,0,0,15h11.58"/><path class="cls-36" d="M448.92,289.15h52.91a3,3,0,1,1,0,6H448.92"/><path class="cls-26" d="M448.92,284.81v13.55a2,2,0,0,1-2.89,1.81l-4.16-2a2.06,2.06,0,0,0-1.75,0l-4.16,2a2,2,0,0,1-2.88-1.81V284.81"/><line class="cls-10" x1="486.62" y1="284.48" x2="488.17" y2="284.48"/><line class="cls-10" x1="474" y1="284.48" x2="482.04" y2="284.48"/><line class="cls-10" x1="423.58" y1="284.48" x2="465.58" y2="284.48"/><line class="cls-34" x1="429.83" y1="284.48" x2="451.83" y2="284.48"/><path class="cls-37" d="M441,200.92h31.15a3.11,3.11,0,0,1,3.11,3.11V230.8a12,12,0,0,1-12,12H449.87a12,12,0,0,1-12-12V204a3.11,3.11,0,0,1,3.11-3.11Z"/><path class="cls-38" d="M462.85,200.92H446.22a3,3,0,0,0-2.91,3.12V230.8c0,6.63,5,12,11.22,12s11.23-5.38,11.23-12V204A3,3,0,0,0,462.85,200.92Z"/><path class="cls-13" d="M475.68,179.55H454.84a3.63,3.63,0,1,1,0-7.26h2.37a3.8,3.8,0,0,0,3.8-3.8.37.37,0,1,0-.74,0,2.86,2.86,0,0,1-2.94,2.85h-5.89a5.9,5.9,0,1,0,0,11.8h9.24a3.07,3.07,0,0,1,0,6.13h-10.2a3.82,3.82,0,0,0-3.81,3.81c0,4.76-2,7-5.15,7.61h29.2a3.81,3.81,0,0,1,1.82-7.15h3.14a7,7,0,1,0,0-14ZM467.75,188a1.81,1.81,0,1,1,1.8-1.8A1.8,1.8,0,0,1,467.75,188Z"/><path class="cls-26" d="M441,200.92h31.15a3.11,3.11,0,0,1,3.11,3.11V230.8a12,12,0,0,1-12,12H449.87a12,12,0,0,1-12-12V204a3.11,3.11,0,0,1,3.11-3.11Z"/><path class="cls-26" d="M475.33,207.57h3.07a4.14,4.14,0,0,1,4.15,4.14V224.6a4.14,4.14,0,0,1-4.15,4.14h-2.86"/><line class="cls-9" x1="452.21" y1="204.92" x2="461.38" y2="204.92"/><line class="cls-9" x1="447.75" y1="204.92" x2="448.04" y2="204.92"/></g></g></svg>