<svg id="Layer_1" data-name="Layer 1" xmlns="http://www.w3.org/2000/svg" viewBox="0 0 520 380.8"><defs><style>.cls-1{fill:#821515;}.cls-2{fill:#a51717;}.cls-3{fill:#af1b1b;}.cls-4{fill:#a31a1a;}.cls-5{fill:#aa1d1d;}.cls-6{fill:#c62626;}</style></defs><title>hat</title><g id="Layer_1-2" data-name="Layer 1"><path class="cls-1" d="M520,328.3v.9a12.61,12.61,0,0,1-1.6,5.1c-2.9,5-9.3,9.9-18.7,14.4h-.1c-8.8,4.2-20.3,8.2-33.9,11.7-10.5,2.8-22.4,5.3-35.4,7.6-.2,0-.4.1-.6.1-5.9,1-12,2-18.3,2.9-3.2.5-6.4.9-9.6,1.3l-9.9,1.2c-1.4.2-2.8.3-4.2.5-.6.1-1.1.1-1.7.2-6.5.7-13.2,1.4-20.1,2-4.8.4-9.8.9-14.8,1.2-1,.1-2,.1-3,.2-.7,0-1.3.1-2,.1-2.6.2-5.2.4-7.9.5-4.7.3-9.4.6-14.2.8l-5,.3-5.5.3c-1.4.1-2.8.1-4.3.2-2,.1-4,.1-6,.2s-4,.1-6,.2-4,.1-6,.2c-4,.1-8.1.2-12.3.2-2,0-4.1,0-6.2.1-4.1,0-8.3.1-12.5.1-6.1,0-12.2,0-18.2-.1-1.4,0-2.9,0-4.3-.1-2.6,0-5.1-.1-7.7-.2-2,0-3.9-.1-5.9-.1s-3.9-.1-5.9-.2-3.9-.1-5.8-.2-3.9-.2-5.8-.2c-3.8-.2-7.6-.3-11.4-.5l-5.6-.3c-3.7-.2-7.4-.4-11.1-.7-1.8-.1-3.7-.3-5.5-.4s-3.6-.3-5.4-.4-3.4-.3-5-.4c-1.9-.2-3.8-.3-5.7-.5-3.5-.3-6.9-.6-10.3-1-5.1-.5-10.2-1-15.1-1.6l-4.9-.6-4.8-.6-4.8-.6c-2.5-.3-4.9-.7-7.3-1-.9-.1-1.9-.3-2.8-.4-1.3-.2-2.5-.4-3.7-.6a2.92,2.92,0,0,1-.9-.2c-1.2-.2-2.4-.4-3.5-.5-2.9-.5-5.8-1-8.6-1.5-1.6-.3-3.2-.6-4.7-.8-1.3-.2-2.5-.5-3.7-.7-2.5-.5-5-1-7.4-1.5-.2,0-.4-.1-.6-.1-1.2-.3-2.5-.5-3.7-.8-.1,0-.1,0-.2-.1-1.4-.3-2.7-.6-4-.9-1.8-.4-3.6-.8-5.4-1.3-.6-.1-1.2-.3-1.8-.4-1-.2-1.9-.5-2.8-.7-1.4-.4-2.8-.7-4.1-1.1-2.3-.6-4.5-1.2-6.6-1.9s-4.2-1.3-6.2-1.9c-.5-.2-1-.3-1.5-.5l-2.7-.9c-.1,0-.1,0-.2-.1-1.4-.5-2.8-1-4.1-1.5-.9-.4-1.8-.7-2.6-1-2.5-1-4.9-2-7.1-3.1a.1.1,0,0,1-.1-.1,15.05,15.05,0,0,1-2.2-1.1,5.36,5.36,0,0,0-1.1-.5,4.67,4.67,0,0,0-1-.5,4.67,4.67,0,0,0-1-.5,57.28,57.28,0,0,1-6.8-4.5,32.5,32.5,0,0,1-5.3-5.1,13.63,13.63,0,0,1-3-7.2v-.9c0-12.5,21.5-24,57.5-33.1,1.9-.5,3.9-1,5.9-1.5,47.7-11.1,118.1-18.2,196.6-18.2,143.3.2,259.7,23.8,259.7,52.9Z"/><path class="cls-2" d="M438.9,35a6.3,6.3,0,0,0,1-2.9C439.6,33.1,439.2,34.1,438.9,35ZM95,36.3c-1.1-2.4-1.8-3.8-2-4.2A9,9,0,0,0,95,36.3Zm-2-4.2ZM438.9,35v.1C405.9,126,378.2,200.2,393,305h-.2a5.92,5.92,0,0,1,1.2,3.5c0,6-10.5,11.4-28,15.8-24,5.9-61.2,9.7-103,9.7-71.5,0-129.7-11.2-131-25h-2s5-4,5-98c0-48.1-11-93.8-21.7-127A453,453,0,0,0,95,36.3v-.1a18,18,0,0,0,3.5,3.1c.2.1.3.2.5.3.5.3,1,.7,1.6,1a7.46,7.46,0,0,1,1.2.7c.4.2.8.4,1.3.7l.6.3c.2.1.5.2.7.3s.5.2.7.3l1.5.6h.1c1.5.6,3,1.2,4.7,1.8l1.8.6c.9.3,1.8.6,2.8.9h.1a12.09,12.09,0,0,0,1.8.5c.3.1.6.2,1,.3,1.3.4,2.7.8,4.1,1.2s2.9.8,4.4,1.1a26.81,26.81,0,0,1,2.7.7c.6.1,1.3.3,1.9.4l1.2.3c1.2.3,2.4.5,3.6.8a25.58,25.58,0,0,0,2.7.5h.1c.8.2,1.6.3,2.5.5a.6.6,0,0,1,.4.1c1.6.3,3.3.6,5,.9.8.1,1.7.3,2.5.4,1,.2,2.1.3,3.2.5,1.9.3,3.8.6,5.8.9l2.4.3c.2,0,.4.1.6.1l2.5.3a11.08,11.08,0,0,0,1.9.2l4.9.6c1.1.1,2.1.3,3.2.4a31.06,31.06,0,0,1,3.2.4c1.1.1,2.2.2,3.3.4,3.3.3,6.7.7,10.1,1l6.9.6,3.8.3c1.1.1,2.2.2,3.4.2s2.4.2,3.6.2,2.4.2,3.7.2c2.4.2,4.9.3,7.4.4,1.3.1,2.5.1,3.8.2l7.6.3c1.3.1,2.6.1,3.9.1s2.6.1,3.9.1,2.6.1,3.9.1,2.6.1,3.9.1c1.6,0,3.2.1,4.8.1h3.2c4,0,8,.1,12.1.1h12.4c2.7,0,5.5-.1,8.2-.1,1.4,0,2.7-.1,4-.1s2.7-.1,4-.1,2.7-.1,4-.1c1,0,1.9-.1,2.8-.1,1.2,0,2.5-.1,3.7-.1s2.3-.1,3.4-.2c3.2-.1,6.4-.3,9.5-.5,2.2-.1,4.4-.3,6.6-.4.7,0,1.3-.1,2-.1,3.3-.2,6.6-.5,9.8-.7,4.6-.4,9.1-.8,13.4-1.2.4,0,.8-.1,1.1-.1l2.8-.3c2.2-.2,4.5-.5,6.6-.7s4.3-.5,6.4-.8c4.2-.5,8.3-1.1,12.2-1.7.1,0,.3-.1.4-.1,4.3-.7,8.5-1.4,12.4-2.2,1-.2,2-.4,2.9-.6s1.9-.4,2.8-.6l2.8-.6,2.7-.6c1.7-.4,3.4-.8,5-1.2,1.1-.3,2.1-.6,3.1-.8,3.6-1,6.8-2,9.8-3.1a41.74,41.74,0,0,0,4.7-1.9h.1c.4-.2.8-.3,1.2-.5.8-.3,1.5-.7,2.2-1s1.4-.7,2-1.1a19,19,0,0,0,6.9-6Zm1.1-3Z"/><path class="cls-3" d="M520,322.3v.9a12.61,12.61,0,0,1-1.6,5.1c-2.9,5-9.3,9.9-18.7,14.4h-.1c-8.8,4.2-20.3,8.2-33.9,11.7-10.5,2.8-22.4,5.3-35.4,7.6-.2,0-.4.1-.6.1-5.9,1-12,2-18.3,2.9-3.2.5-6.4.9-9.6,1.3l-9.9,1.2c-1.4.2-2.8.3-4.2.5-.6.1-1.1.1-1.7.2-6.5.7-13.2,1.4-20.1,2-4.8.4-9.8.9-14.8,1.2-1,.1-2,.1-3,.2-.7,0-1.3.1-2,.1-2.6.2-5.2.4-7.9.5-4.7.3-9.4.6-14.2.8l-5,.3-5.5.3c-1.4.1-2.8.1-4.3.2-2,.1-4,.1-6,.2s-4,.1-6,.2-4,.1-6,.2c-4,.1-8.1.2-12.3.2-2,0-4.1,0-6.2.1-4.1,0-8.3.1-12.5.1-6.1,0-12.2,0-18.2-.1-1.4,0-2.9,0-4.3-.1-2.6,0-5.1-.1-7.7-.2-2,0-3.9-.1-5.9-.1s-3.9-.1-5.9-.2-3.9-.1-5.8-.2-3.9-.2-5.8-.2c-3.8-.2-7.6-.3-11.4-.5l-5.6-.3c-3.7-.2-7.4-.4-11.1-.7-1.8-.1-3.7-.3-5.5-.4s-3.6-.3-5.4-.4-3.4-.3-5-.4c-1.9-.2-3.8-.3-5.7-.5-3.5-.3-6.9-.6-10.3-1-5.1-.5-10.2-1-15.1-1.6l-4.9-.6-4.8-.6-4.8-.6c-2.5-.3-4.9-.7-7.3-1-.9-.1-1.9-.3-2.8-.4-1.3-.2-2.5-.4-3.7-.6a2.92,2.92,0,0,1-.9-.2c-1.2-.2-2.4-.4-3.5-.5-2.9-.5-5.8-1-8.6-1.5-1.6-.3-3.2-.6-4.7-.8-1.3-.2-2.5-.5-3.7-.7-2.5-.5-5-1-7.4-1.5-.2,0-.4-.1-.6-.1-1.2-.3-2.5-.5-3.7-.8-.1,0-.1,0-.2-.1-1.4-.3-2.7-.6-4-.9-1.8-.4-3.6-.8-5.4-1.3-.6-.1-1.2-.3-1.8-.4-1-.2-1.9-.5-2.8-.7-1.4-.4-2.8-.7-4.1-1.1-2.3-.6-4.5-1.2-6.6-1.9s-4.2-1.3-6.2-1.9c-.5-.2-1-.3-1.5-.5l-2.7-.9c-.1,0-.1,0-.2-.1-1.4-.5-2.8-1-4.1-1.5-.9-.4-1.8-.7-2.6-1-2.5-1-4.9-2-7.1-3.1a.1.1,0,0,1-.1-.1,15.05,15.05,0,0,1-2.2-1.1,5.36,5.36,0,0,0-1.1-.5,4.67,4.67,0,0,0-1-.5,4.67,4.67,0,0,0-1-.5,57.28,57.28,0,0,1-6.8-4.5,32.5,32.5,0,0,1-5.3-5.1,13.63,13.63,0,0,1-3-7.2v-.9c0-12.5,21.5-24,57.5-33.1,1.9-.5,3.9-1,5.9-1.5,47.7-11.1,118.1-18.2,196.6-18.2,143.3.2,259.7,23.8,259.7,52.9Z"/><path class="cls-2" d="M438.9,35a6.3,6.3,0,0,0,1-2.9C439.6,33.1,439.2,34.1,438.9,35ZM95,36.3c-1.1-2.4-1.8-3.8-2-4.2A9,9,0,0,0,95,36.3Zm-2-4.2ZM438.9,35v.1C405.9,126,378.2,200.2,393,305h-.2a5.92,5.92,0,0,1,1.2,3.5c0,6-10.5,11.4-28,15.8-24,5.9-61.2,9.7-103,9.7-71.5,0-129.7-11.2-131-25h-2s5-4,5-98c0-48.1-11-93.8-21.7-127H359S305.5,71.8,251.2,62.9h3.2c4,0,8,.1,12.1.1h12.4c2.7,0,5.5-.1,8.2-.1,1.4,0,2.7-.1,4-.1s2.7-.1,4-.1,2.7-.1,4-.1c1,0,1.9-.1,2.8-.1,1.2,0,2.5-.1,3.7-.1s2.3-.1,3.4-.2c3.2-.1,6.4-.3,9.5-.5,2.2-.1,4.4-.3,6.6-.4.7,0,1.3-.1,2-.1,3.3-.2,6.6-.5,9.8-.7,4.6-.4,9.1-.8,13.4-1.2.4,0,.8-.1,1.1-.1l2.8-.3c2.2-.2,4.5-.5,6.6-.7s4.3-.5,6.4-.8c4.2-.5,8.3-1.1,12.2-1.7.1,0,.3-.1.4-.1,4.3-.7,8.5-1.4,12.4-2.2,1-.2,2-.4,2.9-.6s1.9-.4,2.8-.6l2.8-.6,2.7-.6c1.7-.4,3.4-.8,5-1.2,1.1-.3,2.1-.6,3.1-.8,3.6-1,6.8-2,9.8-3.1A41.74,41.74,0,0,0,426,44h.1c.4-.2.8-.3,1.2-.5.8-.3,1.5-.7,2.2-1s1.4-.7,2-1.1c3.7-2.2,6.1-4.3,7.4-6.4Zm1.1-3Z"/><path class="cls-1" d="M366,324.3c-24,5.9-61.2,9.7-103,9.7-71.5,0-129.7-11.2-131-25h-2s5-4,5-98c0-48.1-11-93.8-21.7-127A453,453,0,0,0,95,36.3,7.38,7.38,0,0,1,93,32v-.6c0-7.9,16-15.1,42.3-20.6,2.1,2.7,4.1,5.4,6,8.4a203.31,203.31,0,0,1,16.3,29.4c1.2,2.6,2.3,5.2,3.5,7.9,3.6,8.6,6.9,17.8,9.9,27.5,11.1,36.1,17.5,79,17.5,125a455.73,455.73,0,0,1-9.2,92.4,90.3,90.3,0,0,0,9.2,3.1c29.2,8.1,116,15.4,177.5,19.8Z"/><path class="cls-3" d="M440,31.5v.6a7.33,7.33,0,0,1-1.1,3c-1.3,2.1-3.7,4.1-7.1,6-.6.4-1.3.7-2,1.1s-1.4.7-2.2,1c-.4.2-.8.3-1.2.5h-.1c-1.5.6-3,1.3-4.7,1.9-3,1.1-6.2,2.1-9.8,3.1-1,.3-2.1.6-3.1.8-1.6.4-3.3.8-5,1.2l-2.7.6c-.9.2-1.8.4-2.8.6l-2.8.6-2.9.6c-3.9.8-8.1,1.5-12.4,2.2a.6.6,0,0,0-.4.1c-3.9.6-8,1.2-12.2,1.7-2.1.3-4.3.5-6.4.8s-4.4.5-6.6.7l-2.8.3c-.4,0-.8.1-1.1.1-4.4.4-8.8.8-13.4,1.2-3.2.3-6.5.5-9.8.7a13.4,13.4,0,0,1-2,.1c-2.2.1-4.4.3-6.6.4-3.1.2-6.3.3-9.5.5-1.1.1-2.2.1-3.4.2s-2.5.1-3.7.1c-1,0-1.9.1-2.8.1-1.3,0-2.7.1-4,.1s-2.7.1-4,.1-2.7.1-4,.1c-2.7.1-5.4.1-8.2.1H266.8c-4.1,0-8.1,0-12.1-.1h-3.2c-1.6,0-3.2,0-4.8-.1-1.3,0-2.6-.1-3.9-.1s-2.6-.1-3.9-.1-2.6-.1-3.9-.1-2.6-.1-3.9-.1l-7.6-.3c-1.3-.1-2.5-.1-3.8-.2-2.5-.1-5-.3-7.4-.4-1.2-.1-2.4-.2-3.7-.2s-2.4-.2-3.6-.2-2.3-.2-3.4-.2l-3.8-.3-6.9-.6c-3.4-.3-6.8-.6-10.1-1-1.1-.1-2.2-.2-3.3-.4a31.06,31.06,0,0,1-3.2-.4c-1.1-.1-2.1-.3-3.2-.4l-4.9-.6a11.08,11.08,0,0,0-1.9-.2l-2.5-.3c-.2,0-.4-.1-.6-.1l-2.4-.3-5.8-.9c-1.1-.2-2.1-.3-3.2-.5-.8-.1-1.7-.3-2.5-.4l-5-.9c-.1,0-.3-.1-.4-.1-.8-.2-1.7-.3-2.5-.5h-.1a25.58,25.58,0,0,0-2.7-.5c-1.2-.3-2.4-.5-3.6-.8l-1.2-.3c-.6-.1-1.3-.3-1.9-.4a26.81,26.81,0,0,1-2.7-.7c-1.5-.4-3-.7-4.4-1.1s-2.8-.8-4.1-1.2l-1-.3a12.09,12.09,0,0,0-1.8-.5h-.1c-.9-.3-1.9-.6-2.8-.9l-1.8-.6c-1.7-.6-3.3-1.2-4.7-1.8h-.1l-1.5-.6c-.2-.1-.5-.2-.7-.3a4.88,4.88,0,0,0-.7-.3l-.6-.3a8.26,8.26,0,0,1-1.3-.7c-.4-.2-.8-.5-1.2-.7-.6-.3-1.1-.7-1.6-1-.2-.1-.3-.2-.5-.3a18,18,0,0,1-3.5-3.1,7.38,7.38,0,0,1-2-4.3v-.6c0-7.9,16-15.1,42.3-20.6,11.6-2.4,25.2-4.5,40.4-6.2A847,847,0,0,1,266.3,0C362.3,0,440,14.1,440,31.5Z"/><path class="cls-1" d="M345.8,372.1c-2.6.2-5.2.4-7.9.5-4.7.3-9.4.6-14.2.8l-5,.3-5.5.3c-1.4.1-2.8.1-4.3.2-2,.1-4,.1-6,.2s-4,.1-6,.2-4,.1-6,.2c-4,.1-8.1.2-12.3.2-2,0-4.1,0-6.2.1-4.1,0-8.3.1-12.5.1-6.1,0-12.2,0-18.2-.1-1.4,0-2.9,0-4.3-.1-2.6,0-5.1-.1-7.7-.2-2,0-3.9-.1-5.9-.1s-3.9-.1-5.9-.2-3.9-.1-5.8-.2-3.9-.2-5.8-.2c-3.8-.2-7.6-.3-11.4-.5l-5.6-.3c-3.7-.2-7.4-.4-11.1-.7-1.8-.1-3.7-.3-5.5-.4s-3.6-.3-5.4-.4-3.4-.3-5-.4c-1.9-.2-3.8-.3-5.7-.5-3.5-.3-6.9-.6-10.3-1-5.1-.5-10.2-1-15.1-1.6l-4.9-.6-4.8-.6-4.8-.6c-2.5-.3-4.9-.7-7.3-1-.9-.1-1.9-.3-2.8-.4-1.3-.2-2.5-.4-3.7-.6a2.92,2.92,0,0,1-.9-.2c-1.2-.2-2.4-.4-3.5-.5-2.9-.5-5.8-1-8.6-1.5-1.6-.3-3.2-.6-4.7-.8-1.3-.2-2.5-.5-3.7-.7-2.5-.5-5-1-7.4-1.5-.2,0-.4-.1-.6-.1-1.2-.3-2.5-.5-3.7-.8-.1,0-.1,0-.2-.1-1.4-.3-2.7-.6-4-.9-1.8-.4-3.6-.8-5.4-1.3-.6-.1-1.2-.3-1.8-.4-1-.2-1.9-.5-2.8-.7-1.4-.4-2.8-.7-4.1-1.1-2.3-.6-4.5-1.2-6.6-1.9s-4.2-1.3-6.2-1.9c-.5-.2-1-.3-1.5-.5l-2.7-.9c-.1,0-.1,0-.2-.1-1.4-.5-2.8-1-4.1-1.5-.9-.4-1.8-.7-2.6-1-2.5-1-4.9-2-7.1-3.1a.1.1,0,0,1-.1-.1,15.05,15.05,0,0,1-2.2-1.1,5.36,5.36,0,0,0-1.1-.5,4.67,4.67,0,0,0-1-.5,4.67,4.67,0,0,0-1-.5,57.28,57.28,0,0,1-6.8-4.5A32.5,32.5,0,0,1,3,330.7a13.63,13.63,0,0,1-3-7.2v-.9c0-12.5,21.5-24,57.5-33.1-10,10.6-15.3,22.7-3.5,32.8,28,24,97,35,151,41,30.4,3.1,92.4,6.5,140.8,8.8Z"/><path class="cls-4" d="M251.2,62.9c-1.6,0-3.2,0-4.8-.1-1.3,0-2.6-.1-3.9-.1s-2.6-.1-3.9-.1-2.6-.1-3.9-.1-2.6-.1-3.9-.1l-7.6-.3c-1.3-.1-2.5-.1-3.8-.2-2.5-.1-5-.3-7.4-.4-1.2-.1-2.4-.2-3.7-.2s-2.4-.2-3.6-.2-2.3-.2-3.4-.2l-3.8-.3-6.9-.6c-3.4-.3-6.8-.6-10.1-1-1.1-.1-2.2-.2-3.3-.4a31.06,31.06,0,0,1-3.2-.4c-1.1-.1-2.1-.3-3.2-.4l-4.9-.6A11.08,11.08,0,0,0,164,57l-2.5-.3c-.2,0-.4-.1-.6-.1l-2.4-.3-5.8-.9c-1.1-.2-2.1-.3-3.2-.5-.8-.1-1.7-.3-2.5-.4l-5-.9c-.1,0-.3-.1-.4-.1-.8-.2-1.7-.3-2.5-.5H139a25.58,25.58,0,0,0-2.7-.5c-1.2-.3-2.4-.5-3.6-.8l-1.2-.3c-.6-.1-1.3-.3-1.9-.4a26.81,26.81,0,0,1-2.7-.7c-1.5-.4-3-.7-4.4-1.1s-2.8-.8-4.1-1.2l-1-.3a12.09,12.09,0,0,0-1.8-.5h-.1c-.9-.3-1.9-.6-2.8-.9l-1.8-.6c-1.7-.6-3.3-1.2-4.7-1.8h-.1l-1.5-.6c-.2-.1-.5-.2-.7-.3a4.88,4.88,0,0,0-.7-.3l-.6-.3a8.26,8.26,0,0,1-1.3-.7c-.4-.2-.8-.5-1.2-.7-.6-.3-1.1-.7-1.6-1-.2-.1-.3-.2-.5-.3a18.3,18.3,0,0,1-3.5-3.1v.1a7.38,7.38,0,0,1-2-4.3v-.6c0-7.9,16-15.1,42.3-20.6C146.4,8.8,160,6.7,175.2,5c-12.8,4.9-25.4,10-34.4,14.6-10,5-15.6,9.3-12.4,11.8,8.1,6.1,8.9,12.2,28.6,17.6,9.5,2.6,23.3,5.1,44.4,7.4,16,1.3,32.9,3.7,49.8,6.5Z"/><path class="cls-5" d="M409,50s-16,3-25,5-30,4-30,4,6,67,2,119,7,146,7,146l17-4s-14-87-4-140S409,50,409,50Z"/><path class="cls-6" d="M446,297s66,13,58,27-77,25-77,25,53-16,53-27S446,297,446,297Z"/><path class="cls-6" d="M350,13s66,9.3,58,19.2S331,50,331,50s53-11.4,53-19.2S350,13,350,13Z"/></g></svg>